/* XPM */
static const char *defaultShiftClick_xpm[]={
"14 14 3 1",
". c None",
"a c #0000ff",
"# c #ff0000",
".###..#.######",
"#..#..#.#...#.",
"#..#..#.#...#.",
".#.####.###.#.",
"..##..#.#...#.",
"..##..#.#...#.",
"##.#..#.#...#.",
"..............",
"aaaaaaaaaaaaaa",
"a...a####a...a",
"a...a####a...a",
"a...a####a...a",
"a...a####a...a",
"a...a####a...a"};
