/* XPM */
static const char *some_in_xpm[]={
"14 14 4 1",
"a c None",
"# c #0000ff",
"b c #c00000",
". c #ffffff",
"...#......#aaa",
"..##......##aa",
".##.......b##a",
".##......bb##.",
"##......bbb.##",
"##.....bbb..##",
"##aa...bb...##",
"##bba..bb...##",
"##.bb.bb....##",
"##.bbbbb....##",
".##.bbbb...##.",
".##..bb....##.",
"..##.bb...##..",
"...#.aaa..#..."};
