/* XPM */
static const char *defaultMiddleClick_xpm[]={
"14 14 3 1",
". c None",
"# c #0000ff",
"a c #ff0000",
"..............",
"..............",
"..............",
"..............",
"..............",
"..............",
"..............",
"..............",
"##############",
"#...#aaaa#...#",
"#...#aaaa#...#",
"#...#aaaa#...#",
"#...#aaaa#...#",
"#...#aaaa#...#"};
