/* XPM */
static const char *defaultDoubleClick_xpm[]={
"14 14 3 1",
". c None",
"a c #0000ff",
"# c #ff0000",
"..##..........",
".#..#.........",
"#....#..#....#",
"....#....#..#.",
"...#......##..",
"..#.......##..",
".#.......#..#.",
"######..#....#",
"aaaaaaaaaaaaaa",
"a####a...a...a",
"a####a...a...a",
"a####a...a...a",
"a####a...a...a",
"a####a...a...a"};
