/* XPM */
static const char *playnowim_xpm[]={
"16 16 5 1",
". c None",
"# c #0000ff",
"b c #808080",
"c c #ff0000",
"a c #ffff00",
"....##.......aaa",
"....##b.....aaa.",
"....##b....aaa..",
".########.aaa...",
".########aaaaaaa",
"..bb##bbbaaaaaa.",
"....##b.....aaa.",
"....##b..a.aaa..",
".....bb..aaaa...",
".........aaa....",
"c..c..cc.aaaa.c.",
"c..c.c..caaaaac.",
"cc.c.c..c.c.c.c.",
"cc.c.c..c.c.c.c.",
"c.cc.c..c.c.c.c.",
"c..c..cc...c.c.."};
