/* XPM */
static const char * skipbackwardim_xpm[] = {
"16 16 3 1",
" 	c None",
".	c #FFFF00",
"+	c #000000",
"    ...         ",
"      ..        ",
"+      ..     ++",
"+     ++..   +++",
"+   +++++..+++++",
"+ +++.......+ ++",
"++++........  ++",
"+++  ..+++    ++",
"+++   ..++    ++",
"++++   ..+..  ++",
"+ ++++ +....+ ++",
"+   +++++...++++",
"+     ++.... +++",
"+      .....  ++",
"                ",
"                "};
