/* XPM */
static const char *songinfo_xpm[]={
"20 20 23 1",
". c None",
"# c #0000ff",
"k c #0080ff",
"g c #0e0efc",
"q c #1010ff",
"p c #2020ff",
"s c #3030ff",
"b c #3737f6",
"r c #3f3fff",
"o c #4040ff",
"l c #5252f1",
"u c #7070ff",
"n c #7f7fff",
"i c #8989e8",
"c c #8989e9",
"t c #9f9fff",
"m c #a5a5e4",
"h c #b2b2e2",
"j c #bfbfff",
"a c #c0c0ff",
"f c #cfcfff",
"d c #dfdfff",
"e c #ffffff",
".....###aaa##b......",
"..cbb##deeef#gbbh...",
".ib###jeeeeek###lm..",
".b####jeeeeek####lh.",
".b####jeeeeek#####b.",
"#######neeeo######b.",
"#######poooq######gb",
"#######rnnnp########",
"######steeeup#######",
"######jeeeeek#######",
"######jeeeeek#######",
"######jeeeeek#######",
"######jeeeeek#######",
"######jeeeeek#####gb",
"######jeeeeek#####b.",
".b####jeeeeek#####b.",
".b####jeeeeek####lh.",
".ib##ndeeeeejk##lm..",
"..cbbaeeeeeeeabbh...",
".....#########......"};
