/* XPM */
static const char * stopPrelisten_xpm[] = {
"20 20 187 2",
"  	c None",
". 	c #BDBDBF",
"+ 	c #78787A",
"@ 	c #424446",
"# 	c #282B2C",
"$ 	c #2C2E30",
"% 	c #4A4B4D",
"& 	c #78797B",
"* 	c #9F9F9F",
"= 	c #D1D1D1",
"- 	c #CACBCB",
"; 	c #929394",
"> 	c #5C5D5F",
", 	c #36393A",
"' 	c #333537",
") 	c #4E4F51",
"! 	c #6B6C6E",
"~ 	c #818283",
"{ 	c #A1A2A3",
"] 	c #BEBEBF",
"^ 	c #DD2525",
"/ 	c #CECFCF",
"( 	c #767879",
"_ 	c #2B2E2F",
": 	c #1B1E1F",
"< 	c #222627",
"[ 	c #373A3B",
"} 	c #555657",
"| 	c #676869",
"1 	c #5E5F61",
"2 	c #4A4C4F",
"3 	c #8B8D8F",
"4 	c #3D3F41",
"5 	c #202123",
"6 	c #262729",
"7 	c #636464",
"8 	c #B4B4B5",
"9 	c #E1E1E1",
"0 	c #242628",
"a 	c #2E2F31",
"b 	c #606162",
"c 	c #C8C8C8",
"d 	c #ADAEAE",
"e 	c #6C6C6D",
"f 	c #B4B5B6",
"g 	c #87898A",
"h 	c #444748",
"i 	c #3E4244",
"j 	c #909292",
"k 	c #999A9B",
"l 	c #525454",
"m 	c #363A3C",
"n 	c #8B8D8D",
"o 	c #E3E3E3",
"p 	c #58595B",
"q 	c #292A2C",
"r 	c #D0D0D0",
"s 	c #7D7F7F",
"t 	c #35393B",
"u 	c #98999A",
"v 	c #B6B7B7",
"w 	c #35383A",
"x 	c #272A2D",
"y 	c #717375",
"z 	c #D4D4D5",
"A 	c #818284",
"B 	c #2F3133",
"C 	c #8A8C8E",
"D 	c #A5A6A6",
"E 	c #2C2F32",
"F 	c #24272A",
"G 	c #46494B",
"H 	c #BEC0BF",
"I 	c #8B8C8D",
"J 	c #535456",
"K 	c #333436",
"L 	c #585B5D",
"M 	c #676A6B",
"N 	c #34373B",
"O 	c #3A3E41",
"P 	c #ACADAE",
"Q 	c #7D8181",
"R 	c #65696A",
"S 	c #4C4F51",
"T 	c #393B3E",
"U 	c #404345",
"V 	c #BEBFBF",
"W 	c #9C9D9C",
"X 	c #7B7D7D",
"Y 	c #313537",
"Z 	c #44484C",
"` 	c #4D5256",
" .	c #494C4F",
"..	c #2E3335",
"+.	c #2C3134",
"@.	c #313639",
"#.	c #34393C",
"$.	c #353A3D",
"%.	c #373A3C",
"&.	c #9B9B9C",
"*.	c #4C4D4D",
"=.	c #444647",
"-.	c #363A3D",
";.	c #53585C",
">.	c #232327",
",.	c #3F4245",
"'.	c #6A6B6C",
").	c #797A7B",
"!.	c #383D40",
"~.	c #3B4043",
"{.	c #3A3F42",
"].	c #34383B",
"^.	c #292D30",
"/.	c #575859",
"(.	c #2C2F31",
"_.	c #303336",
":.	c #3C4043",
"<.	c #52565A",
"[.	c #1C1D1F",
"}.	c #2B2E31",
"|.	c #444749",
"1.	c #434649",
"2.	c #34373A",
"3.	c #44494C",
"4.	c #2B2F32",
"5.	c #2A2F32",
"6.	c #2E3234",
"7.	c #383C3F",
"8.	c #141517",
"9.	c #1A1C1E",
"0.	c #25292B",
"a.	c #323639",
"b.	c #2D3134",
"c.	c #404548",
"d.	c #2F3437",
"e.	c #33383B",
"f.	c #282C2F",
"g.	c #4E5052",
"h.	c #25282A",
"i.	c #181A1C",
"j.	c #202225",
"k.	c #2C3034",
"l.	c #36393B",
"m.	c #262A2D",
"n.	c #363B3E",
"o.	c #373C40",
"p.	c #373A3D",
"q.	c #A1A1A1",
"r.	c #3F4346",
"s.	c #35393C",
"t.	c #2E3235",
"u.	c #3C4044",
"v.	c #68696B",
"w.	c #57595B",
"x.	c #313437",
"y.	c #2A2D30",
"z.	c #363B3F",
"A.	c #595C5E",
"B.	c #3D4043",
"C.	c #484A4D",
"D.	c #4D5053",
"E.	c #4B4F52",
"F.	c #5C5F63",
"G.	c #ABADAF",
"H.	c #9A9C9D",
"I.	c #535659",
"J.	c #26292C",
"K.	c #2B3033",
"L.	c #8E9091",
"M.	c #666666",
"N.	c #515252",
"O.	c #5F6060",
"P.	c #CCCCCD",
"Q.	c #DFE0E0",
"R.	c #9A9B9B",
"S.	c #333435",
"T.	c #2A2E31",
"U.	c #E2E2E2",
"V.	c #D2D2D2",
"W.	c #CBCBCB",
"X.	c #E0E1E1",
"Y.	c #DDDDDD",
"Z.	c #A6A6A6",
"`.	c #67686A",
" +	c #3E4042",
".+	c #37393B",
"++	c #4C4E51",
"            . + @ # $ % & * =           ",
"          - ; > , # ' ) ! ~ { ] ^ ^     ",
"^ ^     / ( _ : < [ } | 1 2 ^ ^ ^ ^     ",
"^ ^ ^ ^ 3 4 5 6 7 8 9   ^ ^ ^ ^ ^ ^ ^   ",
"^ ^ ^ ^ ^ 0 a b c     ^ ^ ^ ^ ^ ^ ^ d   ",
"    ^ ^ ^ ^ e f     ^ ^ ^ ^ ^ g h i j   ",
"      k ^ ^ ^     ^ ^ ^ ^ ^   d l m n   ",
"    o p q ^ ^ ^ ^ ^ ^ ^       r s t u   ",
"    v w x y r ^ ^ ^ ^         z A B C   ",
"    D E F G ^ ^ ^ ^ ^       H I J K L / ",
"    M N O ^ ^ ^ ^ ^ ^ ^ P Q R S T w U V ",
"W X Y Z ` ^ ^ ^  .  ^ ^ ^ ..+.@.#.$.%.&.",
"*.=.-.;.^ ^ ^ >.,.'.).^ ^ ^ !.~.{.].^./.",
"(._.:.<.^ ^ ^ [.}.|.1.2.^ ^ ^ 3.~.4.5.6.",
"2.2.7.^ ^ ^ 8.9.0.m a.^.b.^ ^ ^ c.d.e.f.",
"> g.^ ^ ^ h.i.j.k.U l.m.b.#.^ ^ ^ n.o.p.",
"q.^ ^ ^ r.s.}.t.u.v.w.x.y.d.~.^ ^ ^ z.A.",
"  ^ ^ ^ B.C.D.E.F.G.H.I.J.K.@.n.^ ^ ^ L.",
"  ^ ^ ^ M.N.O.j P.  Q.R.S.T.d.@.^ ^ ^ ^ ",
"    ^ U.V.W.r X.      Y.Z.`. +.+++^ ^   "};
