/* XPM */
static const char *clearPlaylist_xpm[]={
"16 16 2 1",
"# c None",
". c #ff0000",
".##############.",
"..###########...",
"...#########....",
"....#######.....",
"#.....###.....##",
"####........####",
"#####......#####",
"######....######",
"#####...#..#####",
"####...##...####",
"###...####...###",
"##...######...##",
"#...########...#",
"....#########...",
"..############..",
".#############.."};
