/* XPM */
static const char *defaultMiddleClick_xpm[]={
"14 14 3 1",
". c None",
"# c #0000ff",
"a c #c00000",
"....a..a..a...",
".....a.a.a....",
"......aaa.....",
".......a......",
"####aaaaaa####",
"#...aaaaaa...#",
"#...aaaaaa...#",
"#...aaaaaa...#",
"#...aaaaaa...#",
"#...aaaaaa...#",
"####aaaaaa####",
"#............#",
"#............#",
"#............#"};
