/* XPM */
static const char *dequeueSong_xpm[]={
"16 16 3 1",
". c None",
"a c #808080",
"# c #c00000",
"................",
"................",
"................",
"................",
"................",
"................",
".##############.",
"################",
"################",
".##############a",
"..aaaaaaaaaaaaa.",
"................",
"................",
"................",
"................",
"................"};
