/* XPM */
static const char *playnow_xpm[]={
"16 16 4 1",
". c None",
"# c #0000ff",
"a c #808080",
"b c #ff0000",
"......##........",
"......##a.......",
"......##a.......",
"...########.....",
"...########a....",
"....aa##aaaa....",
"......##a.......",
"......##a.......",
".......aa.......",
"................",
"b..b..bb..b...b.",
"b..b.b..b.b...b.",
"bb.b.b..b.b.b.b.",
"bb.b.b..b.b.b.b.",
"b.bb.b..b.b.b.b.",
"b..b..bb...b.b.."};
