/* XPM */
static const char *prelisten_xpm[]={
"32 32 4 1",
". c None",
"# c #000000",
"a c #0000ff",
"b c #ff0000",
"................................",
"................................",
".............######.............",
"..........#############.........",
"........#######..#######........",
".......#####.........####.......",
"......####.............###......",
"......###...............###.....",
".....###.....aaaaaaaa...###.....",
".....bb...aaaa......aaa..bb.....",
"....bbb..aa...........aa.bbb....",
"....bbbaa..............a.bbb....",
"...bbbba................abbbb...",
"...bbbba................abbbb...",
"...bbbba................abbbb...",
"...bbbba................abbbb...",
"...bbbba................abbbb...",
"...bbbba................abbbb...",
"...bbbbaa...............abbbb...",
"...bbbb.a..............aabbbb...",
"....bbb.aa............aa.bbb....",
"....bbb..a...........aa..bbb....",
".....bb..aa.........aa...bb.....",
"..........aa......aaa...........",
"...........aa....aa.............",
"............a...aa..............",
"............a...aa..............",
"..........aaa....aaa............",
".....aaaaaa........aaaaaaaa.....",
"....aa....................aa....",
"...aa......................aa...",
"...a........................aa.."};
