/* XPM */
static const char *prelisten_xpm[]={
"16 16 4 1",
". c None",
"# c #000000",
"a c #0000c0",
"b c #ff0000",
"....########....",
"...###########..",
"..###aaaaaa####.",
"..b#a......a#b..",
".bba........abb.",
"bbba........abbb",
"bbba........abbb",
"bbba........abbb",
"bbba........abbb",
".bb.a......aabb.",
"..b..aa..aaa.b..",
"......a..a......",
".....aa..a......",
".....a...aa.....",
"..aaaa....aaaa..",
"aaa..........aaa"};
