/* XPM */
static const char *songinfo_xpm[]={
"16 16 3 1",
". c None",
"# c #0000c0",
"a c #808080",
"......###.......",
".....#####......",
".....#####a.....",
".....#####a.....",
"......###a......",
".......aa.......",
".....#####......",
"....#######.....",
"....#######a....",
"....#######a....",
"....#######a....",
"....#######a....",
"....#######a....",
"....#######a....",
"....#######a....",
"...#########a..."};
