/* XPM */
static const char *stopPrelisten_xpm[]={
"16 16 4 1",
"# c None",
". c #000000",
"a c #0000c0",
"b c #ff0000",
"..##........###.",
"................",
"#....aaaaaa....#",
"##....####...b##",
"#bb....##...abb#",
"bbba...#...#abbb",
"bbba#.....##abbb",
"bbba##...###abbb",
"bbba#.....##abbb",
"#bb#.......aabb#",
"##b...a##...#b##",
"##...#a##a...###",
"#...#aa##a#...##",
"...##a###aa#...#",
"..aaaa####aaa...",
".aa##########a.."};
