/* XPM */
static const char* in_xpm[]={
"14 14 2 1",
"# c #c00000",
". c #ffffff",
"............#.",
"...........###",
"..........###.",
".........###..",
".........##...",
"........###...",
".##....###....",
".###...##.....",
"..###.###.....",
"...#####......",
"...#####......",
"....####......",
".....##.......",
".....##......."};
