/* XPM */
static char*mini[]={
"32 32 5 1",
". c #008000",
"c c #ffa858",
"# c #000080",
"a c #00ffff",
"b c #c000c0",
"................................",
"................................",
"................................",
"................................",
"...........#########............",
"........###aaaaaaaaa###.........",
".......#aaaaaaaaaaaaaaa#........",
"......#aaaaaaaaaaaaaaaaa#.......",
".....#aaaaaaaaaaaaaaaaaaa#......",
".....#aaaaaaaaaaaaaaaaaaa#......",
".....#aaaaaaaabbbbbbbaaaa#......",
"......#aaaabbbcccccccbbb#.......",
".......#aabcccccccccccc#b.......",
"........###ccccccccc###..b......",
"...........#########...cccb.....",
"........bcc.........ccccccb.....",
"........bcccccccccccccccccb.....",
".........bcccccccccccccccb......",
"..........bcccccccccccccb.......",
"...........bbbcccccccbbb........",
"..............bbbbbbb...........",
"................................",
"................................",
"................................",
"................................",
"................................",
"................................",
"................................",
"................................",
"................................",
"................................",
"................................"};
