/* XPM */
static const char * dequeueAll_xpm[] = {
"22 22 398 2",
"  	c None",
". 	c #FFFFFF",
"+ 	c #FDFDFD",
"@ 	c #EAEAEA",
"# 	c #E7E9E9",
"$ 	c #E6EDEE",
"% 	c #EAF9FC",
"& 	c #E3FBFE",
"* 	c #D8F9FE",
"= 	c #CBF4FC",
"- 	c #B1E2E9",
"; 	c #ACD9DF",
"> 	c #C6DBDD",
", 	c #F7F8F8",
"' 	c #FEFEFE",
") 	c #FFFEFF",
"! 	c #F0F0F0",
"~ 	c #E8E8E9",
"{ 	c #F8FCFC",
"] 	c #F1FDFE",
"^ 	c #E5FAFE",
"/ 	c #D6F7FE",
"( 	c #C7F5FF",
"_ 	c #BAF3FF",
": 	c #ADF1FF",
"< 	c #A4EFFE",
"[ 	c #9EEEFE",
"} 	c #8FEBFC",
"| 	c #7DCFDB",
"1 	c #CADBDE",
"2 	c #FDFEFC",
"3 	c #E9E9E9",
"4 	c #F2F4F5",
"5 	c #F6FDFE",
"6 	c #EDFCFE",
"7 	c #E4FAFF",
"8 	c #DAF8FF",
"9 	c #CFF7FF",
"0 	c #C3F5FF",
"a 	c #B6F2FF",
"b 	c #A8F0FF",
"c 	c #99EDFE",
"d 	c #8AEAFE",
"e 	c #7EE8FE",
"f 	c #73E6FD",
"g 	c #5CCEE6",
"h 	c #A0BFC5",
"i 	c #F0F6F7",
"j 	c #E7FBFF",
"k 	c #E3FAFF",
"l 	c #DCF9FF",
"m 	c #D3F7FF",
"n 	c #C9F6FF",
"o 	c #BDF3FF",
"p 	c #B1F1FF",
"q 	c #A3EFFF",
"r 	c #95ECFF",
"s 	c #86EAFF",
"t 	c #78E7FF",
"u 	c #6AE4FE",
"v 	c #5CE1FD",
"w 	c #4BB6CD",
"x 	c #99B0B5",
"y 	c #FDFEFE",
"z 	c #EEEFEF",
"A 	c #E9F1F2",
"B 	c #E4FAFE",
"C 	c #DCF9FE",
"D 	c #DBF9FE",
"E 	c #D8F8FE",
"F 	c #CBF6FF",
"G 	c #C1F4FF",
"H 	c #AAF0FF",
"I 	c #9DEEFF",
"J 	c #90EBFF",
"K 	c #82E9FF",
"L 	c #73E6FF",
"M 	c #65E4FF",
"N 	c #57E1FE",
"O 	c #4AD4F3",
"P 	c #3B8797",
"Q 	c #BEC5C6",
"R 	c #FEFDFD",
"S 	c #DBE4E5",
"T 	c #E1F9FE",
"U 	c #CDF7FE",
"V 	c #CFF7FE",
"W 	c #CCF6FE",
"X 	c #B7F3FF",
"Y 	c #ADF0FF",
"Z 	c #A2EFFE",
"` 	c #96EDFF",
" .	c #88EAFF",
"..	c #7BE8FF",
"+.	c #6DE5FF",
"@.	c #5FE3FF",
"#.	c #52E1FE",
"$.	c #44DEFE",
"%.	c #38B0CA",
"&.	c #41626A",
"*.	c #F6F6F5",
"=.	c #E4E7E7",
"-.	c #DFF7FA",
";.	c #C4F4FE",
">.	c #C0F4FF",
",.	c #C2F4FF",
"'.	c #BBF3FE",
").	c #B5F2FE",
"!.	c #ADF1FE",
"~.	c #A3EFFD",
"{.	c #8DECFE",
"].	c #81EAFE",
"^.	c #75E7FD",
"/.	c #66E4FE",
"(.	c #59E2FF",
"_.	c #4CE0FF",
":.	c #40DDFF",
"<.	c #33D2F4",
"[.	c #286775",
"}.	c #A0AAAC",
"|.	c #D2E1E2",
"1.	c #AFF1FF",
"2.	c #B3F2FE",
"3.	c #B5F2FF",
"4.	c #B4F2FE",
"5.	c #91C3CC",
"6.	c #7CB1BB",
"7.	c #76ADB7",
"8.	c #6FA9B4",
"9.	c #68A5B1",
"0.	c #609FAC",
"a.	c #5899A7",
"b.	c #5094A2",
"c.	c #498F9D",
"d.	c #3A91A2",
"e.	c #53E1FD",
"f.	c #46DEFF",
"g.	c #3ADCFF",
"h.	c #2EDAFD",
"i.	c #23899F",
"j.	c #4A646A",
"k.	c #C1DEE2",
"l.	c #B1F1FE",
"m.	c #A0EEFF",
"n.	c #A4EFFF",
"o.	c #A6EFFF",
"p.	c #93D4DF",
"q.	c #4C8A95",
"r.	c #0E5665",
"s.	c #0B5363",
"t.	c #085160",
"u.	c #054E5D",
"v.	c #044C5B",
"w.	c #034B5A",
"x.	c #02495A",
"y.	c #034A5A",
"z.	c #0D424D",
"A.	c #5EE2F7",
"B.	c #3FDDFF",
"C.	c #33DBFF",
"D.	c #29D9FD",
"E.	c #1EAAC9",
"F.	c #153D46",
"G.	c #B8E7EE",
"H.	c #99EEFE",
"I.	c #92ECFF",
"J.	c #96ECFF",
"K.	c #97EDFE",
"L.	c #8AD9E7",
"M.	c #205663",
"N.	c #013644",
"O.	c #003643",
"P.	c #013643",
"Q.	c #013642",
"R.	c #033542",
"S.	c #053742",
"T.	c #0C3B46",
"U.	c #1B454E",
"V.	c #5B7C81",
"W.	c #52E2FC",
"X.	c #38DCFE",
"Y.	c #2DDAFF",
"Z.	c #23D9FF",
"`.	c #19BFE1",
" +	c #0F424B",
".+	c #B0EFFA",
"++	c #86EAFE",
"@+	c #84E9FF",
"#+	c #91EBFA",
"$+	c #A0DFEA",
"%+	c #9EDFEC",
"&+	c #9ADFEC",
"*+	c #94E1EF",
"=+	c #8DE2F1",
"-+	c #84E5F5",
";+	c #7AE7FA",
">+	c #6AE6FC",
",+	c #4AE1FE",
"'+	c #39DDFE",
")+	c #30DBFE",
"!+	c #26D9FF",
"~+	c #1DD7FE",
"{+	c #13C7EC",
"]+	c #0D404C",
"^+	c #9FEBF8",
"/+	c #78E7FE",
"(+	c #74E7FF",
"_+	c #77E7FF",
":+	c #79E7FF",
"<+	c #70E6FF",
"[+	c #6AE5FF",
"}+	c #64E4FF",
"|+	c #5DE2FF",
"1+	c #55E1FF",
"2+	c #44DEFF",
"3+	c #31DBFF",
"4+	c #28D9FF",
"5+	c #1FD7FF",
"6+	c #16D6FF",
"7+	c #0FC2E7",
"8+	c #083D47",
"9+	c #82D9E7",
"0+	c #6EE5FE",
"a+	c #66E4FF",
"b+	c #68E4FF",
"c+	c #69E5FE",
"d+	c #69E5FD",
"e+	c #5CC9DC",
"f+	c #388A97",
"g+	c #44A2B3",
"h+	c #5CE3FD",
"i+	c #55D8F1",
"j+	c #2C8594",
"k+	c #37AABF",
"l+	c #42DEFE",
"m+	c #39DCFB",
"n+	c #1F8DA1",
"o+	c #1B93A9",
"p+	c #20D8FE",
"q+	c #18D6FF",
"r+	c #10D5FD",
"s+	c #09AED0",
"t+	c #053540",
"u+	c #75C7D6",
"v+	c #66E5FE",
"w+	c #56E2FF",
"x+	c #59E2FE",
"y+	c #55D6EF",
"z+	c #3D9EAF",
"A+	c #094450",
"B+	c #0C4550",
"C+	c #105564",
"D+	c #50E1FC",
"E+	c #1F6E7D",
"F+	c #054755",
"G+	c #35C0DA",
"H+	c #36DCFF",
"I+	c #1F8FA4",
"J+	c #024350",
"K+	c #169CB4",
"L+	c #18D7FE",
"M+	c #11D5FF",
"N+	c #0BD4FE",
"O+	c #0588A2",
"P+	c #072E38",
"Q+	c #8DC8D1",
"R+	c #5BE2FE",
"S+	c #4ADFFF",
"T+	c #4BDFFD",
"U+	c #21707D",
"V+	c #064250",
"W+	c #268495",
"X+	c #0E4A57",
"Y+	c #135A68",
"Z+	c #39BBD2",
"`+	c #053F4C",
" @	c #0C4954",
".@	c #196F7E",
"+@	c #26BCD6",
"@@	c #074451",
"#@	c #043F4B",
"$@	c #0C6D7E",
"%@	c #0EA7C4",
"&@	c #0AD4FE",
"*@	c #06D0FA",
"=@	c #025465",
"-@	c #3F575D",
";@	c #CBD6D9",
">@	c #3FD4F0",
",@	c #40DEFE",
"'@	c #3DDDFE",
")@	c #3CD7F5",
"!@	c #3AD2EF",
"~@	c #3CDDFE",
"{@	c #37CFED",
"]@	c #34CFEC",
"^@	c #34DCFE",
"/@	c #2FD1F0",
"(@	c #29CAEA",
"_@	c #25CAEB",
":@	c #21D8FD",
"<@	c #1BD1F4",
"[@	c #14C7EA",
"}@	c #0EC5E9",
"|@	c #0AD2FA",
"1@	c #06D3FD",
"2@	c #02A1C4",
"3@	c #023540",
"4@	c #9FA4A5",
"5@	c #60AEBF",
"6@	c #31D3F5",
"7@	c #30DBFF",
"8@	c #30DAFF",
"9@	c #2EDAFF",
"0@	c #2BDAFF",
"a@	c #29DAFF",
"b@	c #25D9FF",
"c@	c #21D8FF",
"d@	c #1DD7FF",
"e@	c #13D5FF",
"f@	c #0ED4FF",
"g@	c #09D4FF",
"h@	c #05D3FE",
"i@	c #02C5ED",
"j@	c #014D5D",
"k@	c #28454C",
"l@	c #F6F7F6",
"m@	c #DBE0E1",
"n@	c #2C95AC",
"o@	c #24C6E8",
"p@	c #24D8FE",
"q@	c #24D8FF",
"r@	c #22D8FF",
"s@	c #1ED7FF",
"t@	c #1BD7FF",
"u@	c #0FD5FF",
"v@	c #07D4FF",
"w@	c #04D2FE",
"x@	c #02CBF5",
"y@	c #01657A",
"z@	c #07323B",
"A@	c #BDC0C0",
"B@	c #B3C1C3",
"C@	c #1C7386",
"D@	c #1AADCD",
"E@	c #19D2FA",
"F@	c #18D6FE",
"G@	c #14D5FF",
"H@	c #0ED4FE",
"I@	c #0BD4FF",
"J@	c #07D3FF",
"K@	c #04D3FE",
"L@	c #02D3FE",
"M@	c #02C2EC",
"N@	c #026377",
"O@	c #04323E",
"P@	c #8E9698",
"Q@	c #FEFFFE",
"R@	c #B1B9BA",
"S@	c #1B4C56",
"T@	c #10768C",
"U@	c #0FB6D9",
"V@	c #0ED2FB",
"W@	c #0DD4FE",
"X@	c #09D3FF",
"Y@	c #06D3FF",
"Z@	c #04D3FF",
"`@	c #02D3FF",
" #	c #01CCF7",
".#	c #0297B7",
"+#	c #024958",
"@#	c #909999",
"##	c #D7D9D9",
"$#	c #475F64",
"%#	c #073B46",
"&#	c #065B6E",
"*#	c #05829C",
"=#	c #039EBF",
"-#	c #03ACCE",
";#	c #01ABCC",
">#	c #0199B7",
",#	c #01768F",
"'#	c #024959",
")#	c #01343D",
"!#	c #304A50",
"~#	c #C3C5C5",
"{#	c #FCFDFD",
"]#	c #BEC0C1",
"^#	c #5C6F73",
"/#	c #173840",
"(#	c #012D37",
"_#	c #02323D",
":#	c #01333D",
"<#	c #0E323B",
"[#	c #4E6266",
"}#	c #ADAFB0",
"|#	c #FAFAF9",
"1#	c #FEFEFF",
". . . . . + @ # $ % & * = - ; > , ' . . . . ",
". . . ) ! ~ { ] ^ / ( _ : < [ } | 1 2 . . . ",
". . . 3 4 5 6 7 8 9 0 a b c d e f g h + . . ",
". . # i 6 j k l m n o p q r s t u v w x y . ",
"' z A B C D E m F G a H I J K L M N O P Q ' ",
"R S T U 9 V W ( G X Y Z `  ...+.@.#.$.%.&.*.",
"=.-.;.>.,.,.>.'.).!.~.c {.].^./.(._.:.<.[.}.",
"|.W 1.2.3.4.5.6.7.8.9.0.a.b.c.d.e.f.g.h.i.j.",
"k.l.m.n.o.p.q.r.s.t.u.v.w.x.y.z.A.B.C.D.E.F.",
"G.H.I.J.K.L.M.N.O.P.Q.R.S.T.U.V.W.X.Y.Z.`. +",
".+++@+s  . .#+$+%+&+*+=+-+;+>+,+'+)+!+~+{+]+",
"^+/+(+_+:+t t (+<+[+}+|+1+_.2+g.3+4+5+6+7+8+",
"9+0+a+b+c+d+e+f+g+h+i+j+k+l+m+n+o+p+q+r+s+t+",
"u+v+w+x+y+z+A+B+C+D+E+F+G+H+I+J+K+L+M+N+O+P+",
"Q+R+S+T+U+V+W+X+Y+Z+`+ @.@+@@@#@$@%@&@*@=@-@",
";@>@,@'@)@!@~@{@]@^@/@(@_@:@<@[@}@|@1@2@3@4@",
"+ 5@6@7@7@3+8@9@0@a@b@c@d@q+e@f@g@h@i@j@k@l@",
"' m@n@o@p@q@q@r@p+s@t@q+e@u@N+v@w@x@y@z@A@. ",
". ' B@C@D@E@L+F@6+G@M+H@I@J@K@L@M@N@O@P@' . ",
". Q@+ R@S@T@U@V@W@I@X@Y@Z@`@ #.#+#z@@#+ ' . ",
". . . ' ##$#%#&#*#=#-#;#>#,#'#)#!#~#' . . . ",
". . . . ' {#]#^#/#(#_#:#(#<#[#}#|#1#' . . . "};
