/* XPM */
static const char * enqueue_xpm[] = {
"22 22 349 2",
"  	c None",
". 	c #F5F5F5",
"+ 	c #E7E9E9",
"@ 	c #E5EAEA",
"# 	c #DDE9EA",
"$ 	c #DCF0F2",
"% 	c #D2F0F3",
"& 	c #BEE3E9",
"* 	c #B6DDE2",
"= 	c #BEDCDF",
"- 	c #FBFBFB",
"; 	c #E7E7E8",
"> 	c #EFF1F1",
", 	c #F5FDFF",
"' 	c #EAFBFE",
") 	c #DBF9FF",
"! 	c #CCF6FF",
"~ 	c #BFF4FE",
"{ 	c #B3F2FF",
"] 	c #AAF1FE",
"^ 	c #A1EFFE",
"/ 	c #8BE2F1",
"( 	c #96CED5",
"_ 	c #E7E9E8",
": 	c #F8FDFE",
"< 	c #F2FCFE",
"[ 	c #E7FBFF",
"} 	c #DCF9FE",
"| 	c #D1F7FF",
"1 	c #C4F5FE",
"2 	c #B7F2FE",
"3 	c #A9EFFF",
"4 	c #99EDFF",
"5 	c #8BEBFF",
"6 	c #81E9FE",
"7 	c #73E7FE",
"8 	c #64C2D6",
"9 	c #E8EBEB",
"0 	c #F3FCFE",
"a 	c #EAFBFF",
"b 	c #E5FBFF",
"c 	c #DFF9FF",
"d 	c #D6F7FE",
"e 	c #CAF4FC",
"f 	c #A3CFD7",
"g 	c #97CDD7",
"h 	c #A3EDFD",
"i 	c #96ECFF",
"j 	c #86EAFF",
"k 	c #78E7FF",
"l 	c #6AE5FF",
"m 	c #5BDDF9",
"n 	c #4FA6B9",
"o 	c #FDFDFC",
"p 	c #E1E6E6",
"q 	c #EDFCFE",
"r 	c #DEF9FE",
"s 	c #DDF9FF",
"t 	c #DBF9FE",
"u 	c #D5F8FF",
"v 	c #CEF6FE",
"w 	c #96BEC4",
"x 	c #4B8D98",
"y 	c #1E5F6D",
"z 	c #81C2CB",
"A 	c #91ECFE",
"B 	c #82E9FE",
"C 	c #73E6FF",
"D 	c #64E4FF",
"E 	c #55E1FD",
"F 	c #47C9E4",
"G 	c #49808B",
"H 	c #E3E6E7",
"I 	c #E8F9FB",
"J 	c #D2F8FE",
"K 	c #D2F7FE",
"L 	c #CFF7FF",
"M 	c #CAF6FF",
"N 	c #C3F5FE",
"O 	c #659AA4",
"P 	c #064F5F",
"Q 	c #054E5F",
"R 	c #71979D",
"S 	c #89EAFD",
"T 	c #7BE8FE",
"U 	c #6DE6FF",
"V 	c #5FE3FF",
"W 	c #51E0FE",
"X 	c #43DCFD",
"Y 	c #3797AC",
"Z 	c #75878C",
"` 	c #FBFBFC",
" .	c #D6E5E6",
"..	c #D1F7FE",
"+.	c #C2F4FF",
"@.	c #C4F5FF",
"#.	c #C5F5FF",
"$.	c #BEF4FE",
"%.	c #B8F3FD",
"&.	c #59919C",
"*.	c #044F5F",
"=.	c #6F959A",
"-.	c #74E6FF",
";.	c #67E4FF",
">.	c #59E2FF",
",.	c #4CDFFF",
"'.	c #3FDDFF",
").	c #32C3E1",
"!.	c #28555D",
"~.	c #E2E6E6",
"{.	c #D8F6FB",
"].	c #B4F2FE",
"^.	c #B4F2FF",
"/.	c #B5F3FF",
"(.	c #B6F2FF",
"_.	c #B5F2FF",
":.	c #B0F1FF",
"<.	c #ABF1FE",
"[.	c #55919C",
"}.	c #054F5F",
"|.	c #6A949A",
"1.	c #78E7FE",
"2.	c #6CE5FE",
"3.	c #5FE2FF",
"4.	c #53E0FE",
"5.	c #46DEFE",
"6.	c #39DCFF",
"7.	c #2DD7FB",
"8.	c #216D7E",
"9.	c #869497",
"0.	c #D1E1E3",
"a.	c #A2EEFE",
"b.	c #A5EFFE",
"c.	c #A7EEFC",
"d.	c #8DCAD3",
"e.	c #83BBC5",
"f.	c #80BAC6",
"g.	c #7CBAC6",
"h.	c #538D99",
"i.	c #034F5F",
"j.	c #044F5E",
"k.	c #4A7B83",
"l.	c #59B3C5",
"m.	c #50B2C6",
"n.	c #49B1C5",
"o.	c #3FBDD5",
"p.	c #3EDDFD",
"q.	c #33DBFF",
"r.	c #28D9FF",
"s.	c #1D8BA2",
"t.	c #425E64",
"u.	c #BFDCDF",
"v.	c #ACF0FE",
"w.	c #93ECFF",
"x.	c #96EDFE",
"y.	c #7CBEC9",
"z.	c #4C8F9B",
"A.	c #267282",
"B.	c #257181",
"C.	c #1E6979",
"D.	c #044F60",
"E.	c #135E6D",
"F.	c #257081",
"G.	c #125865",
"H.	c #34C1DA",
"I.	c #2CDAFE",
"J.	c #21D8FF",
"K.	c #18A0BC",
"L.	c #153A42",
"M.	c #AED8DE",
"N.	c #98EDFE",
"O.	c #84E9FF",
"P.	c #87EAFE",
"Q.	c #59A0AC",
"R.	c #075162",
"S.	c #034F60",
"T.	c #045060",
"U.	c #024F5F",
"V.	c #034B5B",
"W.	c #41A4B1",
"X.	c #25D9FE",
"Y.	c #1CD7FF",
"Z.	c #13A9C9",
"`.	c #0B333D",
" +	c #A1D3DC",
".+	c #88EAFE",
"++	c #75E7FF",
"@+	c #60BDCF",
"#+	c #235E67",
"$+	c #144650",
"%+	c #15464F",
"&+	c #14464F",
"*+	c #0B4A57",
"=+	c #0D4450",
"-+	c #11454F",
";+	c #104650",
">+	c #10454F",
",+	c #2F5961",
"'+	c #4DD5EA",
")+	c #1ED8FE",
"!+	c #16D6FF",
"~+	c #0EA5C3",
"{+	c #06313A",
"]+	c #9AD0D9",
"^+	c #7DE8FD",
"/+	c #66E4FF",
"(+	c #69E5FE",
"_+	c #6BE5FE",
":+	c #76E8FC",
"<+	c #84E6F7",
"[+	c #82E6F7",
"}+	c #7FE5F7",
"|+	c #448C9B",
"1+	c #569098",
"2+	c #5FE1F7",
"3+	c #56E0F8",
"4+	c #4EDFF8",
"5+	c #3BDFFC",
"6+	c #20D7FE",
"7+	c #18D6FF",
"8+	c #10D5FE",
"9+	c #0992AE",
"0+	c #092F38",
"a+	c #A2D0D8",
"b+	c #72E6FD",
"c+	c #58E1FF",
"d+	c #5AE2FF",
"e+	c #5BE2FF",
"f+	c #5BE3FF",
"g+	c #58E2FE",
"h+	c #55E2FE",
"i+	c #3E8B9C",
"j+	c #024E5E",
"k+	c #024F5E",
"l+	c #43929B",
"m+	c #37DBFE",
"n+	c #2FDBFE",
"o+	c #27D9FE",
"p+	c #1FD7FE",
"q+	c #11D5FF",
"r+	c #0AD4FD",
"s+	c #046D84",
"t+	c #2D4A51",
"u+	c #5EE2FA",
"v+	c #4DE0FF",
"w+	c #4CDFFE",
"x+	c #4CE0FF",
"y+	c #4ADFFF",
"z+	c #47DFFE",
"A+	c #398A9C",
"B+	c #3D929B",
"C+	c #2DD9FE",
"D+	c #25D9FF",
"E+	c #1FD7FF",
"F+	c #0BD4FF",
"G+	c #05C9F0",
"H+	c #024351",
"I+	c #4CBFD4",
"J+	c #44DEFE",
"K+	c #3DDDFE",
"L+	c #3EDDFF",
"M+	c #3CDDFF",
"N+	c #39DDFD",
"O+	c #2F8597",
"P+	c #3E959E",
"Q+	c #21D8FD",
"R+	c #10D5FF",
"S+	c #0AD4FE",
"T+	c #06D3FE",
"U+	c #028CAA",
"V+	c #03313B",
"W+	c #9AC1C8",
"X+	c #30CDEE",
"Y+	c #31DBFE",
"Z+	c #31DBFF",
"`+	c #30DBFF",
" @	c #1FA6C0",
".@	c #12555F",
"+@	c #28555E",
"@@	c #47CDE2",
"#@	c #18D6FE",
"$@	c #13D5FF",
"%@	c #0ED4FE",
"&@	c #09D3FF",
"*@	c #04D3FE",
"=@	c #02BCE3",
"-@	c #4D6266",
";@	c #4B97A8",
">@	c #25BDDE",
",@	c #25D7FD",
"'@	c #25D8FF",
")@	c #23D8FF",
"!@	c #1FD8FF",
"~@	c #2ADEFD",
"{@	c #2CDDFD",
"]@	c #13D6FE",
"^@	c #0FD5FF",
"/@	c #07D3FE",
"(@	c #03D3FE",
"_@	c #02C7F0",
":@	c #02596C",
"<@	c #12383F",
"[@	c #2C7584",
"}@	c #19A2BF",
"|@	c #19D0F6",
"1@	c #19D7FE",
"2@	c #18D7FF",
"3@	c #14D6FF",
"4@	c #0ED5FE",
"5@	c #0BD4FE",
"6@	c #07D3FF",
"7@	c #02D2FE",
"8@	c #02BFE8",
"9@	c #025C70",
"0@	c #07333D",
"a@	c #2E555D",
"b@	c #0F6D80",
"c@	c #0FAECF",
"d@	c #0ED0F9",
"e@	c #0DD4FE",
"f@	c #0CD4FF",
"g@	c #09D4FF",
"h@	c #06D3FF",
"i@	c #04D3FF",
"j@	c #02D3FF",
"k@	c #02CCF7",
"l@	c #0295B5",
"m@	c #024755",
"n@	c #0C343C",
"o@	c #617276",
"p@	c #093A44",
"q@	c #065768",
"r@	c #05809A",
"s@	c #039EBF",
"t@	c #03AED0",
"u@	c #02ADD0",
"v@	c #019BBC",
"w@	c #017890",
"x@	c #024A59",
"y@	c #02333E",
"z@	c #385055",
"A@	c #697A7E",
"B@	c #1D3D44",
"C@	c #012C36",
"D@	c #02323D",
"E@	c #01333D",
"F@	c #012E37",
"G@	c #0F333A",
"H@	c #506468",
"            . + @ # $ % & * =               ",
"        - ; > , ' ) ! ~ { ] ^ / (           ",
"      . _ : < [ } | 1 2 3 4 5 6 7 8         ",
"    . 9 0 a b c d e f g h i j k l m n       ",
"  o p q r s t u v w x y z A B C D E F G     ",
"  H I J | K L M N O P Q R S T U V W X Y Z   ",
"`  ...+.@.#.+.$.%.&.*.P =.B -.;.>.,.'.).!.  ",
"~.{.].^./.(._.:.<.[.*.}.|.1.2.3.4.5.6.7.8.9.",
"0.N a.b.c.d.e.f.g.h.i.j.k.l.m.n.o.p.q.r.s.t.",
"u.v.w.x.y.z.A.B.B.C.i.D.E.B.B.F.G.H.I.J.K.L.",
"M.N.O.P.Q.R.D.S.*.i.T.i.i.i.U.U.V.W.X.Y.Z.`.",
" +.+++1.@+#+$+%+&+*+i.i.=+-+;+>+,+'+)+!+~+{+",
"]+^+/+(+_+:+<+[+}+|+i.i.1+2+3+4+5+6+7+8+9+0+",
"a+b+c+d+e+f+d+g+h+i+j+k+l+m+n+o+p+7+q+r+s+t+",
"  u+v+w+x+v+,.y+z+A+j+U.B+C+D+E+7+q+F+G+H+  ",
"  I+J+K+L+'.L+M+N+O+U.j+P+Q+Y.!+R+S+T+U+V+  ",
"  W+X+Y+Z+Z+`+n+I. @.@+@@@#@$@%@&@*@=@H+-@  ",
"    ;@>@,@D+'@)@J.!@~@{@]@^@F+/@(@_@:@<@    ",
"      [@}@|@1@2@!+3@q+4@5@6@*@7@8@9@0@      ",
"        a@b@c@d@e@f@g@h@i@j@k@l@m@n@        ",
"          o@p@q@r@s@t@u@v@w@x@y@z@          ",
"              A@B@C@D@E@F@G@H@              "};
