/* XPM */
static const char *enqueue_xpm[]={
"16 16 3 1",
". c None",
"# c #0000ff",
"a c #808080",
"................",
".......#........",
"......###.......",
"......###a......",
"......###a......",
"......###a......",
"......###a......",
".##############.",
"################",
"a##############a",
".aaaaa###aaaaaa.",
"......###a......",
"......###a......",
"......###a......",
"......###a......",
".......#a......."};
