/* XPM */
static const char * enqueueasnext_xpm[] = {
"22 22 287 2",
"  	c None",
". 	c #FFFFFF",
"+ 	c #034F5F",
"@ 	c #9DEEFD",
"# 	c #DDE8EA",
"$ 	c #D5E8EA",
"% 	c #CBE5E9",
"& 	c #BFE0E5",
"* 	c #BEDEE2",
"= 	c #CADFE0",
"- 	c #F2F3F2",
"; 	c #FDFEFD",
"> 	c #FEFEFE",
", 	c #FCFCFC",
"' 	c #2DA9C1",
") 	c #CDF6FE",
"! 	c #C1F3FE",
"~ 	c #B6F2FF",
"{ 	c #ACF0FE",
"] 	c #A3EEFE",
"^ 	c #88D8E6",
"/ 	c #ACD0D7",
"( 	c #F9F9F8",
"_ 	c #FEFEFF",
": 	c #F5F5F6",
"< 	c #E7E9E9",
"[ 	c #C3F4FF",
"} 	c #B6F2FE",
"| 	c #8ED4E1",
"1 	c #1E6C7C",
"2 	c #80E1F2",
"3 	c #81E9FE",
"4 	c #6EE6FC",
"5 	c #72BBCA",
"6 	c #E7EAEA",
"7 	c #FFFFFE",
"8 	c #81D5E2",
"9 	c #75E6FE",
"0 	c #69E4FE",
"a 	c #58D9F4",
"b 	c #59A0AD",
"c 	c #E8EAEB",
"d 	c #8FEBFC",
"e 	c #71E6FE",
"f 	c #62E3FF",
"g 	c #54E1FE",
"h 	c #45BED7",
"i 	c #5D848E",
"j 	c #F9FAF9",
"k 	c #E1E5E6",
"l 	c #89EBFE",
"m 	c #6BE5FE",
"n 	c #5DE2FF",
"o 	c #4FE0FE",
"p 	c #42D8F8",
"q 	c #348395",
"r 	c #9BA6A7",
"s 	c #FAFAFA",
"t 	c #D8E6E8",
"u 	c #CFF7FE",
"v 	c #82EAFE",
"w 	c #65E4FE",
"x 	c #57E1FF",
"y 	c #49DFFF",
"z 	c #3DDCFE",
"A 	c #30B1CB",
"B 	c #33555D",
"C 	c #F5F6F5",
"D 	c #DFE3E4",
"E 	c #D8F8FD",
"F 	c #B3F1FF",
"G 	c #B4F2FF",
"H 	c #90EDFE",
"I 	c #77E5FA",
"J 	c #5DE3FE",
"K 	c #50E0FF",
"L 	c #43DEFF",
"M 	c #37DCFF",
"N 	c #2BD1F4",
"O 	c #205A66",
"P 	c #ADB4B5",
"Q 	c #D0E1E3",
"R 	c #C2F4FE",
"S 	c #A2EEFE",
"T 	c #A5EFFE",
"U 	c #A8F0FF",
"V 	c #77D8EA",
"W 	c #79D4E4",
"X 	c #6BCBD9",
"Y 	c #55E1FE",
"Z 	c #3CDDFF",
"` 	c #31DBFF",
" .	c #25D8FE",
"..	c #1B7384",
"+.	c #6A7D82",
"@.	c #BCDBDF",
"#.	c #A8F0FE",
"$.	c #93ECFF",
"%.	c #96EDFF",
"&.	c #98EDFF",
"*.	c #2B8799",
"=.	c #42B3C8",
"-.	c #4CE0FC",
";.	c #40DEFE",
">.	c #35DBFF",
",.	c #2AD9FF",
"'.	c #20D8FE",
").	c #16889F",
"!.	c #39585F",
"~.	c #ABD8DD",
"{.	c #94ECFE",
"].	c #83E9FF",
"^.	c #87EAFF",
"/.	c #89EAFF",
"(.	c #87EAFE",
"_.	c #46ACC0",
":.	c #2C9CB1",
"<.	c #38DCFF",
"[.	c #2DDAFF",
"}.	c #24D8FF",
"|.	c #1AD6FE",
"1.	c #1290AA",
"2.	c #22434A",
"3.	c #9CD3DB",
"4.	c #85EAFE",
"5.	c #75E6FF",
"6.	c #78E7FE",
"7.	c #79E7FF",
"8.	c #78E6FC",
"9.	c #2FDAFF",
"0.	c #26D9FF",
"a.	c #1DD7FF",
"b.	c #14D6FD",
"c.	c #0B8BA4",
"d.	c #1F4047",
"e.	c #95CFD8",
"f.	c #7AE8FE",
"g.	c #65E4FF",
"h.	c #68E5FE",
"i.	c #6AE5FF",
"j.	c #64DDF5",
"k.	c #3BD2EF",
"l.	c #27D9FF",
"m.	c #1ED7FF",
"n.	c #16D6FF",
"o.	c #0ED4FE",
"p.	c #07758C",
"q.	c #314F54",
"r.	c #9DCFD6",
"s.	c #70E6FE",
"t.	c #57E1FE",
"u.	c #58E2FF",
"v.	c #5AE2FF",
"w.	c #5BE2FF",
"x.	c #58E0FB",
"y.	c #176B7D",
"z.	c #40BBD2",
"A.	c #34AABF",
"B.	c #20889D",
"C.	c #1D8DA4",
"D.	c #36DDFD",
"E.	c #0FD5FF",
"F.	c #09D2FC",
"G.	c #035161",
"H.	c #5F7276",
"I.	c #BFD1D4",
"J.	c #5DE2FB",
"K.	c #4CE0FE",
"L.	c #49DFFE",
"M.	c #4BE0FF",
"N.	c #44D2ED",
"O.	c #2DB4CE",
"P.	c #2ABAD7",
"Q.	c #31DBFE",
"R.	c #2BDAFE",
"S.	c #1CD8FD",
"T.	c #16D5FF",
"U.	c #0FD5FE",
"V.	c #09D4FE",
"W.	c #04B3D9",
"X.	c #023540",
"Y.	c #A6AAAA",
"Z.	c #F7F7F7",
"`.	c #4ABDD2",
" +	c #41DEFE",
".+	c #3DDCFF",
"++	c #3DDDFF",
"@+	c #3BDCFC",
"#+	c #33CFEC",
"$+	c #34DAFB",
"%+	c #30DBFD",
"&+	c #2BDAFF",
"*+	c #1BC5E4",
"=+	c #14D6FE",
"-+	c #09D3FF",
";+	c #04D2FB",
">+	c #02697E",
",+	c #163841",
"'+	c #F2F3F3",
")+	c #A0C1C9",
"!+	c #2EC9EA",
"~+	c #30D9FD",
"{+	c #30DBFF",
"]+	c #2FDBFE",
"^+	c #26C0DE",
"/+	c #28D9FD",
"(+	c #25D9FF",
"_+	c #20D8FF",
":+	c #1BD7FE",
"<+	c #10CEF3",
"[+	c #0DD4FE",
"}+	c #08D3FF",
"|+	c #03D3FD",
"1+	c #01A1C2",
"2+	c #023742",
"3+	c #8A9294",
"4+	c #FAFBFB",
"5+	c #5194A1",
"6+	c #22B7D6",
"7+	c #23D5FC",
"8+	c #23D8FE",
"9+	c #21D8FE",
"0+	c #16AECD",
"a+	c #19D7FE",
"b+	c #16D6FE",
"c+	c #12D5FE",
"d+	c #09D6FE",
"e+	c #06D2FF",
"f+	c #02D2FE",
"g+	c #02B2D8",
"h+	c #01424F",
"i+	c #374F55",
"j+	c #F8F8F8",
"k+	c #E6E8E8",
"l+	c #35727F",
"m+	c #1895B0",
"n+	c #17CCF1",
"o+	c #18D6FE",
"p+	c #13C4E8",
"q+	c #10D1F6",
"r+	c #0CD5FB",
"s+	c #09CBF0",
"t+	c #04D4FE",
"u+	c #01D2FC",
"v+	c #02A3C6",
"w+	c #014351",
"x+	c #1F3E46",
"y+	c #E0E0E0",
"z+	c #FEFFFF",
"A+	c #FFFEFE",
"B+	c #E4E5E4",
"C+	c #3E5C64",
"D+	c #0E5C6D",
"E+	c #0D9BB9",
"F+	c #0DC9F2",
"G+	c #0BD2FA",
"H+	c #06A6C5",
"I+	c #048EAB",
"J+	c #028DA9",
"K+	c #0291AE",
"L+	c #02B5D8",
"M+	c #02B8DE",
"N+	c #026F86",
"O+	c #013843",
"P+	c #314A50",
"Q+	c #DDDDDD",
"R+	c #859091",
"S+	c #133941",
"T+	c #054552",
"U+	c #04667B",
"V+	c #03829D",
"W+	c #028FAC",
"X+	c #017991",
"Y+	c #025668",
"Z+	c #023843",
"`+	c #0D323A",
" @	c #7B8587",
".@	c #F4F5F5",
"+@	c #EDEDED",
"@@	c #959C9E",
"#@	c #4A6066",
"$@	c #1B3A43",
"%@	c #072D36",
"&@	c #18383F",
"*@	c #465D61",
"=@	c #8F9799",
"-@	c #E9E9E9",
". . . . . + + + @ # $ % & * = - ; > . . . . ",
". . . . , + + + ' ) ) ! ~ { ] ^ / ( _ . . . ",
". . . : < + + + ' ) [ } | 1 2 3 4 5 6 7 . . ",
". . + + + + + + + + + @ 1 8 1 9 0 a b c > . ",
". + + + + + + + + + + + 1 d 1 e f g h i j . ",
"> k + + + + + + + + + ' 1 l 1 m n o p q r > ",
"s t u ' ' + + + ' ' ' ' 1 v 1 w x y z A B C ",
"D E F G } + + + ' @ @ H 1 I 1 J K L M N O P ",
"Q R S T U + + + ' V W X 1 I 1 Y y Z `  ...+.",
"@.#.$.%.&.&.+ ' 1 1 1 1 *.=.1 -.;.>.,.'.).!.",
"~.{.].^././.(.' 1 =.1 _.1 =.:.1 <.[.}.|.1.2.",
"3.4.5.6.7.7.8.1 1 =.1 =.1 =.' 1 9.0.a.b.c.d.",
"e.f.g.h.i.i.j.1 ' =.1 =.' k.' 1 l.m.n.o.p.q.",
"r.s.t.u.v.w.x.y.z.A.' B.C.D.' 1 m.n.E.F.G.H.",
"I.J.K.L.M.M.N.1 ' ' O.P.Q.R.1 S.T.U.V.W.X.Y.",
"Z.`. +.+++++@+1 #+$+%+&+0.*+1 =+o.-+;+>+,+'+",
"> )+!+~+{+{+]+^+1 /+(+_+:+1 <+[+}+|+1+2+3+. ",
"> 4+5+6+7+}.8+9+0+1 a+b+c+1 d+e+f+g+h+i+j+. ",
". > k+l+m+n+o+n.p+1 q+r+s+1 t+u+v+w+x+y+> . ",
". z+A+B+C+D+E+F+G+H+I+J+K+L+M+N+O+P+Q+A+. . ",
". . . > Z.R+S+T+U+V+W+J+X+Y+Z+`+ @.@> . . . ",
". . . . . . +@@@#@$@%@%@&@*@=@-@. . . . . . "};
