/* XPM */
static const char * enqueueasnext_xpm[] = {
"22 22 249 2",
"  	c None",
". 	c #7CBEC9",
"+ 	c #CDF6FE",
"@ 	c #DDE8EA",
"# 	c #D5E8EA",
"$ 	c #CBE5E9",
"% 	c #BFE0E5",
"& 	c #BEDEE2",
"* 	c #CADFE0",
"= 	c #034F5F",
"- 	c #4A7B83",
"; 	c #9DEEFD",
"> 	c #C1F3FE",
", 	c #B6F2FF",
"' 	c #ACF0FE",
") 	c #A3EEFE",
"! 	c #88D8E6",
"~ 	c #ACD0D7",
"{ 	c #4C8F9B",
"] 	c #1E6979",
"^ 	c #2DA9C1",
"/ 	c #C3F4FF",
"( 	c #B6F2FE",
"_ 	c #8ED4E1",
": 	c #1E6C7C",
"< 	c #80E1F2",
"[ 	c #81E9FE",
"} 	c #6EE6FC",
"| 	c #72BBCA",
"1 	c #81D5E2",
"2 	c #75E6FE",
"3 	c #69E4FE",
"4 	c #58D9F4",
"5 	c #59A0AD",
"6 	c #8FEBFC",
"7 	c #71E6FE",
"8 	c #62E3FF",
"9 	c #54E1FE",
"0 	c #45BED7",
"a 	c #5D848E",
"b 	c #89EBFE",
"c 	c #6BE5FE",
"d 	c #5DE2FF",
"e 	c #4FE0FE",
"f 	c #42D8F8",
"g 	c #348395",
"h 	c #9BA6A7",
"i 	c #045060",
"j 	c #82EAFE",
"k 	c #65E4FE",
"l 	c #57E1FF",
"m 	c #49DFFF",
"n 	c #3DDCFE",
"o 	c #30B1CB",
"p 	c #33555D",
"q 	c #90EDFE",
"r 	c #77E5FA",
"s 	c #5DE3FE",
"t 	c #50E0FF",
"u 	c #43DEFF",
"v 	c #37DCFF",
"w 	c #2BD1F4",
"x 	c #205A66",
"y 	c #B3F1FF",
"z 	c #B4F2FF",
"A 	c #79D4E4",
"B 	c #6BCBD9",
"C 	c #55E1FE",
"D 	c #3CDDFF",
"E 	c #31DBFF",
"F 	c #25D8FE",
"G 	c #1B7384",
"H 	c #6A7D82",
"I 	c #C2F4FE",
"J 	c #A2EEFE",
"K 	c #A5EFFE",
"L 	c #A8F0FF",
"M 	c #77D8EA",
"N 	c #2B8799",
"O 	c #42B3C8",
"P 	c #4CE0FC",
"Q 	c #40DEFE",
"R 	c #35DBFF",
"S 	c #2AD9FF",
"T 	c #20D8FE",
"U 	c #16889F",
"V 	c #39585F",
"W 	c #ABD8DD",
"X 	c #94ECFE",
"Y 	c #83E9FF",
"Z 	c #87EAFF",
"` 	c #89EAFF",
" .	c #1FA6C0",
"..	c #46ACC0",
"+.	c #2C9CB1",
"@.	c #38DCFF",
"#.	c #2DDAFF",
"$.	c #24D8FF",
"%.	c #1AD6FE",
"&.	c #1290AA",
"*.	c #22434A",
"=.	c #9CD3DB",
"-.	c #85EAFE",
";.	c #75E6FF",
">.	c #78E7FE",
",.	c #79E7FF",
"'.	c #78E6FC",
").	c #2FDAFF",
"!.	c #26D9FF",
"~.	c #1DD7FF",
"{.	c #14D6FD",
"].	c #0B8BA4",
"^.	c #1F4047",
"/.	c #95CFD8",
"(.	c #7AE8FE",
"_.	c #65E4FF",
":.	c #68E5FE",
"<.	c #6AE5FF",
"[.	c #64DDF5",
"}.	c #3BD2EF",
"|.	c #27D9FF",
"1.	c #1ED7FF",
"2.	c #16D6FF",
"3.	c #0ED4FE",
"4.	c #07758C",
"5.	c #314F54",
"6.	c #9DCFD6",
"7.	c #70E6FE",
"8.	c #57E1FE",
"9.	c #58E2FF",
"0.	c #5AE2FF",
"a.	c #5BE2FF",
"b.	c #58E0FB",
"c.	c #176B7D",
"d.	c #40BBD2",
"e.	c #34AABF",
"f.	c #20889D",
"g.	c #1D8DA4",
"h.	c #36DDFD",
"i.	c #0FD5FF",
"j.	c #09D2FC",
"k.	c #035161",
"l.	c #5F7276",
"m.	c #5DE2FB",
"n.	c #4CE0FE",
"o.	c #49DFFE",
"p.	c #4BE0FF",
"q.	c #44D2ED",
"r.	c #2DB4CE",
"s.	c #2ABAD7",
"t.	c #31DBFE",
"u.	c #2BDAFE",
"v.	c #1CD8FD",
"w.	c #16D5FF",
"x.	c #0FD5FE",
"y.	c #09D4FE",
"z.	c #04B3D9",
"A.	c #023540",
"B.	c #4ABDD2",
"C.	c #41DEFE",
"D.	c #3DDCFF",
"E.	c #3DDDFF",
"F.	c #3BDCFC",
"G.	c #33CFEC",
"H.	c #34DAFB",
"I.	c #30DBFD",
"J.	c #2BDAFF",
"K.	c #1BC5E4",
"L.	c #14D6FE",
"M.	c #09D3FF",
"N.	c #04D2FB",
"O.	c #02697E",
"P.	c #163841",
"Q.	c #A0C1C9",
"R.	c #2EC9EA",
"S.	c #30D9FD",
"T.	c #30DBFF",
"U.	c #2FDBFE",
"V.	c #26C0DE",
"W.	c #28D9FD",
"X.	c #25D9FF",
"Y.	c #20D8FF",
"Z.	c #1BD7FE",
"`.	c #10CEF3",
" +	c #0DD4FE",
".+	c #08D3FF",
"++	c #03D3FD",
"@+	c #01A1C2",
"#+	c #023742",
"$+	c #8A9294",
"%+	c #5194A1",
"&+	c #22B7D6",
"*+	c #23D5FC",
"=+	c #23D8FE",
"-+	c #21D8FE",
";+	c #16AECD",
">+	c #19D7FE",
",+	c #16D6FE",
"'+	c #12D5FE",
")+	c #09D6FE",
"!+	c #06D2FF",
"~+	c #02D2FE",
"{+	c #02B2D8",
"]+	c #01424F",
"^+	c #374F55",
"/+	c #35727F",
"(+	c #1895B0",
"_+	c #17CCF1",
":+	c #18D6FE",
"<+	c #13C4E8",
"[+	c #10D1F6",
"}+	c #0CD5FB",
"|+	c #09CBF0",
"1+	c #04D4FE",
"2+	c #01D2FC",
"3+	c #02A3C6",
"4+	c #014351",
"5+	c #1F3E46",
"6+	c #3E5C64",
"7+	c #0E5C6D",
"8+	c #0D9BB9",
"9+	c #0DC9F2",
"0+	c #0BD2FA",
"a+	c #06A6C5",
"b+	c #048EAB",
"c+	c #028DA9",
"d+	c #0291AE",
"e+	c #02B5D8",
"f+	c #02B8DE",
"g+	c #026F86",
"h+	c #013843",
"i+	c #314A50",
"j+	c #859091",
"k+	c #133941",
"l+	c #054552",
"m+	c #04667B",
"n+	c #03829D",
"o+	c #028FAC",
"p+	c #017991",
"q+	c #025668",
"r+	c #023843",
"s+	c #0D323A",
"t+	c #7B8587",
"u+	c #959C9E",
"v+	c #4A6066",
"w+	c #1B3A43",
"x+	c #072D36",
"y+	c #18383F",
"z+	c #465D61",
"          .     + @ # $ % & *               ",
"        . = - ; @ # + > , ' ) ! ~           ",
"        { = ] ^ + + / ( _ : < [ } |         ",
"        { = ] ^ + / + ; : 1 : 2 3 4 5       ",
"  . { { = = = ] ] - ; ; : 6 : 7 8 9 0 a     ",
". = = = = = = = = = - ; : b : c d e f g h   ",
"  - ] ] = = i ] ] - ; ; : j : k l m n o p   ",
"    ^ ^ ] = ] ^ ^ ; ; q : r : s t u v w x   ",
"  y z ( ] = ] ; ; ; A B : r : C m D E F G H ",
"I J K L - = - ; M A : : N O : P Q R S T U V ",
"W X Y Z `  . .; : O : ..: O +.: @.#.$.%.&.*.",
"=.-.;.>.,.,.'.: : O : O : O ^ : ).!.~.{.].^.",
"/.(._.:.<.<.[.: ^ O : O ^ }.^ : |.1.2.3.4.5.",
"6.7.8.9.0.a.b.c.d.e.^ f.g.h.^ : 1.2.i.j.k.l.",
"  m.n.o.p.p.q.: ^ ^ r.s.t.u.: v.w.x.y.z.A.  ",
"  B.C.D.E.E.F.: G.H.I.J.!.K.: L.3.M.N.O.P.  ",
"  Q.R.S.T.T.U.V.: W.X.Y.Z.: `. +.+++@+#+$+  ",
"    %+&+*+$.=+-+;+: >+,+'+: )+!+~+{+]+^+    ",
"      /+(+_+:+2.<+: [+}+|+: 1+2+3+4+5+      ",
"        6+7+8+9+0+a+b+c+d+e+f+g+h+i+        ",
"          j+k+l+m+n+o+c+p+q+r+s+t+          ",
"              u+v+w+x+x+y+z+                "};
