/* XPM */
static const char * enqueue_xpm[] = {
"22 22 376 2",
"  	c None",
". 	c #FFFFFF",
"+ 	c #FEFEFE",
"@ 	c #F5F5F5",
"# 	c #E7E9E9",
"$ 	c #E5EAEA",
"% 	c #DDE9EA",
"& 	c #DCF0F2",
"* 	c #D2F0F3",
"= 	c #BEE3E9",
"- 	c #B6DDE2",
"; 	c #BEDCDF",
"> 	c #E1E7E9",
", 	c #FDFDFD",
"' 	c #FEFFFE",
") 	c #FBFBFB",
"! 	c #E7E7E8",
"~ 	c #EFF1F1",
"{ 	c #F5FDFF",
"] 	c #EAFBFE",
"^ 	c #DBF9FF",
"/ 	c #CCF6FF",
"( 	c #BFF4FE",
"_ 	c #B3F2FF",
": 	c #AAF1FE",
"< 	c #A1EFFE",
"[ 	c #8BE2F1",
"} 	c #96CED5",
"| 	c #EAEEEE",
"1 	c #E7E9E8",
"2 	c #F8FDFE",
"3 	c #F2FCFE",
"4 	c #E7FBFF",
"5 	c #DCF9FE",
"6 	c #D1F7FF",
"7 	c #C4F5FE",
"8 	c #B7F2FE",
"9 	c #A9EFFF",
"0 	c #99EDFF",
"a 	c #8BEBFF",
"b 	c #81E9FE",
"c 	c #73E7FE",
"d 	c #64C2D6",
"e 	c #D0DADC",
"f 	c #E8EBEB",
"g 	c #F3FCFE",
"h 	c #EAFBFF",
"i 	c #E5FBFF",
"j 	c #DFF9FF",
"k 	c #D6F7FE",
"l 	c #CAF4FC",
"m 	c #A3CFD7",
"n 	c #97CDD7",
"o 	c #A3EDFD",
"p 	c #96ECFF",
"q 	c #86EAFF",
"r 	c #78E7FF",
"s 	c #6AE5FF",
"t 	c #5BDDF9",
"u 	c #4FA6B9",
"v 	c #CDD5D7",
"w 	c #FDFDFC",
"x 	c #E1E6E6",
"y 	c #EDFCFE",
"z 	c #DEF9FE",
"A 	c #DDF9FF",
"B 	c #DBF9FE",
"C 	c #D5F8FF",
"D 	c #CEF6FE",
"E 	c #96BEC4",
"F 	c #4B8D98",
"G 	c #1E5F6D",
"H 	c #81C2CB",
"I 	c #91ECFE",
"J 	c #82E9FE",
"K 	c #73E6FF",
"L 	c #64E4FF",
"M 	c #55E1FD",
"N 	c #47C9E4",
"O 	c #49808B",
"P 	c #EAEBEB",
"Q 	c #FEFEFF",
"R 	c #E3E6E7",
"S 	c #E8F9FB",
"T 	c #D2F8FE",
"U 	c #D2F7FE",
"V 	c #CFF7FF",
"W 	c #CAF6FF",
"X 	c #C3F5FE",
"Y 	c #659AA4",
"Z 	c #064F5F",
"` 	c #054E5F",
" .	c #71979D",
"..	c #89EAFD",
"+.	c #7BE8FE",
"@.	c #6DE6FF",
"#.	c #5FE3FF",
"$.	c #51E0FE",
"%.	c #43DCFD",
"&.	c #3797AC",
"*.	c #75878C",
"=.	c #FDFEFD",
"-.	c #FBFBFC",
";.	c #D6E5E6",
">.	c #D1F7FE",
",.	c #C2F4FF",
"'.	c #C4F5FF",
").	c #C5F5FF",
"!.	c #BEF4FE",
"~.	c #B8F3FD",
"{.	c #59919C",
"].	c #044F5F",
"^.	c #6F959A",
"/.	c #74E6FF",
"(.	c #67E4FF",
"_.	c #59E2FF",
":.	c #4CDFFF",
"<.	c #3FDDFF",
"[.	c #32C3E1",
"}.	c #28555D",
"|.	c #DCDEDE",
"1.	c #E2E6E6",
"2.	c #D8F6FB",
"3.	c #B4F2FE",
"4.	c #B4F2FF",
"5.	c #B5F3FF",
"6.	c #B6F2FF",
"7.	c #B5F2FF",
"8.	c #B0F1FF",
"9.	c #ABF1FE",
"0.	c #55919C",
"a.	c #054F5F",
"b.	c #6A949A",
"c.	c #78E7FE",
"d.	c #6CE5FE",
"e.	c #5FE2FF",
"f.	c #53E0FE",
"g.	c #46DEFE",
"h.	c #39DCFF",
"i.	c #2DD7FB",
"j.	c #216D7E",
"k.	c #869497",
"l.	c #D1E1E3",
"m.	c #A2EEFE",
"n.	c #A5EFFE",
"o.	c #A7EEFC",
"p.	c #8DCAD3",
"q.	c #83BBC5",
"r.	c #80BAC6",
"s.	c #7CBAC6",
"t.	c #538D99",
"u.	c #034F5F",
"v.	c #044F5E",
"w.	c #4A7B83",
"x.	c #59B3C5",
"y.	c #50B2C6",
"z.	c #49B1C5",
"A.	c #3FBDD5",
"B.	c #3EDDFD",
"C.	c #33DBFF",
"D.	c #28D9FF",
"E.	c #1D8BA2",
"F.	c #425E64",
"G.	c #BFDCDF",
"H.	c #ACF0FE",
"I.	c #93ECFF",
"J.	c #96EDFE",
"K.	c #7CBEC9",
"L.	c #4C8F9B",
"M.	c #267282",
"N.	c #257181",
"O.	c #1E6979",
"P.	c #044F60",
"Q.	c #135E6D",
"R.	c #257081",
"S.	c #125865",
"T.	c #34C1DA",
"U.	c #2CDAFE",
"V.	c #21D8FF",
"W.	c #18A0BC",
"X.	c #153A42",
"Y.	c #AED8DE",
"Z.	c #98EDFE",
"`.	c #84E9FF",
" +	c #87EAFE",
".+	c #59A0AC",
"++	c #075162",
"@+	c #034F60",
"#+	c #045060",
"$+	c #024F5F",
"%+	c #034B5B",
"&+	c #41A4B1",
"*+	c #25D9FE",
"=+	c #1CD7FF",
"-+	c #13A9C9",
";+	c #0B333D",
">+	c #A1D3DC",
",+	c #88EAFE",
"'+	c #75E7FF",
")+	c #60BDCF",
"!+	c #235E67",
"~+	c #144650",
"{+	c #15464F",
"]+	c #14464F",
"^+	c #0B4A57",
"/+	c #0D4450",
"(+	c #11454F",
"_+	c #104650",
":+	c #10454F",
"<+	c #2F5961",
"[+	c #4DD5EA",
"}+	c #1ED8FE",
"|+	c #16D6FF",
"1+	c #0EA5C3",
"2+	c #06313A",
"3+	c #9AD0D9",
"4+	c #7DE8FD",
"5+	c #66E4FF",
"6+	c #69E5FE",
"7+	c #6BE5FE",
"8+	c #76E8FC",
"9+	c #84E6F7",
"0+	c #82E6F7",
"a+	c #7FE5F7",
"b+	c #448C9B",
"c+	c #569098",
"d+	c #5FE1F7",
"e+	c #56E0F8",
"f+	c #4EDFF8",
"g+	c #3BDFFC",
"h+	c #20D7FE",
"i+	c #18D6FF",
"j+	c #10D5FE",
"k+	c #0992AE",
"l+	c #092F38",
"m+	c #A2D0D8",
"n+	c #72E6FD",
"o+	c #58E1FF",
"p+	c #5AE2FF",
"q+	c #5BE2FF",
"r+	c #5BE3FF",
"s+	c #58E2FE",
"t+	c #55E2FE",
"u+	c #3E8B9C",
"v+	c #024E5E",
"w+	c #024F5E",
"x+	c #43929B",
"y+	c #37DBFE",
"z+	c #2FDBFE",
"A+	c #27D9FE",
"B+	c #1FD7FE",
"C+	c #11D5FF",
"D+	c #0AD4FD",
"E+	c #046D84",
"F+	c #2D4A51",
"G+	c #C1D3D6",
"H+	c #5EE2FA",
"I+	c #4DE0FF",
"J+	c #4CDFFE",
"K+	c #4CE0FF",
"L+	c #4ADFFF",
"M+	c #47DFFE",
"N+	c #398A9C",
"O+	c #3D929B",
"P+	c #2DD9FE",
"Q+	c #25D9FF",
"R+	c #1FD7FF",
"S+	c #0BD4FF",
"T+	c #05C9F0",
"U+	c #024351",
"V+	c #718084",
"W+	c #F7F7F7",
"X+	c #4CBFD4",
"Y+	c #44DEFE",
"Z+	c #3DDDFE",
"`+	c #3EDDFF",
" @	c #3CDDFF",
".@	c #39DDFD",
"+@	c #2F8597",
"@@	c #3E959E",
"#@	c #21D8FD",
"$@	c #10D5FF",
"%@	c #0AD4FE",
"&@	c #06D3FE",
"*@	c #028CAA",
"=@	c #03313B",
"-@	c #CDCECF",
";@	c #FEFEFD",
">@	c #9AC1C8",
",@	c #30CDEE",
"'@	c #31DBFE",
")@	c #31DBFF",
"!@	c #30DBFF",
"~@	c #1FA6C0",
"{@	c #12555F",
"]@	c #28555E",
"^@	c #47CDE2",
"/@	c #18D6FE",
"(@	c #13D5FF",
"_@	c #0ED4FE",
":@	c #09D3FF",
"<@	c #04D3FE",
"[@	c #02BCE3",
"}@	c #4D6266",
"|@	c #4B97A8",
"1@	c #25BDDE",
"2@	c #25D7FD",
"3@	c #25D8FF",
"4@	c #23D8FF",
"5@	c #1FD8FF",
"6@	c #2ADEFD",
"7@	c #2CDDFD",
"8@	c #13D6FE",
"9@	c #0FD5FF",
"0@	c #07D3FE",
"a@	c #03D3FE",
"b@	c #02C7F0",
"c@	c #02596C",
"d@	c #12383F",
"e@	c #D9DADB",
"f@	c #DCDFE0",
"g@	c #2C7584",
"h@	c #19A2BF",
"i@	c #19D0F6",
"j@	c #19D7FE",
"k@	c #18D7FF",
"l@	c #14D6FF",
"m@	c #0ED5FE",
"n@	c #0BD4FE",
"o@	c #07D3FF",
"p@	c #02D2FE",
"q@	c #02BFE8",
"r@	c #025C70",
"s@	c #07333D",
"t@	c #ABB0B1",
"u@	c #D4D6D7",
"v@	c #2E555D",
"w@	c #0F6D80",
"x@	c #0FAECF",
"y@	c #0ED0F9",
"z@	c #0DD4FE",
"A@	c #0CD4FF",
"B@	c #09D4FF",
"C@	c #06D3FF",
"D@	c #04D3FF",
"E@	c #02D3FF",
"F@	c #02CCF7",
"G@	c #0295B5",
"H@	c #024755",
"I@	c #0C343C",
"J@	c #A6ACAD",
"K@	c #EBEBEB",
"L@	c #617276",
"M@	c #093A44",
"N@	c #065768",
"O@	c #05809A",
"P@	c #039EBF",
"Q@	c #03AED0",
"R@	c #02ADD0",
"S@	c #019BBC",
"T@	c #017890",
"U@	c #024A59",
"V@	c #02333E",
"W@	c #385055",
"X@	c #CECFCF",
"Y@	c #FEFDFE",
"Z@	c #CED0CF",
"`@	c #697A7E",
" #	c #1D3D44",
".#	c #012C36",
"+#	c #02323D",
"@#	c #01333D",
"##	c #012E37",
"$#	c #0F333A",
"%#	c #506468",
"&#	c #B2B4B5",
". . . . . + @ # $ % & * = - ; > , ' . . . . ",
". . . . ) ! ~ { ] ^ / ( _ : < [ } | + . . . ",
". . . @ 1 2 3 4 5 6 7 8 9 0 a b c d e . . . ",
". . @ f g h i j k l m n o p q r s t u v ' . ",
". w x y z A B C D E F G H I J K L M N O P Q ",
"+ R S T 6 U V W X Y Z `  ...+.@.#.$.%.&.*.=.",
"-.;.>.,.'.).,.!.~.{.].Z ^.J /.(._.:.<.[.}.|.",
"1.2.3.4.5.6.7.8.9.0.].a.b.c.d.e.f.g.h.i.j.k.",
"l.X m.n.o.p.q.r.s.t.u.v.w.x.y.z.A.B.C.D.E.F.",
"G.H.I.J.K.L.M.N.N.O.u.P.Q.N.N.R.S.T.U.V.W.X.",
"Y.Z.`. +.+++P.@+].u.#+u.u.u.$+$+%+&+*+=+-+;+",
">+,+'+c.)+!+~+{+]+^+u.u./+(+_+:+<+[+}+|+1+2+",
"3+4+5+6+7+8+9+0+a+b+u.u.c+d+e+f+g+h+i+j+k+l+",
"m+n+o+p+q+r+p+s+t+u+v+w+x+y+z+A+B+i+C+D+E+F+",
"G+H+I+J+K+I+:.L+M+N+v+$+O+P+Q+R+i+C+S+T+U+V+",
"W+X+Y+Z+`+<.`+ @.@+@$+v+@@#@=+|+$@%@&@*@=@-@",
";@>@,@'@)@)@!@z+U.~@{@]@^@/@(@_@:@<@[@U+}@, ",
"+ W+|@1@2@Q+3@4@V.5@6@7@8@9@S+0@a@b@c@d@e@+ ",
". + f@g@h@i@j@k@|+l@C+m@n@o@<@p@q@r@s@t@+ + ",
". . + u@v@w@x@y@z@A@B@C@D@E@F@G@H@I@J@+ . . ",
". . . + K@L@M@N@O@P@Q@R@S@T@U@V@W@X@+ . . . ",
". . . . . Y@Z@`@ #.#+#@###$#%#&#) ' . . . . "};
