/* XPM */
static char *newCategory_xpm[]={
"14 14 5 1",
". c None",
"# c #000000",
"b c #808080",
"c c #ffff00",
"a c #ffffff",
"..#######.....",
"..#aaaaa##....",
"..#aaaaa#.#...",
"..#aaaaa#..#..",
"..#aaaaa####..",
"..#aabaaaaa#..",
"..babcbabaa#..",
"..#cbcbcaaa#..",
"..bbcccbbaa#..",
".bcccccccba#..",
"..bbcccbbaa#..",
"..#cbcbcaaa#..",
"..babcbabaa#..",
"..###b######.."};
