/* XPM */
static char * pause_xpm[] = {
"19 20 62 1",
" 	c None",
".	c #DAF2FA",
"+	c #BCEBFA",
"@	c #C5F1FD",
"#	c #C5E5EE",
"$	c #E2EFF5",
"%	c #CDF2FB",
"&	c #BCEBFD",
"*	c #BAE6FE",
"=	c #B3E2FC",
"-	c #A9DAFC",
";	c #B3E2F6",
">	c #B3E7F4",
",	c #E2EBED",
"'	c #9FCCFC",
")	c #A9D3FC",
"!	c #A9DAF9",
"~	c #A9D3F4",
"{	c #B1E5ED",
"]	c #BCDAE7",
"^	c #C5F1FF",
"/	c #C9F5FF",
"(	c #D0F8FF",
"_	c #A9DAEB",
":	c #D3D3D3",
"<	c #CCF6FC",
"[	c #D3FAFE",
"}	c #DAFCFF",
"|	c #000000",
"1	c #9FCCE9",
"2	c #7A9FAE",
"3	c #BCE9F6",
"4	c #93B0AD",
"5	c #A9D1D2",
"6	c #81B3CC",
"7	c #7A9696",
"8	c #9FC3C3",
"9	c #A9DADA",
"0	c #7AA9B8",
"a	c #C5F0F5",
"b	c #BCEAED",
"c	c #718FA2",
"d	c #A9AEAE",
"e	c #B3E5E6",
"f	c #B3DAE2",
"g	c #93BFC2",
"h	c #87A9AD",
"i	c #879F99",
"j	c #9FB3A9",
"k	c #9FCCCD",
"l	c #6E8984",
"m	c #62878D",
"n	c #BCD3D3",
"o	c #CCE2E2",
"p	c #6E7A7A",
"q	c #BCBCBC",
"r	c #7A7A7A",
"s	c #626769",
"t	c #C5C5C5",
"u	c #586164",
"v	c #6E6E6E",
"w	c #B3B3B3",
"      .+@++#$      ",
"    %@&*==-=;>,    ",
"   %@&*--')!!!;#   ",
"  %@@&**=)))!!~{]  ",
" %@@@^/(^==!!;;;_: ",
",%<@@[}||12||33;{4 ",
"5<<%<[}||62||;+>>7 ",
"89<<<[[||10||{a3bcd",
"88ebaef||g7||a{9hij",
"8k555f5||4l||4884h7",
"859ffe5||4m||85844i",
"855neef||4l||k58g8c",
"459feof||8m||5kk88p",
"qg5neeeh29k4kf5k58d",
" 4599ebee{bbef95k7 ",
" 48k9feb{bb#ee954r ",
"  lgk9febbbeef5gs  ",
"  tl4k9feeeef54s   ",
"    ul4k59584sv    ",
"     wussssspw     "};
