/* XPM */
static const char *playnow_xpm[]={
"16 16 6 1",
". c None",
"c c #000000",
"b c #0000c0",
"# c #0000ff",
"a c #808080",
"d c #ff0000",
"......##........",
"......##a.......",
"......##a.......",
"...######bb.....",
"...######bbcc...",
"....aa##a.cccc..",
"......##a.ccccc.",
"......##a.cccccc",
".......aa.ccccc.",
"..........cccc..",
"d..d..dd..dcc.d.",
"d..d.d..d.d...d.",
"dd.d.d..d.d.d.d.",
"dd.d.d..d.d.d.d.",
"d.dd.d..d.d.d.d.",
"d..d..dd...d.d.."};
