/* XPM */
static const char * playnow_xpm[] = {
"22 22 219 2",
"  	c None",
". 	c #7CBEC9",
"+ 	c #CDF6FE",
"@ 	c #DDE8EA",
"# 	c #D5E8EA",
"$ 	c #CBE5E9",
"% 	c #BFE0E5",
"& 	c #BEDEE2",
"* 	c #034F5F",
"= 	c #4A7B83",
"- 	c #9DEEFD",
"; 	c #C1F3FE",
"> 	c #B6F2FF",
", 	c #ACF0FE",
"' 	c #A3EEFE",
") 	c #88D8E6",
"! 	c #ACD0D7",
"~ 	c #4C8F9B",
"{ 	c #1E6979",
"] 	c #2DA9C1",
"^ 	c #C3F4FF",
"/ 	c #B6F2FE",
"( 	c #8FEBFC",
"_ 	c #80E1F2",
": 	c #81E9FE",
"< 	c #6EE6FC",
"[ 	c #72BBCA",
"} 	c #75E6FE",
"| 	c #69E4FE",
"1 	c #58D9F4",
"2 	c #59A0AD",
"3 	c #8FE8F9",
"4 	c #87E7FA",
"5 	c #7CE6FA",
"6 	c #71E6FE",
"7 	c #62E3FF",
"8 	c #54E1FE",
"9 	c #45BED7",
"0 	c #5D848E",
"a 	c #90DFED",
"b 	c #83E4F7",
"c 	c #72E4FB",
"d 	c #6BE5FE",
"e 	c #5DE2FF",
"f 	c #4FE0FE",
"g 	c #42D8F8",
"h 	c #348395",
"i 	c #9BA6A7",
"j 	c #045060",
"k 	c #88D5E2",
"l 	c #8BE5F7",
"m 	c #70E4FC",
"n 	c #56DFFE",
"o 	c #49DFFF",
"p 	c #3DDCFE",
"q 	c #30B1CB",
"r 	c #33555D",
"s 	c #FB9800",
"t 	c #69E3FD",
"u 	c #64E1FC",
"v 	c #62E1FC",
"w 	c #57DDFD",
"x 	c #47DDFE",
"y 	c #43DEFF",
"z 	c #37DCFF",
"A 	c #2BD1F4",
"B 	c #205A66",
"C 	c #ADB4B5",
"D 	c #B3F1FF",
"E 	c #B4F2FF",
"F 	c #86E1F2",
"G 	c #53DDFD",
"H 	c #48DAFD",
"I 	c #42DEFF",
"J 	c #3CDDFF",
"K 	c #31DBFF",
"L 	c #25D8FE",
"M 	c #1B7384",
"N 	c #6A7D82",
"O 	c #C2F4FE",
"P 	c #A2EEFE",
"Q 	c #A5EFFE",
"R 	c #A8F0FF",
"S 	c #93E5F3",
"T 	c #83E6FA",
"U 	c #000500",
"V 	c #FCDBA5",
"W 	c #3ADAFD",
"X 	c #36DAFC",
"Y 	c #2ED9FC",
"Z 	c #28D9FE",
"` 	c #20D8FE",
" .	c #16889F",
"..	c #39585F",
"+.	c #ABD8DD",
"@.	c #94ECFE",
"#.	c #83E9FF",
"$.	c #87EAFF",
"%.	c #89EAFF",
"&.	c #1FA6C0",
"*.	c #20A6C0",
"=.	c #7DDFF3",
"-.	c #72E4FC",
";.	c #FCCB7E",
">.	c #2BD8FC",
",.	c #24D8FF",
"'.	c #1AD6FE",
").	c #1290AA",
"!.	c #22434A",
"~.	c #9CD3DB",
"{.	c #85EAFE",
"].	c #75E6FF",
"^.	c #78E7FE",
"/.	c #79E7FF",
"(.	c #78E6FC",
"_.	c #68E3FE",
":.	c #1DD7FF",
"<.	c #14D6FD",
"[.	c #0B8BA4",
"}.	c #1F4047",
"|.	c #95CFD8",
"1.	c #7AE8FE",
"2.	c #65E4FF",
"3.	c #68E5FE",
"4.	c #6AE5FF",
"5.	c #65E2FE",
"6.	c #59DCFA",
"7.	c #F8B449",
"8.	c #FCA726",
"9.	c #0ED4FE",
"0.	c #07758C",
"a.	c #314F54",
"b.	c #9DCFD6",
"c.	c #70E6FE",
"d.	c #57E1FE",
"e.	c #58E2FF",
"f.	c #5AE2FF",
"g.	c #5BE2FF",
"h.	c #58DEFA",
"i.	c #51DAF8",
"j.	c #48DBFC",
"k.	c #F8A114",
"l.	c #09D2FC",
"m.	c #035161",
"n.	c #5F7276",
"o.	c #BFD1D4",
"p.	c #5DE2FB",
"q.	c #4CE0FE",
"r.	c #49DFFE",
"s.	c #4BE0FF",
"t.	c #47D6F3",
"u.	c #3CDBFD",
"v.	c #3FDCFF",
"w.	c #04B3D9",
"x.	c #023540",
"y.	c #A6AAAA",
"z.	c #4ABDD2",
"A.	c #41DEFE",
"B.	c #3DDCFF",
"C.	c #3DDDFF",
"D.	c #3BDBFB",
"E.	c #35DBFF",
"F.	c #04D2FB",
"G.	c #02697E",
"H.	c #163841",
"I.	c #A0C1C9",
"J.	c #2EC9EA",
"K.	c #30D9FD",
"L.	c #30DBFF",
"M.	c #2FDBFE",
"N.	c #03D3FD",
"O.	c #01A1C2",
"P.	c #023742",
"Q.	c #5194A1",
"R.	c #22B7D6",
"S.	c #23D5FC",
"T.	c #23D8FE",
"U.	c #24D8FE",
"V.	c #24D4F9",
"W.	c #06D2FF",
"X.	c #02D2FE",
"Y.	c #02B2D8",
"Z.	c #01424F",
"`.	c #374F55",
" +	c #35727F",
".+	c #1895B0",
"++	c #17CCF1",
"@+	c #18D6FE",
"#+	c #19D3FA",
"$+	c #16CFF6",
"%+	c #16D5FF",
"&+	c #01D2FC",
"*+	c #02A3C6",
"=+	c #014351",
"-+	c #1F3E46",
";+	c #3E5C64",
">+	c #0E5C6D",
",+	c #0D9BB9",
"'+	c #0DC9F2",
")+	c #0BD2FA",
"!+	c #02B8DE",
"~+	c #026F86",
"{+	c #013843",
"]+	c #314A50",
"^+	c #133941",
"/+	c #054552",
"(+	c #04667B",
"_+	c #03829D",
":+	c #028FAC",
"<+	c #028DA9",
"[+	c #017991",
"}+	c #025668",
"|+	c #023843",
"1+	c #0D323A",
"2+	c #4A6066",
"3+	c #1B3A43",
"4+	c #072D36",
"5+	c #18383F",
"6+	c #465D61",
"          .     + @ # $ % &                 ",
"        . * = - @ # + ; > , ' ) !           ",
"        ~ * { ] + + ^ / ( ( _ : < [         ",
"        ~ * { ] + ^ + - ( ( ( } | 1 2       ",
"  . ~ ~ * * * { { = - - 3 4 5 6 7 8 9 0     ",
". * * * * * * * * * = a b c d d e f g h i   ",
"  = { { * * j { { = k l m d d d n o p q r   ",
"    ] ] { * { ] ] s s s t u v w x y z A B C ",
"  D E / { * { - F s s s s s G H I J K L M N ",
"O P Q R = * = S T U V V s s s W X Y Z `  ...",
"+.@.#.$.%.&.*.=.-.U V V V ;.s s s >.,.'.).!.",
"~.{.].^././.(.d _.U V ;.;.;.;.s s s :.<.[.}.",
"|.1.2.3.4.4.d 5.6.U ;.;.;.7.7.7.8.s s 9.0.a.",
"b.c.d.e.f.g.h.i.j.U ;.7.7.7.8.8.8.k.s l.m.n.",
"o.p.q.r.s.s.t.u.v.U 7.7.8.8.8.k.k.k.s w.x.y.",
"  z.A.B.C.C.D.E.E.U 8.8.8.k.k.k.k.U F.G.H.  ",
"  I.J.K.L.L.M.E.E.U 8.8.k.k.k.U U N.O.P.    ",
"    Q.R.S.,.T.U.V.U k.k.k.k.U W.X.Y.Z.`.    ",
"       +.+++@+#+$+U k.k.U U %+&+*+=+-+      ",
"        ;+>+,+'+)+U U U %+%+!+~+{+]+        ",
"            ^+/+(+_+:+<+[+}+|+1+            ",
"                2+3+4+4+5+6+                "};
