/* XPM */
static const char *playnow_xpm[]={
"22 22 342 2",
"au c #0080ff",
"do c #012c36",
"dq c #012e37",
"dp c #01333d",
"df c #017890",
"de c #019bbc",
"dh c #02333e",
"b9 c #024351",
"c7 c #024755",
"dg c #024a59",
"a7 c #024f5f",
"cI c #02596c",
"cU c #025c70",
"cj c #028caa",
"c6 c #0295b5",
"cw c #02bce3",
"cT c #02bfe8",
"cH c #02c7f0",
"c5 c #02ccf7",
"cS c #02d2fe",
"c4 c #02d3ff",
"ck c #03313b",
"a8 c #034b5b",
"a5 c #034f5f",
"a4 c #034f60",
"dd c #039ebf",
"cG c #03d3fe",
"av c #044f5e",
"#S c #044f5f",
"a3 c #044f60",
"bX c #046d84",
"cv c #04d3fe",
"#y c #054e5f",
"aa c #054f5f",
"dc c #05809a",
"b8 c #05c9f0",
"bs c #06313a",
"#x c #064f5f",
"db c #065768",
"ci c #06d3fe",
"cV c #07333d",
"a2 c #075162",
"cF c #07d3fe",
"bK c #092f38",
"da c #093a44",
"bJ c #0992ae",
"cu c #09d3ff",
"bW c #0ad4fd",
"ch c #0ad4fe",
"bb c #0b333d",
"bk c #0b4a57",
"b7 c #0bd4ff",
"c8 c #0c343c",
"c3 c #0cd4ff",
"c2 c #0dd4fe",
"br c #0ea5c3",
"c1 c #0ed0f9",
"dr c #0f333a",
"cZ c #0f6d80",
"c0 c #0faecf",
"bm c #10454f",
"bl c #104650",
"bI c #10d5fe",
"bV c #11d5ff",
"cJ c #12383f",
"aR c #125865",
"aP c #135e6d",
"ba c #13a9c9",
"bj c #14464f",
"bh c #144650",
"cR c #14d6ff",
"aW c #153a42",
"bi c #15464f",
"bq c #16d6ff",
"aV c #18a0bc",
"bH c #18d6ff",
"cQ c #18d7ff",
"cN c #19a2bf",
"cO c #19d0f6",
"cP c #19d7fe",
"b# c #1cd7ff",
"dn c #1d3d44",
"aE c #1d8ba2",
"#e c #1e5f6d",
"aO c #1e6979",
"bp c #1ed8fe",
"ct c #1fa6c0",
"bU c #1fd7fe",
"cE c #1fd8ff",
"bG c #20d7fe",
"aj c #216d7e",
"aU c #21d8ff",
"bg c #235e67",
"cD c #23d8ff",
"aQ c #257081",
"aN c #257181",
"cz c #25bdde",
"cA c #25d7fd",
"cC c #25d8ff",
"b. c #25d9fe",
"cB c #25d9ff",
"aM c #267282",
"#0 c #28555d",
"aD c #28d9ff",
"cM c #2c7584",
"aT c #2cdafe",
"bY c #2d4a51",
"ai c #2dd7fb",
"cY c #2e555d",
"bn c #2f5961",
"cg c #2f8597",
"cs c #2fdbfe",
"co c #30cdee",
"cr c #30dbff",
"cp c #31dbfe",
"cq c #31dbff",
"#Z c #32c3e1",
"aC c #33dbff",
"aS c #34c1da",
"#G c #3797ac",
"di c #385055",
"b6 c #398a9c",
"ah c #39dcff",
"cf c #39ddfd",
"bF c #3bdffc",
"ce c #3cddff",
"cc c #3dddfe",
"bT c #3e8b9c",
"aB c #3eddfd",
"cd c #3eddff",
"aA c #3fbdd5",
"#Y c #3fddff",
"a9 c #41a4b1",
"aF c #425e64",
"#F c #43dcfd",
"bC c #448c9b",
"cb c #44defe",
"ag c #46defe",
"#l c #47c9e4",
"b5 c #47dffe",
"#m c #49808b",
"az c #49b1c5",
"aw c #4a7b83",
"b4 c #4adfff",
"#d c #4b8d98",
"cy c #4b97a8",
"aL c #4c8f9b",
"ca c #4cbfd4",
"b2 c #4cdffe",
"#X c #4cdfff",
"b3 c #4ce0ff",
"cx c #4d6266",
"bo c #4dd5ea",
"b1 c #4de0ff",
"bE c #4edff8",
".4 c #4fa6b9",
"ds c #506468",
"ay c #50b2c6",
"#E c #51e0fe",
"at c #538d99",
"af c #53e0fe",
"a# c #55919c",
"#k c #55e1fd",
"bS c #55e2fe",
"bN c #58e1ff",
"bR c #58e2fe",
"#R c #59919c",
"a1 c #59a0ac",
"ax c #59b3c5",
"#W c #59e2ff",
"bO c #5ae2ff",
".3 c #5bddf9",
"bP c #5be2ff",
"bQ c #5be3ff",
"b0 c #5ee2fa",
"ae c #5fe2ff",
"#D c #5fe3ff",
"bf c #60bdcf",
"d# c #617276",
".N c #64c2d6",
"#j c #64e4ff",
"#w c #659aa4",
"bv c #66e4ff",
"#V c #67e4ff",
"dm c #697a7e",
"bw c #69e5fe",
"ab c #6a949a",
".2 c #6ae5ff",
"bx c #6be5fe",
"ad c #6ce5fe",
"#C c #6de6ff",
"#T c #6f959a",
"c. c #718084",
"#z c #71979d",
"bM c #72e6fd",
"#i c #73e6ff",
".M c #73e7fe",
"#U c #74e6ff",
"#H c #75878c",
"be c #75e7ff",
"by c #76e8fc",
"ac c #78e7fe",
".1 c #78e7ff",
"#B c #7be8fe",
"as c #7cbac6",
"aK c #7cbec9",
"bu c #7de8fd",
"bB c #7fe5f7",
"ar c #80bac6",
"#f c #81c2cb",
".L c #81e9fe",
"bA c #82e6f7",
"#h c #82e9fe",
"aq c #83bbc5",
"bz c #84e6f7",
"aZ c #84e9ff",
"ak c #869497",
".0 c #86eaff",
"a0 c #87eafe",
"bd c #88eafe",
"#A c #89eafd",
".x c #8be2f1",
".K c #8bebff",
"ap c #8dcad3",
"#g c #91ecfe",
"aI c #93ecff",
"#c c #96bec4",
".y c #96ced5",
".Z c #96ecff",
"aJ c #96edfe",
".X c #97cdd7",
"aY c #98edfe",
".J c #99edff",
"cn c #9ac1c8",
"bt c #9ad0d9",
"bc c #a1d3dc",
".w c #a1effe",
"bL c #a2d0d8",
"am c #a2eefe",
".W c #a3cfd7",
".Y c #a3edfd",
"an c #a5effe",
"c9 c #a6acad",
"ao c #a7eefc",
".I c #a9efff",
".v c #aaf1fe",
"cW c #abb0b1",
"a. c #abf1fe",
"aH c #acf0fe",
"aX c #aed8de",
"#9 c #b0f1ff",
"dt c #b2b4b5",
".u c #b3f2ff",
"#4 c #b4f2fe",
"#5 c #b4f2ff",
"#8 c #b5f2ff",
"#6 c #b5f3ff",
".h c #b6dde2",
"#7 c #b6f2ff",
".H c #b7f2fe",
"#Q c #b8f3fd",
".i c #bedcdf",
".g c #bee3e9",
"#P c #bef4fe",
"aG c #bfdcdf",
".t c #bff4fe",
"a6 c #c0c000",
"bZ c #c1d3d6",
"#M c #c2f4ff",
"#v c #c3f5fe",
".G c #c4f5fe",
"#N c #c4f5ff",
"#O c #c5f5ff",
".V c #caf4fc",
"#u c #caf6ff",
".s c #ccf6ff",
"cl c #cdcecf",
".5 c #cdd5d7",
"dj c #cecfcf",
"dl c #ced0cf",
"#b c #cef6fe",
"#t c #cff7ff",
".O c #d0dadc",
"al c #d1e1e3",
"#L c #d1f7fe",
".F c #d1f7ff",
".f c #d2f0f3",
"#s c #d2f7fe",
"#r c #d2f8fe",
"cX c #d4d6d7",
"#a c #d5f8ff",
"#K c #d6e5e6",
".U c #d6f7fe",
"#3 c #d8f6fb",
"cK c #d9dadb",
"## c #dbf9fe",
".r c #dbf9ff",
"#1 c #dcdede",
"cL c #dcdfe0",
".e c #dcf0f2",
".E c #dcf9fe",
".d c #dde9ea",
"#. c #ddf9ff",
".9 c #def9fe",
".T c #dff9ff",
".7 c #e1e6e6",
".j c #e1e7e9",
"#2 c #e2e6e6",
"#p c #e3e6e7",
".c c #e5eaea",
".S c #e5fbff",
".n c #e7e7e8",
".A c #e7e9e8",
".b c #e7e9e9",
".D c #e7fbff",
".P c #e8ebeb",
"#q c #e8f9fb",
"#n c #eaebeb",
".z c #eaeeee",
".q c #eafbfe",
".R c #eafbff",
"d. c #ebebeb",
".8 c #edfcfe",
".o c #eff1f1",
".C c #f2fcfe",
".Q c #f3fcfe",
".a c #f5f5f5",
".p c #f5fdff",
"c# c #f7f7f7",
".B c #f8fdfe",
".m c #fbfbfb",
"#J c #fbfbfc",
".6 c #fdfdfc",
".k c #fdfdfd",
"#I c #fdfefd",
"dk c #fefdfe",
"cm c #fefefd",
".# c #fefefe",
"#o c #fefeff",
".l c #fefffe",
"bD c #ffff00",
"Qt c #ffffff",
"QtQtQtQtQt.#.a.b.c.d.e.f.g.h.i.j.k.lQtQtQtQt",
"QtQtQtQt.m.n.o.p.q.r.s.t.u.v.w.x.y.z.#QtQtQt",
"QtQtQt.a.A.B.C.D.E.F.G.H.I.J.K.L.M.N.OQtQtQt",
"QtQt.a.P.Q.R.S.T.U.V.W.X.Y.Z.0.1.2.3.4.5.lQt",
"Qt.6.7.8.9#.###a#b#c#d#e#f#g#h#i#j#k#l#m#n#o",
".##p#q#r.F#s#t#u#v#w#x#y#z#A#B#C#D#E#F#G#H#I",
"#J#K#L#M#N#O#M#P#Q#R#S#x#T#h#U#V#W#X#Y#Z#0#1",
"#2#3#4#5#6#7#8#9a.a##Saaabacadaeafagahaiajak",
"al#vamanaoapaqarasatauavawaxayazaAaBaCaDaEaF",
"aGaHaIaJaKaLaMaNaNaOauauaPaNaNaQaRaSaTaUaVaW",
"aXaYaZa0a1a2a3a4#Sa5aua6aua5a7a7a8a9b.b#babb",
"bcbdbeacbfbgbhbibjbkaua6a6aublbmbnbobpbqbrbs",
"btbubvbwbxbybzbAbBbCaua6bDa6aubEbFbGbHbIbJbK",
"bLbMbNbObPbQbObRbSbTaua6bDbDa6aubUbHbVbWbXbY",
"bZb0b1b2b3b1#Xb4b5b6aua6bDbDbDa6aubVb7b8b9c.",
"c#cacbcccd#Ycdcecfcgaua6bDbDbDa6auchcicjckcl",
"cmcncocpcqcqcrcsaTctaua6bDbDa6aucucvcwb9cx.k",
".#c#cyczcAcBcCcDaUcEaua6bDa6aucFcGcHcIcJcK.#",
"Qt.#cLcMcNcOcPcQbqcRaua6a6aucvcScTcUcVcW.#.#",
"QtQt.#cXcYcZc0c1c2c3aua6auc4c5c6c7c8c9.#QtQt",
"QtQtQt.#d.d#dadbdcddauaudedfdgdhdidj.#QtQtQt",
"QtQtQtQtQtdkdldmdndoaudpdqdrdsdt.m.lQtQtQtQt"};
