/* XPM */
static const char * prelisten_xpm[] = {
"20 20 252 2",
"  	c None",
". 	c #BDBDBF",
"+ 	c #78787A",
"@ 	c #424446",
"# 	c #282B2C",
"$ 	c #2C2E30",
"% 	c #4A4B4D",
"& 	c #78797B",
"* 	c #9F9F9F",
"= 	c #D1D1D1",
"- 	c #CACBCB",
"; 	c #929394",
"> 	c #5C5D5F",
", 	c #36393A",
"' 	c #333537",
") 	c #4E4F51",
"! 	c #6B6C6E",
"~ 	c #818283",
"{ 	c #A1A2A3",
"] 	c #BEBEBF",
"^ 	c #D6D7D8",
"/ 	c #CECFCF",
"( 	c #767879",
"_ 	c #2B2E2F",
": 	c #1B1E1F",
"< 	c #222627",
"[ 	c #373A3B",
"} 	c #555657",
"| 	c #676869",
"1 	c #5E5F61",
"2 	c #4A4C4F",
"3 	c #383B3E",
"4 	c #44474A",
"5 	c #717477",
"6 	c #B9BBBD",
"7 	c #8B8D8F",
"8 	c #3D3F41",
"9 	c #202123",
"0 	c #262729",
"a 	c #636464",
"b 	c #B4B4B5",
"c 	c #E1E1E1",
"d 	c #E9E9E9",
"e 	c #C6C6C7",
"f 	c #5E6063",
"g 	c #3D4043",
"h 	c #474B4E",
"i 	c #595C5F",
"j 	c #D9D9D9",
"k 	c #686A6C",
"l 	c #242628",
"m 	c #2E2F31",
"n 	c #606162",
"o 	c #C8C8C8",
"p 	c #9A9C9E",
"q 	c #606366",
"r 	c #464A4D",
"s 	c #484B4E",
"t 	c #ADAEAE",
"u 	c #D4D5D5",
"v 	c #525456",
"w 	c #363839",
"x 	c #6C6C6D",
"y 	c #B4B5B6",
"z 	c #D5D6D7",
"A 	c #87898A",
"B 	c #444748",
"C 	c #3E4244",
"D 	c #909292",
"E 	c #999A9B",
"F 	c #3F4041",
"G 	c #5E5E5F",
"H 	c #B8B8B8",
"I 	c #525454",
"J 	c #363A3C",
"K 	c #8B8D8D",
"L 	c #E3E3E3",
"M 	c #58595B",
"N 	c #292A2C",
"O 	c #7D7D7E",
"P 	c #E7E7E7",
"Q 	c #D0D0D0",
"R 	c #7D7F7F",
"S 	c #35393B",
"T 	c #98999A",
"U 	c #B6B7B7",
"V 	c #35383A",
"W 	c #272A2D",
"X 	c #717375",
"Y 	c #D4D4D5",
"Z 	c #818284",
"` 	c #2F3133",
" .	c #8A8C8E",
"..	c #A5A6A6",
"+.	c #2C2F32",
"@.	c #24272A",
"#.	c #46494B",
"$.	c #797B7C",
"%.	c #ACADAF",
"&.	c #BEC0BF",
"*.	c #8B8C8D",
"=.	c #535456",
"-.	c #333436",
";.	c #585B5D",
">.	c #676A6B",
",.	c #34373B",
"'.	c #3A3E41",
").	c #44484B",
"!.	c #515558",
"~.	c #6C6F71",
"{.	c #959798",
"].	c #ACADAE",
"^.	c #7D8181",
"/.	c #65696A",
"(.	c #4C4F51",
"_.	c #393B3E",
":.	c #404345",
"<.	c #BEBFBF",
"[.	c #9C9D9C",
"}.	c #7B7D7D",
"|.	c #313537",
"1.	c #44484C",
"2.	c #4D5256",
"3.	c #474C4F",
"4.	c #404347",
"5.	c #424549",
"6.	c #494C4F",
"7.	c #CBCBCB",
"8.	c #ABABAD",
"9.	c #525455",
"0.	c #2E3335",
"a.	c #2C3134",
"b.	c #313639",
"c.	c #34393C",
"d.	c #353A3D",
"e.	c #373A3C",
"f.	c #9B9B9C",
"g.	c #4C4D4D",
"h.	c #444647",
"i.	c #363A3D",
"j.	c #53585C",
"k.	c #41464A",
"l.	c #2B2E32",
"m.	c #1E1F23",
"n.	c #232327",
"o.	c #3F4245",
"p.	c #6A6B6C",
"q.	c #797A7B",
"r.	c #616264",
"s.	c #2A2E2F",
"t.	c #313538",
"u.	c #383D40",
"v.	c #3B4043",
"w.	c #3A3F42",
"x.	c #34383B",
"y.	c #292D30",
"z.	c #575859",
"A.	c #2C2F31",
"B.	c #303336",
"C.	c #3C4043",
"D.	c #52565A",
"E.	c #1E2023",
"F.	c #17171A",
"G.	c #1C1D1F",
"H.	c #2B2E31",
"I.	c #444749",
"J.	c #434649",
"K.	c #34373A",
"L.	c #292D2F",
"M.	c #33383B",
"N.	c #404648",
"O.	c #44494C",
"P.	c #2B2F32",
"Q.	c #2A2F32",
"R.	c #2E3234",
"S.	c #383C3F",
"T.	c #525659",
"U.	c #1B1E20",
"V.	c #141517",
"W.	c #1A1C1E",
"X.	c #25292B",
"Y.	c #323639",
"Z.	c #2D3134",
"`.	c #363B3E",
" +	c #464B4E",
".+	c #4A4F52",
"++	c #404548",
"@+	c #2F3437",
"#+	c #282C2F",
"$+	c #4E5052",
"%+	c #323538",
"&+	c #494D50",
"*+	c #3B3F42",
"=+	c #25282A",
"-+	c #181A1C",
";+	c #202225",
">+	c #2C3034",
",+	c #36393B",
"'+	c #262A2D",
")+	c #43484B",
"!+	c #494E51",
"~+	c #373C40",
"{+	c #373A3D",
"]+	c #A1A1A1",
"^+	c #3B3E41",
"/+	c #3F4346",
"(+	c #35393C",
"_+	c #2E3235",
":+	c #3C4044",
"<+	c #68696B",
"[+	c #57595B",
"}+	c #313437",
"|+	c #2A2D30",
"1+	c #42474A",
"2+	c #414649",
"3+	c #393E41",
"4+	c #363B3F",
"5+	c #595C5E",
"6+	c #C8C9C9",
"7+	c #5C5F61",
"8+	c #3A3D3F",
"9+	c #484A4D",
"0+	c #4D5053",
"a+	c #4B4F52",
"b+	c #5C5F63",
"c+	c #ABADAF",
"d+	c #9A9C9D",
"e+	c #535659",
"f+	c #26292C",
"g+	c #2B3033",
"h+	c #8E9091",
"i+	c #949495",
"j+	c #666666",
"k+	c #515252",
"l+	c #5F6060",
"m+	c #CCCCCD",
"n+	c #DFE0E0",
"o+	c #9A9B9B",
"p+	c #333435",
"q+	c #2A2E31",
"r+	c #32373A",
"s+	c #666869",
"t+	c #E2E2E2",
"u+	c #D2D2D2",
"v+	c #E0E1E1",
"w+	c #DDDDDD",
"x+	c #A6A6A6",
"y+	c #67686A",
"z+	c #3E4042",
"A+	c #37393B",
"B+	c #4C4E51",
"C+	c #787B7D",
"            . + @ # $ % & * =           ",
"          - ; > , # ' ) ! ~ { ] ^       ",
"        / ( _ : < [ } | 1 2 3 4 5 6     ",
"        7 8 9 0 a b c   d e f g h i j   ",
"        k l m n o           p q r s t   ",
"      u v w x y             z A B C D   ",
"      E F G H                 t I J K   ",
"    L M N O P                 Q R S T   ",
"    U V W X Q                 Y Z `  .  ",
"    ..+.@.#.$.%.            &.*.=.-.;./ ",
"    >.,.'.).!.~.{.      ].^./.(._.V :.<.",
"[.}.|.1.2.3.4.5.6.  7.8.9.0.a.b.c.d.e.f.",
"g.h.i.j.k.l.m.n.o.p.q.r.s.t.u.v.w.x.y.z.",
"A.B.C.D.x.E.F.G.H.I.J.K.L.M.N.O.v.P.Q.R.",
"K.K.S.T.K.U.V.W.X.J Y.y.Z.`. +.+++@+M.#+",
"> $+%+&+*+=+-+;+>+:.,+'+Z.c.)+!+)+`.~+{+",
"]+~ {+^+/+(+H._+:+<+[+}+|+@+v.1+2+3+4+5+",
"  6+7+8+g 9+0+a+b+c+d+e+f+g+b.`.3+u.3+h+",
"      i+j+k+l+D m+  n+o+p+q+@+b.r+3+s+  ",
"      t+u+7.Q v+      w+x+y+z+A+B+C+    "};
