/* XPM */
static const char * prelistenStart_xpm[] = {
"22 22 420 2",
"  	c None",
". 	c #FFFFFE",
"+ 	c #FEFFFE",
"@ 	c #FFFFFD",
"# 	c #FEFDFA",
"$ 	c #FEFDFC",
"% 	c #FDFEFD",
"& 	c #FAFAF5",
"* 	c #F6EDE1",
"= 	c #F7E5C5",
"- 	c #F4DBB0",
"; 	c #DEC59A",
"> 	c #D7BF9A",
", 	c #DCCAA9",
"' 	c #EFDFC4",
") 	c #FCF1DD",
"! 	c #FEF6E8",
"~ 	c #FEFAF0",
"{ 	c #FEFCF8",
"] 	c #FFFEFE",
"^ 	c #FBF4E6",
"/ 	c #FDF8F3",
"( 	c #FDFEFE",
"_ 	c #FAFBF7",
": 	c #F4EBDA",
"< 	c #F9DFB5",
"[ 	c #F2CB89",
"} 	c #C4A46A",
"| 	c #716045",
"1 	c #594E3C",
"2 	c #6C6351",
"3 	c #ABA08A",
"4 	c #E4D9C2",
"5 	c #FBF1DD",
"6 	c #FFF6E7",
"7 	c #FDF7ED",
"8 	c #FAF7F2",
"9 	c #FDFDFD",
"0 	c #FEFFFF",
"a 	c #FEFEFF",
"b 	c #FDFFFD",
"c 	c #EDD1A5",
"d 	c #F4EDE0",
"e 	c #FEFDFD",
"f 	c #F1ECE0",
"g 	c #FADFB6",
"h 	c #FAC56F",
"i 	c #B48E4E",
"j 	c #261E13",
"k 	c #030303",
"l 	c #030302",
"m 	c #030402",
"n 	c #0F0E0D",
"o 	c #676055",
"p 	c #E8DFC8",
"q 	c #FFF2DE",
"r 	c #FEF3E0",
"s 	c #F6EEDF",
"t 	c #F6F4F0",
"u 	c #FFFEFF",
"v 	c #FDF8EC",
"w 	c #B39362",
"x 	c #E8E6E1",
"y 	c #F3F1EF",
"z 	c #F6DFBB",
"A 	c #FCC36C",
"B 	c #C79746",
"C 	c #291F13",
"D 	c #403420",
"E 	c #675435",
"F 	c #695A3F",
"G 	c #6D5E48",
"H 	c #494234",
"I 	c #25221C",
"J 	c #514E47",
"K 	c #F0E4CB",
"L 	c #FEEED3",
"M 	c #FAEBD4",
"N 	c #E7E0D4",
"O 	c #FAF8F8",
"P 	c #FEFEFE",
"Q 	c #FEFCF9",
"R 	c #FBE7C1",
"S 	c #836338",
"T 	c #E8E6E3",
"U 	c #EDE2CD",
"V 	c #FACD82",
"W 	c #F3B246",
"X 	c #674D23",
"Y 	c #94753B",
"Z 	c #BE9B59",
"` 	c #DEB471",
" .	c #D6B77D",
"..	c #AC946E",
"+.	c #A08D6C",
"@.	c #AE9F81",
"#.	c #62471B",
"$.	c #978D7B",
"%.	c #FCE9C6",
"&.	c #FDE9C7",
"*.	c #E8D9C2",
"=.	c #E2E0DC",
"-.	c #FDF3E1",
";.	c #F9CA7D",
">.	c #725021",
",.	c #E3DDD4",
"'.	c #F0D7AD",
").	c #FBB84D",
"!.	c #996B22",
"~.	c #614415",
"{.	c #B18943",
"].	c #B5904F",
"^.	c #C2A064",
"/.	c #BEA069",
"(.	c #DEBD85",
"_.	c #E6C693",
":.	c #DEC69A",
"<.	c #6B4913",
"[.	c #71582F",
"}.	c #E4D0AA",
"|.	c #FDE3B9",
"1.	c #F1D9B7",
"2.	c #CDC6BB",
"3.	c #FEFBF4",
"4.	c #FCE0B3",
"5.	c #F9AD35",
"6.	c #AE7012",
"7.	c #EECD98",
"8.	c #F7C87B",
"9.	c #FAAC2E",
"0.	c #322309",
"a.	c #8A6C37",
"b.	c #C79643",
"c.	c #D1A051",
"d.	c #D2A962",
"e.	c #D4AD69",
"f.	c #F7CD88",
"g.	c #FDD597",
"h.	c #F0CF98",
"i.	c #645B49",
"j.	c #FDDEAC",
"k.	c #F8D9A9",
"l.	c #C3B7A2",
"m.	c #FEF0D8",
"n.	c #FCC46E",
"o.	c #FA9C0B",
"p.	c #EC9308",
"q.	c #F9B446",
"r.	c #FAB13E",
"s.	c #FAA722",
"t.	c #020201",
"u.	c #A98443",
"v.	c #E9AA45",
"w.	c #FBBC59",
"x.	c #FAC267",
"y.	c #FCC874",
"z.	c #FDCB7F",
"A.	c #FCD08A",
"B.	c #FCD391",
"C.	c #C2A26B",
"D.	c #A68B5C",
"E.	c #FCD89E",
"F.	c #FCD699",
"G.	c #C6B293",
"H.	c #FDDAA5",
"I.	c #FAA82A",
"J.	c #FA9801",
"K.	c #F89A03",
"L.	c #F99D0D",
"M.	c #FAA015",
"N.	c #FAA41E",
"O.	c #A87726",
"P.	c #F9B242",
"Q.	c #FBB84F",
"R.	c #FBBE5D",
"S.	c #FBC267",
"T.	c #FCC673",
"U.	c #FCCB7C",
"V.	c #FBCE84",
"W.	c #F0C683",
"X.	c #A78C60",
"Y.	c #FBD390",
"Z.	c #FDD18A",
"`.	c #CCB088",
" +	c #FCBE5D",
".+	c #F99A06",
"++	c #F99800",
"@+	c #F99700",
"#+	c #F99904",
"$+	c #F99E0E",
"%+	c #F9A219",
"&+	c #96691E",
"*+	c #F7AD38",
"=+	c #FCB446",
"-+	c #FBB953",
";+	c #FBC266",
">+	c #FCC66E",
",+	c #FBC977",
"'+	c #E9BD74",
")+	c #9A7D4A",
"!+	c #FBCC82",
"~+	c #FCCC7D",
"{+	c #CCAB7A",
"]+	c #FAA013",
"^+	c #F99801",
"/+	c #FB9801",
"(+	c #F89901",
"_+	c #F99902",
":+	c #F99C0A",
"<+	c #F9A013",
"[+	c #0C0802",
"}+	c #946516",
"|+	c #E39F2D",
"1+	c #FBB13B",
"2+	c #FBB647",
"3+	c #FBB951",
"4+	c #FABD5B",
"5+	c #FCC063",
"6+	c #FBC468",
"7+	c #A18654",
"8+	c #674713",
"9+	c #0E0B06",
"0+	c #FCC671",
"a+	c #FDC56F",
"b+	c #C7A36A",
"c+	c #F99804",
"d+	c #FA9802",
"e+	c #F99A04",
"f+	c #FA9D0C",
"g+	c #A0670D",
"h+	c #120B03",
"i+	c #734F15",
"j+	c #FAAD32",
"k+	c #FAB03C",
"l+	c #FBB445",
"m+	c #FAB84B",
"n+	c #FBBA54",
"o+	c #FCBF5C",
"p+	c #7D5F33",
"q+	c #342814",
"r+	c #BF944C",
"s+	c #FAC163",
"t+	c #FCBF5E",
"u+	c #B4925D",
"v+	c #F19303",
"w+	c #F99701",
"x+	c #F89902",
"y+	c #FB9C07",
"z+	c #965E09",
"A+	c #030301",
"B+	c #150F04",
"C+	c #855B18",
"D+	c #FBAC31",
"E+	c #FAAF3B",
"F+	c #FAB240",
"G+	c #FBB548",
"H+	c #B49357",
"I+	c #18120A",
"J+	c #0A0804",
"K+	c #9B7637",
"L+	c #FBBB54",
"M+	c #F9B853",
"N+	c #987C4E",
"O+	c #DE9322",
"P+	c #F69902",
"Q+	c #F99802",
"R+	c #F39401",
"S+	c #E78E01",
"T+	c #EF9101",
"U+	c #764E10",
"V+	c #050301",
"W+	c #FBA827",
"X+	c #FAAA2F",
"Y+	c #FBAE35",
"Z+	c #7C5C27",
"`+	c #A27730",
" @	c #FAB646",
".@	c #E6A845",
"+@	c #75603D",
"@@	c #E4BC82",
"#@	c #EB920A",
"$@	c #F89702",
"%@	c #AC6A04",
"&@	c #926012",
"*@	c #A46509",
"=@	c #F39502",
"-@	c #040301",
";@	c #FBA41E",
">@	c #F9A724",
",@	c #FBA92A",
"'@	c #FAAC2F",
")@	c #BE872C",
"!@	c #F9B03A",
"~@	c #BC8937",
"{@	c #6B5C46",
"]@	c #F4EAD8",
"^@	c #DF9B38",
"/@	c #F29402",
"(@	c #6E4812",
"_@	c #988874",
":@	c #8F7249",
"<@	c #E38B02",
"[@	c #AD6E0B",
"}@	c #362201",
"|@	c #734C0D",
"1@	c #FBA115",
"2@	c #F9A31B",
"3@	c #FBA520",
"4@	c #FAA724",
"5@	c #9A6918",
"6@	c #060401",
"7@	c #120C03",
"8@	c #DA9527",
"9@	c #E7A02E",
"0@	c #826029",
"a@	c #8B8377",
"b@	c #FDFDFA",
"c@	c #E4C492",
"d@	c #E28F0E",
"e@	c #5F441F",
"f@	c #E4E1DD",
"g@	c #C9C0B1",
"h@	c #C17F19",
"i@	c #EB8F01",
"j@	c #9E6202",
"k@	c #402801",
"l@	c #955F06",
"m@	c #FA9E0D",
"n@	c #FA9F13",
"o@	c #FAA116",
"p@	c #DB931A",
"q@	c #412A06",
"r@	c #5D3E0B",
"s@	c #E69A20",
"t@	c #AF7822",
"u@	c #625033",
"v@	c #C7C4C1",
"w@	c #F9F5ED",
"x@	c #D79B42",
"y@	c #624621",
"z@	c #ECECE8",
"A@	c #F8F9F6",
"B@	c #AC9068",
"C@	c #B7740C",
"D@	c #E08902",
"E@	c #C27900",
"F@	c #D18103",
"G@	c #FA9B06",
"H@	c #FA9C0A",
"I@	c #FA9D0D",
"J@	c #FA9E10",
"K@	c #F09B13",
"L@	c #BC790F",
"M@	c #CB8513",
"N@	c #C68216",
"O@	c #644921",
"P@	c #8B8378",
"Q@	c #F9F9F9",
"R@	c #FEFEFD",
"S@	c #E7D2B4",
"T@	c #674D2C",
"U@	c #EEEBE9",
"V@	c #E4E3E0",
"W@	c #7A6446",
"X@	c #98610A",
"Y@	c #DD8703",
"Z@	c #F29302",
"`@	c #F49601",
" #	c #F89907",
".#	c #F79A07",
"+#	c #F5990C",
"@#	c #ED960C",
"##	c #BB750E",
"$#	c #5F4213",
"%#	c #695D4F",
"&#	c #EAEAEA",
"*#	c #FEFFFD",
"=#	c #FAFBF9",
"-#	c #91816E",
";#	c #EEECE8",
">#	c #FDFDFC",
",#	c #DBDBD9",
"'#	c #685846",
")#	c #653D07",
"!#	c #A96701",
"~#	c #D58002",
"{#	c #E68C02",
"]#	c #E99001",
"^#	c #E18B02",
"/#	c #C67A03",
"(#	c #8A5606",
"_#	c #47300A",
":#	c #67594C",
"<#	c #DFDFDD",
"[#	c #E4E0DA",
"}#	c #F7F6F4",
"|#	c #FAFAF9",
"1#	c #DFDDDA",
"2#	c #999084",
"3#	c #5F4A2D",
"4#	c #59390B",
"5#	c #613A01",
"6#	c #643D02",
"7#	c #5C3802",
"8#	c #53370C",
"9#	c #5B4932",
"0#	c #9B948C",
"a#	c #E0DEDD",
"b#	c #FFFFFF",
"c#	c #FBFBFA",
"d#	c #FCFCFC",
"e#	c #E6E5E3",
"f#	c #C6C3BE",
"g#	c #B3ACA1",
"h#	c #9D9284",
"i#	c #94897A",
"j#	c #9E9486",
"k#	c #B2ABA2",
"l#	c #C7C5C0",
"m#	c #E9E8E7",
". + @ # $ + % & * = - ; > , ' ) ! ~ { $ . ] ",
"@ ] . ^ / ( _ : < [ } | 1 2 3 4 5 6 7 8 9 0 ",
"a @ b c d e f g h i j k l m n o p q r s t a ",
"0 u v w x y z A B C D E F G H I J K L M N O ",
"P Q R S T U V W X Y Z `  ...+.@.#.$.%.&.*.=.",
"P -.;.>.,.'.).!.~.{.].^./.(._.:.<.[.}.|.1.2.",
"3.4.5.6.7.8.9.0.a.b.c.d.e.f.g.h.a.a.i.j.k.l.",
"m.n.o.p.q.r.s.t.u.v.w.x.y.z.A.B.C.D.t.E.F.G.",
"H.I.J.K.L.M.N.t.O.P.Q.R.S.T.U.V.W.X.t.Y.Z.`.",
" +.+++@+#+$+%+t.&+*+=+-+ +;+>+,+'+)+t.!+~+{+",
"]+^+/+(+_+:+<+[+}+|+1+2+3+4+5+6+7+8+9+0+a+b+",
"c+^+^+d+J.e+f+g+h+i+j+k+l+m+n+o+p+q+r+s+t+u+",
"v+^+_+w+^+x+y+z+A+B+C+D+E+F+G+H+I+J+K+L+M+N+",
"O+P+Q+R+S+T+#+U+V+t.<.W+X+Y+k+Z+t.t.`+ @.@+@",
"@@#@$@%@&@*@=@<.-@t.<.;@>@,@'@<.t.t.)@!@~@{@",
"]@^@/@(@_@:@<@[@}@t.|@1@2@3@4@5@6@7@8@9@0@a@",
"b@c@d@e@f@g@h@i@j@k@l@m@n@o@%+p@q@r@s@t@u@v@",
"P w@x@y@z@A@B@C@D@E@F@G@H@I@J@K@L@M@N@O@P@Q@",
"( R@S@T@U@b V@W@X@Y@Z@`@P+ #.#+#@###$#%#&#a ",
"R@*#=#-#;#+ >#,#'#)#!#~#{#]#^#/#(#_#:#<#( @ ",
"R@a + [#}#+ P |#1#2#3#4#5#6#7#8#9#0#a#=#u b#",
". b#b#c#9 b#b#b#d#e#f#g#h#i#j#k#l#m#d#. b#b#"};
