/* XPM */
static const char * prelistenStart_xpm[] = {
"22 22 341 2",
"  	c None",
". 	c #F7E5C5",
"+ 	c #F4DBB0",
"@ 	c #DEC59A",
"# 	c #D7BF9A",
"$ 	c #DCCAA9",
"% 	c #EFDFC4",
"& 	c #FDE9C7",
"* 	c #F9DFB5",
"= 	c #F2CB89",
"- 	c #C4A46A",
"; 	c #716045",
"> 	c #594E3C",
", 	c #6C6351",
"' 	c #ABA08A",
") 	c #E4D9C2",
"! 	c #EDD1A5",
"~ 	c #FADFB6",
"{ 	c #FAC56F",
"] 	c #B48E4E",
"^ 	c #261E13",
"/ 	c #030303",
"( 	c #030302",
"_ 	c #030402",
": 	c #0F0E0D",
"< 	c #676055",
"[ 	c #E8DFC8",
"} 	c #B39362",
"| 	c #F6DFBB",
"1 	c #FCC36C",
"2 	c #C79746",
"3 	c #291F13",
"4 	c #403420",
"5 	c #675435",
"6 	c #695A3F",
"7 	c #6D5E48",
"8 	c #494234",
"9 	c #25221C",
"0 	c #514E47",
"a 	c #F0E4CB",
"b 	c #836338",
"c 	c #FACD82",
"d 	c #F3B246",
"e 	c #674D23",
"f 	c #94753B",
"g 	c #BE9B59",
"h 	c #DEB471",
"i 	c #D6B77D",
"j 	c #AC946E",
"k 	c #A08D6C",
"l 	c #AE9F81",
"m 	c #62471B",
"n 	c #978D7B",
"o 	c #FCE9C6",
"p 	c #E8D9C2",
"q 	c #F9CA7D",
"r 	c #725021",
"s 	c #F0D7AD",
"t 	c #FBB84D",
"u 	c #996B22",
"v 	c #614415",
"w 	c #B18943",
"x 	c #B5904F",
"y 	c #C2A064",
"z 	c #BEA069",
"A 	c #DEBD85",
"B 	c #E6C693",
"C 	c #DEC69A",
"D 	c #6B4913",
"E 	c #71582F",
"F 	c #E4D0AA",
"G 	c #FDE3B9",
"H 	c #F1D9B7",
"I 	c #CDC6BB",
"J 	c #F9AD35",
"K 	c #AE7012",
"L 	c #EECD98",
"M 	c #F7C87B",
"N 	c #FAAC2E",
"O 	c #322309",
"P 	c #8A6C37",
"Q 	c #C79643",
"R 	c #D1A051",
"S 	c #D2A962",
"T 	c #D4AD69",
"U 	c #F7CD88",
"V 	c #FDD597",
"W 	c #F0CF98",
"X 	c #645B49",
"Y 	c #FDDEAC",
"Z 	c #F8D9A9",
"` 	c #C3B7A2",
" .	c #FCC46E",
"..	c #FA9C0B",
"+.	c #EC9308",
"@.	c #F9B446",
"#.	c #FAB13E",
"$.	c #FAA722",
"%.	c #020201",
"&.	c #A98443",
"*.	c #E9AA45",
"=.	c #FBBC59",
"-.	c #FAC267",
";.	c #FCC874",
">.	c #FDCB7F",
",.	c #FCD08A",
"'.	c #FCD391",
").	c #C2A26B",
"!.	c #A68B5C",
"~.	c #FCD89E",
"{.	c #FCD699",
"].	c #C6B293",
"^.	c #FDDAA5",
"/.	c #FAA82A",
"(.	c #FA9801",
"_.	c #F89A03",
":.	c #F99D0D",
"<.	c #FAA015",
"[.	c #FAA41E",
"}.	c #A87726",
"|.	c #F9B242",
"1.	c #FBB84F",
"2.	c #FBBE5D",
"3.	c #FBC267",
"4.	c #FCC673",
"5.	c #FCCB7C",
"6.	c #FBCE84",
"7.	c #F0C683",
"8.	c #A78C60",
"9.	c #FBD390",
"0.	c #FDD18A",
"a.	c #CCB088",
"b.	c #FCBE5D",
"c.	c #F99A06",
"d.	c #F99800",
"e.	c #F99700",
"f.	c #F99904",
"g.	c #F99E0E",
"h.	c #F9A219",
"i.	c #96691E",
"j.	c #F7AD38",
"k.	c #FCB446",
"l.	c #FBB953",
"m.	c #FBC266",
"n.	c #FCC66E",
"o.	c #FBC977",
"p.	c #E9BD74",
"q.	c #9A7D4A",
"r.	c #FBCC82",
"s.	c #FCCC7D",
"t.	c #CCAB7A",
"u.	c #FAA013",
"v.	c #F99801",
"w.	c #FB9801",
"x.	c #F89901",
"y.	c #F99902",
"z.	c #F99C0A",
"A.	c #F9A013",
"B.	c #0C0802",
"C.	c #946516",
"D.	c #E39F2D",
"E.	c #FBB13B",
"F.	c #FBB647",
"G.	c #FBB951",
"H.	c #FABD5B",
"I.	c #FCC063",
"J.	c #FBC468",
"K.	c #A18654",
"L.	c #674713",
"M.	c #0E0B06",
"N.	c #FCC671",
"O.	c #FDC56F",
"P.	c #C7A36A",
"Q.	c #F99804",
"R.	c #FA9802",
"S.	c #F99A04",
"T.	c #FA9D0C",
"U.	c #A0670D",
"V.	c #120B03",
"W.	c #734F15",
"X.	c #FAAD32",
"Y.	c #FAB03C",
"Z.	c #FBB445",
"`.	c #FAB84B",
" +	c #FBBA54",
".+	c #FCBF5C",
"++	c #7D5F33",
"@+	c #342814",
"#+	c #BF944C",
"$+	c #FAC163",
"%+	c #FCBF5E",
"&+	c #B4925D",
"*+	c #F19303",
"=+	c #F99701",
"-+	c #F89902",
";+	c #FB9C07",
">+	c #965E09",
",+	c #030301",
"'+	c #150F04",
")+	c #855B18",
"!+	c #FBAC31",
"~+	c #FAAF3B",
"{+	c #FAB240",
"]+	c #FBB548",
"^+	c #B49357",
"/+	c #18120A",
"(+	c #0A0804",
"_+	c #9B7637",
":+	c #FBBB54",
"<+	c #F9B853",
"[+	c #987C4E",
"}+	c #DE9322",
"|+	c #F69902",
"1+	c #F99802",
"2+	c #F39401",
"3+	c #E78E01",
"4+	c #EF9101",
"5+	c #764E10",
"6+	c #050301",
"7+	c #FBA827",
"8+	c #FAAA2F",
"9+	c #FBAE35",
"0+	c #7C5C27",
"a+	c #A27730",
"b+	c #FAB646",
"c+	c #E6A845",
"d+	c #75603D",
"e+	c #E4BC82",
"f+	c #EB920A",
"g+	c #F89702",
"h+	c #AC6A04",
"i+	c #926012",
"j+	c #A46509",
"k+	c #F39502",
"l+	c #040301",
"m+	c #FBA41E",
"n+	c #F9A724",
"o+	c #FBA92A",
"p+	c #FAAC2F",
"q+	c #BE872C",
"r+	c #F9B03A",
"s+	c #BC8937",
"t+	c #6B5C46",
"u+	c #F4EAD8",
"v+	c #DF9B38",
"w+	c #F29402",
"x+	c #6E4812",
"y+	c #988874",
"z+	c #8F7249",
"A+	c #E38B02",
"B+	c #AD6E0B",
"C+	c #362201",
"D+	c #734C0D",
"E+	c #FBA115",
"F+	c #F9A31B",
"G+	c #FBA520",
"H+	c #FAA724",
"I+	c #9A6918",
"J+	c #060401",
"K+	c #120C03",
"L+	c #DA9527",
"M+	c #E7A02E",
"N+	c #826029",
"O+	c #8B8377",
"P+	c #E4C492",
"Q+	c #E28F0E",
"R+	c #5F441F",
"S+	c #C9C0B1",
"T+	c #C17F19",
"U+	c #EB8F01",
"V+	c #9E6202",
"W+	c #402801",
"X+	c #955F06",
"Y+	c #FA9E0D",
"Z+	c #FA9F13",
"`+	c #FAA116",
" @	c #DB931A",
".@	c #412A06",
"+@	c #5D3E0B",
"@@	c #E69A20",
"#@	c #AF7822",
"$@	c #625033",
"%@	c #C7C4C1",
"&@	c #D79B42",
"*@	c #624621",
"=@	c #AC9068",
"-@	c #B7740C",
";@	c #E08902",
">@	c #C27900",
",@	c #D18103",
"'@	c #FA9B06",
")@	c #FA9C0A",
"!@	c #FA9D0D",
"~@	c #FA9E10",
"{@	c #F09B13",
"]@	c #BC790F",
"^@	c #CB8513",
"/@	c #C68216",
"(@	c #644921",
"_@	c #8B8378",
":@	c #E7D2B4",
"<@	c #674D2C",
"[@	c #7A6446",
"}@	c #98610A",
"|@	c #DD8703",
"1@	c #F29302",
"2@	c #F49601",
"3@	c #F89907",
"4@	c #F79A07",
"5@	c #F5990C",
"6@	c #ED960C",
"7@	c #BB750E",
"8@	c #5F4213",
"9@	c #695D4F",
"0@	c #91816E",
"a@	c #685846",
"b@	c #653D07",
"c@	c #A96701",
"d@	c #D58002",
"e@	c #E68C02",
"f@	c #E99001",
"g@	c #E18B02",
"h@	c #C67A03",
"i@	c #8A5606",
"j@	c #47300A",
"k@	c #67594C",
"l@	c #999084",
"m@	c #5F4A2D",
"n@	c #59390B",
"o@	c #613A01",
"p@	c #643D02",
"q@	c #5C3802",
"r@	c #53370C",
"s@	c #5B4932",
"t@	c #9B948C",
"u@	c #C6C3BE",
"v@	c #B3ACA1",
"w@	c #9D9284",
"x@	c #94897A",
"y@	c #9E9486",
"z@	c #B2ABA2",
"                  . + @ # $ % &             ",
"                * = - ; > , ' ) & &         ",
"      !       ~ { ] ^ / ( _ : < [ & &       ",
"      }     | 1 2 3 4 5 6 7 8 9 0 a & &     ",
"      b     c d e f g h i j k l m n o & p   ",
"    q r   s t u v w x y z A B C D E F G H I ",
"    J K L M N O P Q R S T U V W P P X Y Z ` ",
"   ...+.@.#.$.%.&.*.=.-.;.>.,.'.).!.%.~.{.].",
"^./.(._.:.<.[.%.}.|.1.2.3.4.5.6.7.8.%.9.0.a.",
"b.c.d.e.f.g.h.%.i.j.k.l.b.m.n.o.p.q.%.r.s.t.",
"u.v.w.x.y.z.A.B.C.D.E.F.G.H.I.J.K.L.M.N.O.P.",
"Q.v.v.R.(.S.T.U.V.W.X.Y.Z.`. +.+++@+#+$+%+&+",
"*+v.y.=+v.-+;+>+,+'+)+!+~+{+]+^+/+(+_+:+<+[+",
"}+|+1+2+3+4+f.5+6+%.D 7+8+9+Y.0+%.%.a+b+c+d+",
"e+f+g+h+i+j+k+D l+%.D m+n+o+p+D %.%.q+r+s+t+",
"u+v+w+x+y+z+A+B+C+%.D+E+F+G+H+I+J+K+L+M+N+O+",
"  P+Q+R+  S+T+U+V+W+X+Y+Z+`+h. @.@+@@@#@$@%@",
"    &@*@    =@-@;@>@,@'@)@!@~@{@]@^@/@(@_@  ",
"    :@<@      [@}@|@1@2@|+3@4@5@6@7@8@9@    ",
"      0@        a@b@c@d@e@f@g@h@i@j@k@      ",
"                  l@m@n@o@p@q@r@s@t@        ",
"                    u@v@w@x@y@z@            "};
