/* XPM */
static const char * prelistenEnd_xpm[] = {
"22 22 331 2",
"  	c None",
". 	c #EFDFC4",
"+ 	c #DCCAA9",
"@ 	c #D7BF9A",
"# 	c #DEC59A",
"$ 	c #F4DBB0",
"% 	c #F7E5C5",
"& 	c #FDDEAC",
"* 	c #ABA08A",
"= 	c #6C6351",
"- 	c #594E3C",
"; 	c #716045",
"> 	c #C4A46A",
", 	c #F2CB89",
"' 	c #F9DFB5",
") 	c #676055",
"! 	c #0F0E0D",
"~ 	c #030402",
"{ 	c #030302",
"] 	c #030303",
"^ 	c #261E13",
"/ 	c #B48E4E",
"( 	c #FAC56F",
"_ 	c #FADFB6",
": 	c #514E47",
"< 	c #25221C",
"[ 	c #494234",
"} 	c #6D5E48",
"| 	c #695A3F",
"1 	c #675435",
"2 	c #403420",
"3 	c #291F13",
"4 	c #C79746",
"5 	c #FCC36C",
"6 	c #F6DFBB",
"7 	c #B39362",
"8 	c #978D7B",
"9 	c #62471B",
"0 	c #AE9F81",
"a 	c #A08D6C",
"b 	c #AC946E",
"c 	c #D6B77D",
"d 	c #DEB471",
"e 	c #BE9B59",
"f 	c #94753B",
"g 	c #674D23",
"h 	c #F3B246",
"i 	c #FACD82",
"j 	c #836338",
"k 	c #CDC6BB",
"l 	c #E4D0AA",
"m 	c #71582F",
"n 	c #6B4913",
"o 	c #DEC69A",
"p 	c #E6C693",
"q 	c #DEBD85",
"r 	c #BEA069",
"s 	c #C2A064",
"t 	c #B5904F",
"u 	c #B18943",
"v 	c #614415",
"w 	c #996B22",
"x 	c #FBB84D",
"y 	c #F0D7AD",
"z 	c #725021",
"A 	c #F9CA7D",
"B 	c #C3B7A2",
"C 	c #F8D9A9",
"D 	c #645B49",
"E 	c #8A6C37",
"F 	c #F0CF98",
"G 	c #FDD597",
"H 	c #F7CD88",
"I 	c #D4AD69",
"J 	c #D2A962",
"K 	c #D1A051",
"L 	c #C79643",
"M 	c #322309",
"N 	c #FAAC2E",
"O 	c #F7C87B",
"P 	c #EECD98",
"Q 	c #AE7012",
"R 	c #F9AD35",
"S 	c #C6B293",
"T 	c #FCD699",
"U 	c #FCD89E",
"V 	c #020201",
"W 	c #A68B5C",
"X 	c #C2A26B",
"Y 	c #FCD391",
"Z 	c #FCD08A",
"` 	c #FDCB7F",
" .	c #FCC874",
"..	c #FAC267",
"+.	c #FBBC59",
"@.	c #E9AA45",
"#.	c #A98443",
"$.	c #FAA722",
"%.	c #FAB13E",
"&.	c #F9B446",
"*.	c #EC9308",
"=.	c #FA9C0B",
"-.	c #FCC46E",
";.	c #CCB088",
">.	c #FDD18A",
",.	c #FBD390",
"'.	c #A78C60",
").	c #F0C683",
"!.	c #FBCE84",
"~.	c #FCCB7C",
"{.	c #FCC673",
"].	c #FBC267",
"^.	c #FBBE5D",
"/.	c #FBB84F",
"(.	c #F9B242",
"_.	c #A87726",
":.	c #FAA41E",
"<.	c #FAA015",
"[.	c #F99D0D",
"}.	c #F89A03",
"|.	c #FA9801",
"1.	c #FAA82A",
"2.	c #FDDAA5",
"3.	c #CCAB7A",
"4.	c #FCCC7D",
"5.	c #FBCC82",
"6.	c #9A7D4A",
"7.	c #E9BD74",
"8.	c #FBC977",
"9.	c #FCC66E",
"0.	c #FBC266",
"a.	c #FCBE5D",
"b.	c #FBB953",
"c.	c #FCB446",
"d.	c #F7AD38",
"e.	c #96691E",
"f.	c #F9A219",
"g.	c #F99E0E",
"h.	c #F99904",
"i.	c #F99700",
"j.	c #F99800",
"k.	c #F99A06",
"l.	c #C7A36A",
"m.	c #FDC56F",
"n.	c #FCC671",
"o.	c #0E0B06",
"p.	c #674713",
"q.	c #A18654",
"r.	c #FBC468",
"s.	c #FCC063",
"t.	c #FABD5B",
"u.	c #FBB951",
"v.	c #FBB647",
"w.	c #FBB13B",
"x.	c #E39F2D",
"y.	c #946516",
"z.	c #0C0802",
"A.	c #F9A013",
"B.	c #F99C0A",
"C.	c #F99902",
"D.	c #F89901",
"E.	c #FB9801",
"F.	c #F99801",
"G.	c #FAA013",
"H.	c #B4925D",
"I.	c #FCBF5E",
"J.	c #FAC163",
"K.	c #BF944C",
"L.	c #342814",
"M.	c #7D5F33",
"N.	c #FCBF5C",
"O.	c #FBBA54",
"P.	c #FAB84B",
"Q.	c #FBB445",
"R.	c #FAB03C",
"S.	c #FAAD32",
"T.	c #734F15",
"U.	c #120B03",
"V.	c #A0670D",
"W.	c #FA9D0C",
"X.	c #F99A04",
"Y.	c #FA9802",
"Z.	c #F99804",
"`.	c #987C4E",
" +	c #F9B853",
".+	c #FBBB54",
"++	c #9B7637",
"@+	c #0A0804",
"#+	c #18120A",
"$+	c #B49357",
"%+	c #FBB548",
"&+	c #FAB240",
"*+	c #FAAF3B",
"=+	c #FBAC31",
"-+	c #855B18",
";+	c #150F04",
">+	c #030301",
",+	c #965E09",
"'+	c #FB9C07",
")+	c #F89902",
"!+	c #F99701",
"~+	c #F19303",
"{+	c #75603D",
"]+	c #E6A845",
"^+	c #FAB646",
"/+	c #A27730",
"(+	c #7C5C27",
"_+	c #FBAE35",
":+	c #FAAA2F",
"<+	c #FBA827",
"[+	c #050301",
"}+	c #764E10",
"|+	c #EF9101",
"1+	c #E78E01",
"2+	c #F39401",
"3+	c #F99802",
"4+	c #F69902",
"5+	c #DE9322",
"6+	c #6B5C46",
"7+	c #BC8937",
"8+	c #F9B03A",
"9+	c #BE872C",
"0+	c #FAAC2F",
"a+	c #FBA92A",
"b+	c #F9A724",
"c+	c #FBA41E",
"d+	c #040301",
"e+	c #F39502",
"f+	c #A46509",
"g+	c #926012",
"h+	c #AC6A04",
"i+	c #F89702",
"j+	c #EB920A",
"k+	c #E4BC82",
"l+	c #8B8377",
"m+	c #826029",
"n+	c #E7A02E",
"o+	c #DA9527",
"p+	c #120C03",
"q+	c #060401",
"r+	c #9A6918",
"s+	c #FAA724",
"t+	c #FBA520",
"u+	c #F9A31B",
"v+	c #FBA115",
"w+	c #734C0D",
"x+	c #362201",
"y+	c #AD6E0B",
"z+	c #E38B02",
"A+	c #8F7249",
"B+	c #988874",
"C+	c #6E4812",
"D+	c #F29402",
"E+	c #DF9B38",
"F+	c #625033",
"G+	c #AF7822",
"H+	c #E69A20",
"I+	c #5D3E0B",
"J+	c #412A06",
"K+	c #DB931A",
"L+	c #FAA116",
"M+	c #FA9F13",
"N+	c #FA9E0D",
"O+	c #955F06",
"P+	c #402801",
"Q+	c #9E6202",
"R+	c #EB8F01",
"S+	c #C17F19",
"T+	c #C9C0B1",
"U+	c #5F441F",
"V+	c #E28F0E",
"W+	c #E4C492",
"X+	c #8B8378",
"Y+	c #644921",
"Z+	c #C68216",
"`+	c #CB8513",
" @	c #BC790F",
".@	c #F09B13",
"+@	c #FA9E10",
"@@	c #FA9D0D",
"#@	c #FA9C0A",
"$@	c #FA9B06",
"%@	c #D18103",
"&@	c #C27900",
"*@	c #E08902",
"=@	c #B7740C",
"-@	c #AC9068",
";@	c #624621",
">@	c #D79B42",
",@	c #695D4F",
"'@	c #5F4213",
")@	c #BB750E",
"!@	c #ED960C",
"~@	c #F5990C",
"{@	c #F79A07",
"]@	c #F89907",
"^@	c #F49601",
"/@	c #F29302",
"(@	c #DD8703",
"_@	c #98610A",
":@	c #7A6446",
"<@	c #674D2C",
"[@	c #E7D2B4",
"}@	c #67594C",
"|@	c #47300A",
"1@	c #8A5606",
"2@	c #C67A03",
"3@	c #E18B02",
"4@	c #E99001",
"5@	c #E68C02",
"6@	c #D58002",
"7@	c #A96701",
"8@	c #653D07",
"9@	c #685846",
"0@	c #91816E",
"a@	c #9B948C",
"b@	c #5B4932",
"c@	c #53370C",
"d@	c #5C3802",
"e@	c #643D02",
"f@	c #613A01",
"g@	c #59390B",
"h@	c #5F4A2D",
"i@	c #999084",
"j@	c #C7C5C0",
"k@	c #B2ABA2",
"l@	c #9E9486",
"m@	c #94897A",
"n@	c #9D9284",
"o@	c #B3ACA1",
"p@	c #C6C3BE",
"              . + @ # $ %                   ",
"        & & & * = - ; > , '                 ",
"      & & & ) ! ~ { ] ^ / ( _               ",
"    & & & : < [ } | 1 2 3 4 5 6 7           ",
"  & & & 8 9 0 a b c d e f g h i j           ",
"k & & l m n o p q r s t u v w x y   z A     ",
"B C & D E E F G H I J K L E M N O P Q R     ",
"S T U V W X Y Z `  ...+.@.#.V $.%.&.*.=.-.  ",
";.>.,.V '.).!.~.{.].^./.(._.V :.<.[.}.|.1.2.",
"3.4.5.V 6.7.8.9.0.a.b.c.d.e.V f.g.h.i.j.k.a.",
"l.m.n.o.p.q.r.s.t.u.v.w.x.y.z.A.B.C.D.E.F.G.",
"H.I.J.K.L.M.N.O.P.Q.R.S.T.U.V.W.X.|.Y.F.F.Z.",
"`. +.+++@+#+$+%+&+*+=+-+;+>+,+'+)+F.!+C.F.~+",
"{+]+^+/+V V (+R._+:+<+n V [+}+h.|+1+2+3+4+5+",
"6+7+8+9+V V n 0+a+b+c+n V d+n e+f+g+h+i+j+k+",
"l+m+n+o+p+q+r+s+t+u+v+w+V x+y+z+A+B+C+D+E+  ",
"  F+G+H+I+J+K+f.L+M+N+O+P+Q+R+S+T+  U+V+W+  ",
"  X+Y+Z+`+ @.@+@@@#@$@%@&@*@=@-@    ;@>@    ",
"    ,@'@)@!@~@{@]@4+^@/@(@_@:@      <@[@    ",
"      }@|@1@2@3@4@5@6@7@8@9@        0@      ",
"        a@b@c@d@e@f@g@h@i@                  ",
"          j@k@l@m@n@o@p@                    "};
