/* XPM */
static const char * prelistenMiddle_xpm[] = {
"22 22 230 2",
"  	c None",
". 	c #EDC784",
"+ 	c #5E5A55",
"@ 	c #706C62",
"# 	c #BEB5A1",
"$ 	c #726C5B",
"% 	c #070605",
"& 	c #010101",
"* 	c #0D0C0A",
"= 	c #877B65",
"- 	c #F19D19",
"; 	c #BA7202",
"> 	c #958669",
", 	c #23201A",
"' 	c #756B58",
") 	c #887C68",
"! 	c #887D67",
"~ 	c #5A5042",
"{ 	c #1F1B15",
"] 	c #92805D",
"^ 	c #FBCF83",
"/ 	c #7B531B",
"( 	c #FDD494",
"_ 	c #61543D",
": 	c #CBBA91",
"< 	c #F3DAAF",
"[ 	c #F6E1B3",
"} 	c #BBA987",
"| 	c #BCA881",
"1 	c #CCB484",
"2 	c #5F4F38",
"3 	c #E1B46C",
"4 	c #82663D",
"5 	c #BBB0A2",
"6 	c #F0D6AB",
"7 	c #FABB54",
"8 	c #AF8849",
"9 	c #C4A86F",
"0 	c #AB9167",
"a 	c #A28B65",
"b 	c #A58F6B",
"c 	c #EECF98",
"d 	c #FDD89D",
"e 	c #D4B47C",
"f 	c #523811",
"g 	c #B58F4F",
"h 	c #A46F21",
"i 	c #D2C4AE",
"j 	c #BFB8AF",
"k 	c #E48C04",
"l 	c #EBB259",
"m 	c #F9C062",
"n 	c #FAA620",
"o 	c #C89E59",
"p 	c #F2C985",
"q 	c #FDD492",
"r 	c #FCD694",
"s 	c #FCD291",
"t 	c #FCD18B",
"u 	c #FBCD82",
"v 	c #C59E5C",
"w 	c #FAB23C",
"x 	c #F5B352",
"y 	c #805F33",
"z 	c #F99803",
"A 	c #FA9F12",
"B 	c #FA9C0C",
"C 	c #F99B0B",
"D 	c #B1873F",
"E 	c #FDC874",
"F 	c #FCCC81",
"G 	c #FCCD82",
"H 	c #FCCC80",
"I 	c #FCCA7B",
"J 	c #FCC875",
"K 	c #B28B4B",
"L 	c #FBAB2E",
"M 	c #FA9E0D",
"N 	c #F99D0B",
"O 	c #F89A07",
"P 	c #F99701",
"Q 	c #FA9803",
"R 	c #F99802",
"S 	c #FA9701",
"T 	c #F89902",
"U 	c #B38331",
"V 	c #FBC163",
"W 	c #FCC66F",
"X 	c #FCC672",
"Y 	c #FCC570",
"Z 	c #FCC46A",
"` 	c #FBC164",
" .	c #DBA64D",
"..	c #FAA621",
"+.	c #F99B08",
"@.	c #F99801",
"#.	c #F99800",
"$.	c #FA9802",
"%.	c #FA9801",
"&.	c #FA9800",
"*.	c #F89F0D",
"=.	c #F5B652",
"-.	c #FBBF5F",
";.	c #FBC062",
">.	c #FBBE60",
",.	c #FBBE5A",
"'.	c #FBBC56",
").	c #F7B64A",
"!.	c #FAA219",
"~.	c #F99A05",
"{.	c #A76905",
"].	c #060301",
"^.	c #B78735",
"/.	c #FBB84F",
"(.	c #FBB952",
"_.	c #FBB74C",
":.	c #E7A842",
"<.	c #37290F",
"[.	c #8D601A",
"}.	c #FBA115",
"|.	c #F99903",
"1.	c #945F06",
"2.	c #010103",
"3.	c #855F20",
"4.	c #FBB240",
"5.	c #FBB242",
"6.	c #FAB23D",
"7.	c #080503",
"8.	c #4E340B",
"9.	c #F9A415",
"0.	c #FB9905",
"a.	c #F99700",
"b.	c #F89701",
"c.	c #ED9202",
"d.	c #F19404",
"e.	c #090602",
"f.	c #FBAE32",
"g.	c #FAAD33",
"h.	c #FAAC32",
"i.	c #F9AB2E",
"j.	c #020102",
"k.	c #FAA013",
"l.	c #EF9505",
"m.	c #E18901",
"n.	c #F49400",
"o.	c #AA7624",
"p.	c #693F01",
"q.	c #BF9B67",
"r.	c #C97B02",
"s.	c #583705",
"t.	c #764907",
"u.	c #F49A09",
"v.	c #F6A423",
"w.	c #F8A825",
"x.	c #FAA723",
"y.	c #FBA622",
"z.	c #010002",
"A.	c #8E5D0C",
"B.	c #F49A0C",
"C.	c #6E4609",
"D.	c #593E18",
"E.	c #D68609",
"F.	c #594631",
"G.	c #9C6002",
"H.	c #AEA699",
"I.	c #B5A78E",
"J.	c #E48E0B",
"K.	c #FA9F10",
"L.	c #603E08",
"M.	c #120C03",
"N.	c #DE9317",
"O.	c #FBA11B",
"P.	c #F9A217",
"Q.	c #89570E",
"R.	c #040302",
"S.	c #B77408",
"T.	c #B47108",
"U.	c #695941",
"V.	c #F0AE45",
"W.	c #653E05",
"X.	c #B2AEA5",
"Y.	c #C2A378",
"Z.	c #905801",
"`.	c #C6C1B6",
" +	c #AC7D36",
".+	c #EB9208",
"++	c #F39A09",
"@+	c #BD7A09",
"#+	c #F0980F",
"$+	c #F79F0F",
"%+	c #F99E0F",
"&+	c #FB9D0B",
"*+	c #DE8D0A",
"=+	c #BB7703",
"-+	c #E18B04",
";+	c #4D3005",
">+	c #CCC8C3",
",+	c #61513A",
"'+	c #7F5312",
")+	c #DC8804",
"!+	c #FA9A06",
"~+	c #FB9A06",
"{+	c #F99A04",
"]+	c #F99A03",
"^+	c #E08802",
"/+	c #5F3A03",
"(+	c #8F8679",
"_+	c #BFBBB7",
":+	c #B4AFAA",
"<+	c #644519",
"[+	c #A96702",
"}+	c #DF8801",
"|+	c #F29401",
"1+	c #F29501",
"2+	c #E48C01",
"3+	c #B26D03",
"4+	c #583806",
"5+	c #7C7161",
"6+	c #938169",
"7+	c #D1CDCB",
"8+	c #6A5C48",
"9+	c #503610",
"0+	c #5F3A01",
"a+	c #603A01",
"b+	c #503307",
"c+	c #544129",
"d+	c #A7A097",
"e+	c #BBB5AF",
"f+	c #B2ACA7",
"g+	c #D1CDC8",
"                                            ",
"                . . . . . . .               ",
"              . . . + @ # . . .             ",
"            . . $ % & & * = . . -           ",
"      ;   . . > , ' ) ! ~ { ] ^ - -   /     ",
"    / ; . ( . _ : < [ } | 1 2 3 - 4   / /   ",
"    / 5 6 7 8 9 0 a b c d e f g - h i - / j ",
"  / k l m n f o p q r s t u v f w - x - / y ",
"  / z A B C f D E F G H I J K f L M N O P / ",
"/ Q R S T R f U V W X Y Z `  .f ..+.@.#.$./ ",
"/ %.S &.P %.*.f =.-.;.>.,.'.).f !.~.%.%.@.; ",
"; %.@.#.%.%.{.].^./.(./._.:.<.[.}.|.&.&.R / ",
"/ %.@.&.%.$.1.2.3.4.5.4.6.f 7.8.9.0.&.a.@./ ",
"/ %.b.c.d.~.f e.e.f.g.h.i.e.j.e.k.l.m.n.o.p.",
"q./ r.s.t.u.f e.e.v.w.x.y.e.z.A.B.C.D.E.; F.",
"  / G.H.I.J.K.L.M.N.!.O.P.Q.R.S.T.U.  V.W.X.",
"  Y.Z.`.   +.+++@+#+$+%+&+*+=+-+;+>+  / ,+  ",
"    / ;     '+)+!+~.~+~.{+]+^+/+(+    / _+  ",
"      ;     :+<+[+}+|+1+2+3+4+5+      6+    ",
"              7+8+9+0+a+b+c+d+              ",
"                    e+f+g+                  ",
"                                            "};
