/* XPM */
static const char *songinfo_xpm[]={
"20 20 4 1",
". c None",
"# c #0000ff",
"a c #0e0efc",
"b c #ffffff",
"......#######.......",
".....########a#.....",
"...#####bbb#####....",
"..#####bbbbb#####...",
"..#####bbbbb#####...",
".#######bbb#######..",
".#################..",
"###################.",
"########bb.########.",
"#######.bbb.#######.",
"#######bbbb.#######.",
"#######bbbb.#######.",
"#######bb.b.#######.",
".######bbbb.######..",
".######bbbb.######..",
"..#####bbbb.#####...",
"..####.bbbb..####...",
"...#############....",
"....###########.....",
".......#####........"};
