/* XPM */
static const char * songinfo_xpm[] = {
"22 22 380 2",
"  	c None",
". 	c #EBEEEE",
"+ 	c #E3EAEB",
"@ 	c #E0EDEE",
"# 	c #DDF3F5",
"$ 	c #D3F2F4",
"% 	c #C1E8EB",
"& 	c #B6DEE4",
"* 	c #BEDEE4",
"= 	c #D9E5E8",
"- 	c #F6F7F8",
"; 	c #F4FDFE",
"> 	c #E6FCFE",
", 	c #DAF8FF",
"' 	c #CCF5FF",
") 	c #BEF3FE",
"! 	c #B2F2FE",
"~ 	c #AAF0FD",
"{ 	c #A3EFFD",
"] 	c #8EE6F5",
"^ 	c #89CDD8",
"/ 	c #F0FDFE",
"( 	c #F9FDFD",
"_ 	c #EFFCFE",
": 	c #E5FAFE",
"< 	c #DDF8FF",
"[ 	c #D0F7FF",
"} 	c #C5F6FD",
"| 	c #B5F4FE",
"1 	c #99EDFD",
"2 	c #8BEBFC",
"3 	c #81E8FF",
"4 	c #75E7FD",
"5 	c #62CDE2",
"6 	c #A9C4CC",
"7 	c #EBFCFE",
"8 	c #E2FBFE",
"9 	c #DFF9FE",
"0 	c #D3FAFC",
"a 	c #B3DADF",
"b 	c #92BFC8",
"c 	c #94C8D2",
"d 	c #A2EBF5",
"e 	c #96EDFE",
"f 	c #87EAFD",
"g 	c #7AE8FD",
"h 	c #69E6FD",
"i 	c #5DE0FB",
"j 	c #4DB7CC",
"k 	c #A4B7BA",
"l 	c #E7FBFE",
"m 	c #DEF9FE",
"n 	c #DCF9FF",
"o 	c #DAF9FE",
"p 	c #D4F9FD",
"q 	c #B8DDE3",
"r 	c #679CA5",
"s 	c #297180",
"t 	c #20616F",
"u 	c #5A97A4",
"v 	c #95EEFE",
"w 	c #84E9FE",
"x 	c #75E7FF",
"y 	c #68E3FE",
"z 	c #58E2FF",
"A 	c #4CD4F0",
"B 	c #3D879A",
"C 	c #BFC7C8",
"D 	c #E3FBFE",
"E 	c #D1F7FE",
"F 	c #D2F7FE",
"G 	c #CFF8FE",
"H 	c #D1F5FE",
"I 	c #CAF9FE",
"J 	c #90BCC3",
"K 	c #226775",
"L 	c #044E5E",
"M 	c #3F6E77",
"N 	c #94EDFC",
"O 	c #7DE8FE",
"P 	c #6FE6FF",
"Q 	c #61E3FE",
"R 	c #54E1FF",
"S 	c #46DFFD",
"T 	c #39B1CC",
"U 	c #47696F",
"V 	c #DEF3F5",
"W 	c #C6F6FD",
"X 	c #C3F4FF",
"Y 	c #C3F5FF",
"Z 	c #C2F5FE",
"` 	c #BCF5FC",
" .	c #9AD0DA",
"..	c #265C6A",
"+.	c #064552",
"@.	c #10414D",
"#.	c #6C9397",
"$.	c #89EDFD",
"%.	c #68E5FF",
"&.	c #5AE3FF",
"*.	c #4EE0FF",
"=.	c #42DEFD",
"-.	c #34D5F4",
";.	c #286979",
">.	c #97A2A2",
",.	c #CFDEE1",
"'.	c #CFF7FE",
").	c #B0F2FE",
"!.	c #B6F1FF",
"~.	c #B6F4FF",
"{.	c #B7F2FE",
"].	c #B4F2FE",
"^.	c #A9F1FC",
"/.	c #99DEE5",
"(.	c #89C0C5",
"_.	c #85BDC6",
":.	c #81CDDA",
"<.	c #78E7FC",
"[.	c #6DE5FF",
"}.	c #61E3FF",
"|.	c #48DEFF",
"1.	c #3CDDFD",
"2.	c #2EDCFD",
"3.	c #268CA3",
"4.	c #3F5D62",
"5.	c #CCE8EB",
"6.	c #B4F3FE",
"7.	c #A2EFFF",
"8.	c #A7EFFE",
"9.	c #A7F0FF",
"0.	c #A7F0FE",
"a.	c #A6EFFF",
"b.	c #A1EEFD",
"c.	c #92DEEA",
"d.	c #89D2E0",
"e.	c #74BAC5",
"f.	c #5B9BA7",
"g.	c #5A969E",
"h.	c #76E7FC",
"i.	c #63E4FF",
"j.	c #4CE0FF",
"k.	c #41DEFF",
"l.	c #35DCFD",
"m.	c #2ADBFE",
"n.	c #20ACC9",
"o.	c #1A434C",
"p.	c #BBE8EE",
"q.	c #9CEEFE",
"r.	c #94ECFF",
"s.	c #98EDFF",
"t.	c #99EDFF",
"u.	c #9AEDFF",
"v.	c #96EEFD",
"w.	c #8DE0EE",
"x.	c #5E9CA6",
"y.	c #3E7F8D",
"z.	c #1D6776",
"A.	c #0C5464",
"B.	c #3A727A",
"C.	c #6FE7FD",
"D.	c #5AE2FE",
"E.	c #4FE1FF",
"F.	c #44DEFF",
"G.	c #39DDFE",
"H.	c #2DDBFD",
"I.	c #25D8FE",
"J.	c #1AC3E2",
"K.	c #0A3C44",
"L.	c #AEE9F2",
"M.	c #89EBFE",
"N.	c #84EAFF",
"O.	c #88EBFF",
"P.	c #89EAFF",
"Q.	c #8AEAFF",
"R.	c #87EBFF",
"S.	c #85E9FC",
"T.	c #73CFD8",
"U.	c #286B7C",
"V.	c #034F5E",
"W.	c #054D5E",
"X.	c #36727A",
"Y.	c #64E5FD",
"Z.	c #50E0FF",
"`.	c #45DFFF",
" +	c #3BDDFF",
".+	c #32DBFF",
"++	c #28DAFE",
"@+	c #1ED7FE",
"#+	c #15CAEF",
"$+	c #093D47",
"%+	c #9DE5F2",
"&+	c #7BE8FF",
"*+	c #79E7FF",
"=+	c #7AE8FF",
"-+	c #77E8FF",
";+	c #76E6FE",
">+	c #69D6E6",
",+	c #2F7886",
"'+	c #024F5E",
")+	c #034D5E",
"!+	c #32727B",
"~+	c #59E4FD",
"{+	c #45DFFE",
"]+	c #3CDDFF",
"^+	c #33DBFF",
"/+	c #2ADAFF",
"(+	c #21D8FF",
"_+	c #18D7FE",
":+	c #10C6EC",
"<+	c #053842",
"[+	c #88DDE9",
"}+	c #71E6FE",
"|+	c #66E4FF",
"1+	c #69E5FF",
"2+	c #6AE5FF",
"3+	c #6AE5FE",
"4+	c #66E5FE",
"5+	c #5ED2E8",
"6+	c #2D7785",
"7+	c #034E5E",
"8+	c #024D5E",
"9+	c #2E717C",
"0+	c #4DE3FD",
"a+	c #19D7FF",
"b+	c #12D6FD",
"c+	c #0BB3D3",
"d+	c #032F39",
"e+	c #7DD4E4",
"f+	c #68E5FE",
"g+	c #59E2FE",
"h+	c #5AE2FF",
"i+	c #5DE1FE",
"j+	c #5DE2FE",
"k+	c #59E2FF",
"l+	c #50D0E6",
"m+	c #2C7687",
"n+	c #024D5D",
"o+	c #2B717C",
"p+	c #43E0FD",
"q+	c #30DBFF",
"r+	c #29D9FF",
"s+	c #22D8FF",
"t+	c #1AD6FE",
"u+	c #12D6FE",
"v+	c #0CD5FD",
"w+	c #0390A9",
"x+	c #08303A",
"y+	c #80C4CC",
"z+	c #5DE4FD",
"A+	c #4ADFFF",
"B+	c #4AE0FC",
"C+	c #4BE0FE",
"D+	c #4DE0FD",
"E+	c #48DFFE",
"F+	c #44CDE5",
"G+	c #2A7585",
"H+	c #034F5F",
"I+	c #034D5D",
"J+	c #277279",
"K+	c #36DFFD",
"L+	c #26D9FF",
"M+	c #20D8FE",
"N+	c #19D7FE",
"O+	c #0DD4FD",
"P+	c #07D2F8",
"Q+	c #035D71",
"R+	c #304850",
"S+	c #C6D4D7",
"T+	c #3FD2E9",
"U+	c #40DEFD",
"V+	c #3EDDFE",
"W+	c #41DCFF",
"X+	c #3EDEFC",
"Y+	c #3DDDFE",
"Z+	c #33C9E0",
"`+	c #2A7687",
" @	c #024E5C",
".@	c #1F6D76",
"+@	c #2BDBF8",
"@@	c #1DD7FE",
"#@	c #16D6FF",
"$@	c #11D5FE",
"%@	c #0AD4FF",
"&@	c #06D3FD",
"*@	c #01AACD",
"=@	c #023740",
"-@	c #8B9192",
";@	c #63B1C5",
">@	c #30D3F2",
",@	c #30DBFE",
"'@	c #30DCFE",
")@	c #30DBFD",
"!@	c #31DAFE",
"~@	c #2DD5F4",
"{@	c #3A99AC",
"]@	c #2D6A76",
"^@	c #0B4855",
"/@	c #0C4758",
"(@	c #0D4B57",
"_@	c #2199B0",
":@	c #17D9FD",
"<@	c #0FD4FF",
"[@	c #0BD4FE",
"}@	c #04D3FF",
"|@	c #01C6EA",
"1@	c #025365",
"2@	c #274148",
"3@	c #2D96AD",
"4@	c #23C8E7",
"5@	c #25D8FD",
"6@	c #25D9FD",
"7@	c #24D8FF",
"8@	c #20D5F7",
"9@	c #38CBDD",
"0@	c #40CAD5",
"a@	c #3FCAD5",
"b@	c #3BCAD5",
"c@	c #39C9D4",
"d@	c #35D2E6",
"e@	c #0CD6FC",
"f@	c #06D4FE",
"g@	c #03D4FE",
"h@	c #02C9F2",
"i@	c #016F88",
"j@	c #0B3238",
"k@	c #AEB1B3",
"l@	c #B4C1C4",
"m@	c #20748B",
"n@	c #1AA9C8",
"o@	c #19D2F8",
"p@	c #1AD7FE",
"q@	c #17D7FD",
"r@	c #13D8FC",
"s@	c #11D4FF",
"t@	c #0FD3FF",
"u@	c #0AD3FE",
"v@	c #07D3FE",
"w@	c #02D3FD",
"x@	c #03C2E9",
"y@	c #01667C",
"z@	c #09313E",
"A@	c #878D8F",
"B@	c #A9B1B3",
"C@	c #24525E",
"D@	c #0E778F",
"E@	c #0EB2D2",
"F@	c #0FCFF6",
"G@	c #0ED4FD",
"H@	c #0AD6FD",
"I@	c #09D4FE",
"J@	c #06D4FD",
"K@	c #02D5FE",
"L@	c #01C9EF",
"M@	c #0199B7",
"N@	c #014D5E",
"O@	c #0E333B",
"P@	c #848C8C",
"Q@	c #496064",
"R@	c #0A3B43",
"S@	c #04586B",
"T@	c #04849E",
"U@	c #04A2C0",
"V@	c #03AECE",
"W@	c #01ADD0",
"X@	c #029CBD",
"Y@	c #017893",
"Z@	c #024859",
"`@	c #053037",
" #	c #334A4E",
".#	c #B9BBBC",
"+#	c #C8CBCC",
"@#	c #657477",
"##	c #1D3941",
"$#	c #032B35",
"%#	c #012C35",
"&#	c #012C33",
"*#	c #032B33",
"=#	c #13343A",
"-#	c #536163",
";#	c #B2B6BA",
"              . + @ # $ % & * =             ",
"          - - ; > , ' ) ! ~ { ] ^           ",
"      - / ( _ : < [ } | ~ 1 2 3 4 5 6       ",
"    - / / 7 8 9 0 a b c d e f g h i j k     ",
"    / l m n o p q r s t u v w x y z A B C   ",
"  - D E F G H I J K L L M N O P Q R S T U   ",
"  V W X Y Y Z `  ...+.@.#.$.x %.&.*.=.-.;.>.",
",.'.).!.~.{.].).^./.(._.:.<.[.}.R |.1.2.3.4.",
"5.6.7.8.9.0.a.b.c.d.e.f.g.h.i.z j.k.l.m.n.o.",
"p.q.r.s.t.u.v.w.x.y.z.A.B.C.D.E.F.G.H.I.J.K.",
"L.M.N.O.P.Q.R.S.T.U.V.W.X.Y.Z.`. +.+++@+#+$+",
"%+&+x *+=+&+-+;+>+,+'+)+!+~+{+]+^+/+(+_+:+<+",
"[+}+|+1+2+3+%.4+5+6+7+8+9+0+ +.+/+(+a+b+c+d+",
"e+f+g+h+i+j+h+k+l+m+V.n+o+p+q+r+s+t+u+v+w+x+",
"y+z+A+B+C+D+C+E+F+G+H+I+J+K+L+M+N+u+O+P+Q+R+",
"S+T+U+V+W+X+Y+Y+Z+`+ @8+.@+@@@#@$@%@&@*@=@-@",
"  ;@>@,@'@)@!@~@{@]@^@/@(@_@:@<@[@}@|@1@2@  ",
"    3@4@5@6@7@8@9@0@a@b@c@d@e@f@g@h@i@j@k@  ",
"    l@m@n@o@p@q@r@b+s@t@u@v@&@w@x@y@z@A@    ",
"      B@C@D@E@F@G@H@I@J@K@w@L@M@N@O@P@      ",
"          Q@R@S@T@U@V@W@X@Y@Z@`@ #.#        ",
"            +#@###$#%#&#*#=#-#;#            "};
