/* XPM */
static const char * songinfo_xpm[] = {
"22 22 419 2",
"  	c None",
". 	c #FFFFFF",
"+ 	c #FDFDFD",
"@ 	c #F0F1F1",
"# 	c #EBEEEE",
"$ 	c #E3EAEB",
"% 	c #E0EDEE",
"& 	c #DDF3F5",
"* 	c #D3F2F4",
"= 	c #C1E8EB",
"- 	c #B6DEE4",
"; 	c #BEDEE4",
"> 	c #D9E5E8",
", 	c #F9FBFA",
"' 	c #FEFFFD",
") 	c #FFFEFF",
"! 	c #FEFEFE",
"~ 	c #F5F5F5",
"{ 	c #E7E9E9",
"] 	c #F6F7F8",
"^ 	c #F4FDFE",
"/ 	c #E6FCFE",
"( 	c #DAF8FF",
"_ 	c #CCF5FF",
": 	c #BEF3FE",
"< 	c #B2F2FE",
"[ 	c #AAF0FD",
"} 	c #A3EFFD",
"| 	c #8EE6F5",
"1 	c #89CDD8",
"2 	c #D7E4E6",
"3 	c #FEFEFC",
"4 	c #FEFEFD",
"5 	c #FBFEFD",
"6 	c #FEFFFF",
"7 	c #ECECEA",
"8 	c #F9FDFD",
"9 	c #EFFCFE",
"0 	c #E5FAFE",
"a 	c #DDF8FF",
"b 	c #D0F7FF",
"c 	c #C5F6FD",
"d 	c #B5F4FE",
"e 	c #99EDFD",
"f 	c #8BEBFC",
"g 	c #81E8FF",
"h 	c #75E7FD",
"i 	c #62CDE2",
"j 	c #A9C4CC",
"k 	c #FEFEFF",
"l 	c #ECECED",
"m 	c #EFF4F4",
"n 	c #F0FDFE",
"o 	c #EBFCFE",
"p 	c #E2FBFE",
"q 	c #DFF9FE",
"r 	c #D3FAFC",
"s 	c #B3DADF",
"t 	c #92BFC8",
"u 	c #94C8D2",
"v 	c #A2EBF5",
"w 	c #96EDFE",
"x 	c #87EAFD",
"y 	c #7AE8FD",
"z 	c #69E6FD",
"A 	c #5DE0FB",
"B 	c #4DB7CC",
"C 	c #A4B7BA",
"D 	c #FFFEFD",
"E 	c #FDFEFE",
"F 	c #F1F3F1",
"G 	c #E8F0F0",
"H 	c #E7FBFE",
"I 	c #DEF9FE",
"J 	c #DCF9FF",
"K 	c #DAF9FE",
"L 	c #D4F9FD",
"M 	c #B8DDE3",
"N 	c #679CA5",
"O 	c #297180",
"P 	c #20616F",
"Q 	c #5A97A4",
"R 	c #95EEFE",
"S 	c #84E9FE",
"T 	c #75E7FF",
"U 	c #68E3FE",
"V 	c #58E2FF",
"W 	c #4CD4F0",
"X 	c #3D879A",
"Y 	c #BFC7C8",
"Z 	c #FCFCFD",
"` 	c #DDE5E5",
" .	c #E3FBFE",
"..	c #D1F7FE",
"+.	c #D2F7FE",
"@.	c #CFF8FE",
"#.	c #D1F5FE",
"$.	c #CAF9FE",
"%.	c #90BCC3",
"&.	c #226775",
"*.	c #044E5E",
"=.	c #3F6E77",
"-.	c #94EDFC",
";.	c #7DE8FE",
">.	c #6FE6FF",
",.	c #61E3FE",
"'.	c #54E1FF",
").	c #46DFFD",
"!.	c #39B1CC",
"~.	c #47696F",
"{.	c #F2F2F3",
"].	c #E3E9E9",
"^.	c #DEF3F5",
"/.	c #C6F6FD",
"(.	c #C3F4FF",
"_.	c #C3F5FF",
":.	c #C2F5FE",
"<.	c #BCF5FC",
"[.	c #9AD0DA",
"}.	c #265C6A",
"|.	c #064552",
"1.	c #10414D",
"2.	c #6C9397",
"3.	c #89EDFD",
"4.	c #68E5FF",
"5.	c #5AE3FF",
"6.	c #4EE0FF",
"7.	c #42DEFD",
"8.	c #34D5F4",
"9.	c #286979",
"0.	c #97A2A2",
"a.	c #CFDEE1",
"b.	c #CFF7FE",
"c.	c #B0F2FE",
"d.	c #B6F1FF",
"e.	c #B6F4FF",
"f.	c #B7F2FE",
"g.	c #B4F2FE",
"h.	c #A9F1FC",
"i.	c #99DEE5",
"j.	c #89C0C5",
"k.	c #85BDC6",
"l.	c #81CDDA",
"m.	c #78E7FC",
"n.	c #6DE5FF",
"o.	c #61E3FF",
"p.	c #48DEFF",
"q.	c #3CDDFD",
"r.	c #2EDCFD",
"s.	c #268CA3",
"t.	c #3F5D62",
"u.	c #CCE8EB",
"v.	c #B4F3FE",
"w.	c #A2EFFF",
"x.	c #A7EFFE",
"y.	c #A7F0FF",
"z.	c #A7F0FE",
"A.	c #A6EFFF",
"B.	c #A1EEFD",
"C.	c #92DEEA",
"D.	c #89D2E0",
"E.	c #74BAC5",
"F.	c #5B9BA7",
"G.	c #5A969E",
"H.	c #76E7FC",
"I.	c #63E4FF",
"J.	c #4CE0FF",
"K.	c #41DEFF",
"L.	c #35DCFD",
"M.	c #2ADBFE",
"N.	c #20ACC9",
"O.	c #1A434C",
"P.	c #BBE8EE",
"Q.	c #9CEEFE",
"R.	c #94ECFF",
"S.	c #98EDFF",
"T.	c #99EDFF",
"U.	c #9AEDFF",
"V.	c #96EEFD",
"W.	c #8DE0EE",
"X.	c #5E9CA6",
"Y.	c #3E7F8D",
"Z.	c #1D6776",
"`.	c #0C5464",
" +	c #3A727A",
".+	c #6FE7FD",
"++	c #5AE2FE",
"@+	c #4FE1FF",
"#+	c #44DEFF",
"$+	c #39DDFE",
"%+	c #2DDBFD",
"&+	c #25D8FE",
"*+	c #1AC3E2",
"=+	c #0A3C44",
"-+	c #AEE9F2",
";+	c #89EBFE",
">+	c #84EAFF",
",+	c #88EBFF",
"'+	c #89EAFF",
")+	c #8AEAFF",
"!+	c #87EBFF",
"~+	c #85E9FC",
"{+	c #73CFD8",
"]+	c #286B7C",
"^+	c #034F5E",
"/+	c #054D5E",
"(+	c #36727A",
"_+	c #64E5FD",
":+	c #50E0FF",
"<+	c #45DFFF",
"[+	c #3BDDFF",
"}+	c #32DBFF",
"|+	c #28DAFE",
"1+	c #1ED7FE",
"2+	c #15CAEF",
"3+	c #093D47",
"4+	c #9DE5F2",
"5+	c #7BE8FF",
"6+	c #79E7FF",
"7+	c #7AE8FF",
"8+	c #77E8FF",
"9+	c #76E6FE",
"0+	c #69D6E6",
"a+	c #2F7886",
"b+	c #024F5E",
"c+	c #034D5E",
"d+	c #32727B",
"e+	c #59E4FD",
"f+	c #45DFFE",
"g+	c #3CDDFF",
"h+	c #33DBFF",
"i+	c #2ADAFF",
"j+	c #21D8FF",
"k+	c #18D7FE",
"l+	c #10C6EC",
"m+	c #053842",
"n+	c #88DDE9",
"o+	c #71E6FE",
"p+	c #66E4FF",
"q+	c #69E5FF",
"r+	c #6AE5FF",
"s+	c #6AE5FE",
"t+	c #66E5FE",
"u+	c #5ED2E8",
"v+	c #2D7785",
"w+	c #034E5E",
"x+	c #024D5E",
"y+	c #2E717C",
"z+	c #4DE3FD",
"A+	c #19D7FF",
"B+	c #12D6FD",
"C+	c #0BB3D3",
"D+	c #032F39",
"E+	c #7DD4E4",
"F+	c #68E5FE",
"G+	c #59E2FE",
"H+	c #5AE2FF",
"I+	c #5DE1FE",
"J+	c #5DE2FE",
"K+	c #59E2FF",
"L+	c #50D0E6",
"M+	c #2C7687",
"N+	c #024D5D",
"O+	c #2B717C",
"P+	c #43E0FD",
"Q+	c #30DBFF",
"R+	c #29D9FF",
"S+	c #22D8FF",
"T+	c #1AD6FE",
"U+	c #12D6FE",
"V+	c #0CD5FD",
"W+	c #0390A9",
"X+	c #08303A",
"Y+	c #80C4CC",
"Z+	c #5DE4FD",
"`+	c #4ADFFF",
" @	c #4AE0FC",
".@	c #4BE0FE",
"+@	c #4DE0FD",
"@@	c #48DFFE",
"#@	c #44CDE5",
"$@	c #2A7585",
"%@	c #034F5F",
"&@	c #034D5D",
"*@	c #277279",
"=@	c #36DFFD",
"-@	c #26D9FF",
";@	c #20D8FE",
">@	c #19D7FE",
",@	c #0DD4FD",
"'@	c #07D2F8",
")@	c #035D71",
"!@	c #304850",
"~@	c #C6D4D7",
"{@	c #3FD2E9",
"]@	c #40DEFD",
"^@	c #3EDDFE",
"/@	c #41DCFF",
"(@	c #3EDEFC",
"_@	c #3DDDFE",
":@	c #33C9E0",
"<@	c #2A7687",
"[@	c #024E5C",
"}@	c #1F6D76",
"|@	c #2BDBF8",
"1@	c #1DD7FE",
"2@	c #16D6FF",
"3@	c #11D5FE",
"4@	c #0AD4FF",
"5@	c #06D3FD",
"6@	c #01AACD",
"7@	c #023740",
"8@	c #8B9192",
"9@	c #FCFBF9",
"0@	c #63B1C5",
"a@	c #30D3F2",
"b@	c #30DBFE",
"c@	c #30DCFE",
"d@	c #30DBFD",
"e@	c #31DAFE",
"f@	c #2DD5F4",
"g@	c #3A99AC",
"h@	c #2D6A76",
"i@	c #0B4855",
"j@	c #0C4758",
"k@	c #0D4B57",
"l@	c #2199B0",
"m@	c #17D9FD",
"n@	c #0FD4FF",
"o@	c #0BD4FE",
"p@	c #04D3FF",
"q@	c #01C6EA",
"r@	c #025365",
"s@	c #274148",
"t@	c #EEEDEC",
"u@	c #D4DCDB",
"v@	c #2D96AD",
"w@	c #23C8E7",
"x@	c #25D8FD",
"y@	c #25D9FD",
"z@	c #24D8FF",
"A@	c #20D5F7",
"B@	c #38CBDD",
"C@	c #40CAD5",
"D@	c #3FCAD5",
"E@	c #3BCAD5",
"F@	c #39C9D4",
"G@	c #35D2E6",
"H@	c #0CD6FC",
"I@	c #06D4FE",
"J@	c #03D4FE",
"K@	c #02C9F2",
"L@	c #016F88",
"M@	c #0B3238",
"N@	c #AEB1B3",
"O@	c #FEFFFE",
"P@	c #B4C1C4",
"Q@	c #20748B",
"R@	c #1AA9C8",
"S@	c #19D2F8",
"T@	c #1AD7FE",
"U@	c #17D7FD",
"V@	c #13D8FC",
"W@	c #11D4FF",
"X@	c #0FD3FF",
"Y@	c #0AD3FE",
"Z@	c #07D3FE",
"`@	c #02D3FD",
" #	c #03C2E9",
".#	c #01667C",
"+#	c #09313E",
"@#	c #878D8F",
"##	c #FEFDFE",
"$#	c #A9B1B3",
"%#	c #24525E",
"&#	c #0E778F",
"*#	c #0EB2D2",
"=#	c #0FCFF6",
"-#	c #0ED4FD",
";#	c #0AD6FD",
">#	c #09D4FE",
",#	c #06D4FD",
"'#	c #02D5FE",
")#	c #01C9EF",
"!#	c #0199B7",
"~#	c #014D5E",
"{#	c #0E333B",
"]#	c #848C8C",
"^#	c #FBFCFB",
"/#	c #FDFFFE",
"(#	c #FFFFFE",
"_#	c #FEFDFD",
":#	c #FCFEFD",
"<#	c #D3D9D9",
"[#	c #496064",
"}#	c #0A3B43",
"|#	c #04586B",
"1#	c #04849E",
"2#	c #04A2C0",
"3#	c #03AECE",
"4#	c #01ADD0",
"5#	c #029CBD",
"6#	c #017893",
"7#	c #024859",
"8#	c #053037",
"9#	c #334A4E",
"0#	c #B9BBBC",
"a#	c #FCFEFE",
"b#	c #C8CBCC",
"c#	c #657477",
"d#	c #1D3941",
"e#	c #032B35",
"f#	c #012C35",
"g#	c #012C33",
"h#	c #032B33",
"i#	c #13343A",
"j#	c #536163",
"k#	c #B2B6BA",
"l#	c #FBF9FA",
". . . . . + @ # $ % & * = - ; > , ' . . . . ",
". . ) ! ~ { ] ^ / ( _ : < [ } | 1 2 3 4 5 4 ",
". 6 6 7 @ 8 9 0 a b c d [ e f g h i j 3 k ! ",
". ) l m n o p q r s t u v w x y z A B C D E ",
". F G H I J K L M N O P Q R S T U V W X Y 4 ",
"Z `  ...+.@.#.$.%.&.*.*.=.-.;.>.,.'.).!.~.{.",
"].^./.(._._.:.<.[.}.|.1.2.3.T 4.5.6.7.8.9.0.",
"a.b.c.d.e.f.g.c.h.i.j.k.l.m.n.o.'.p.q.r.s.t.",
"u.v.w.x.y.z.A.B.C.D.E.F.G.H.I.V J.K.L.M.N.O.",
"P.Q.R.S.T.U.V.W.X.Y.Z.`. +.+++@+#+$+%+&+*+=+",
"-+;+>+,+'+)+!+~+{+]+^+/+(+_+:+<+[+}+|+1+2+3+",
"4+5+T 6+7+5+8+9+0+a+b+c+d+e+f+g+h+i+j+k+l+m+",
"n+o+p+q+r+s+4.t+u+v+w+x+y+z+[+}+i+j+A+B+C+D+",
"E+F+G+H+I+J+H+K+L+M+^+N+O+P+Q+R+S+T+U+V+W+X+",
"Y+Z+`+ @.@+@.@@@#@$@%@&@*@=@-@;@>@U+,@'@)@!@",
"~@{@]@^@/@(@_@_@:@<@[@x+}@|@1@2@3@4@5@6@7@8@",
"9@0@a@b@c@d@e@f@g@h@i@j@k@l@m@n@o@p@q@r@s@t@",
"6 u@v@w@x@y@z@A@B@C@D@E@F@G@H@I@J@K@L@M@N@D ",
". O@P@Q@R@S@T@U@V@B+W@X@Y@Z@5@`@ #.#+#@#+ O@",
". O@##$#%#&#*#=#-#;#>#,#'#`@)#!#~#{#]#^#D /#",
". (#_#:#<#[#}#|#1#2#3#4#5#6#7#8#9#0#O@4 ) a#",
". . 6 (#) 4 b#c#d#e#f#g#h#i#j#k#l#O@(#6 (#. "};
