/* XPM */
static const char * stopPrelisten_xpm[] = {
"22 21 418 2",
"  	c None",
". 	c #FFFFFF",
"+ 	c #FFFFFE",
"@ 	c #FEFEFD",
"# 	c #FEFEFE",
"$ 	c #FCFCFC",
"% 	c #ECECED",
"& 	c #E9E8E6",
"* 	c #EEEDE6",
"= 	c #F8F4E8",
"- 	c #FAF1DE",
"; 	c #FAEDD3",
"> 	c #F4E2C4",
", 	c #E3D3B1",
"' 	c #DBCFB6",
") 	c #E8E7DF",
"! 	c #FCFEFE",
"~ 	c #FEFEFB",
"{ 	c #FDFEFE",
"] 	c #FEFEFF",
"^ 	c #EFEFEF",
"/ 	c #EDEDEC",
"( 	c #FBFAF8",
"_ 	c #FEFAF1",
": 	c #FDF3E2",
"< 	c #FEEFD5",
"[ 	c #FDE8C7",
"} 	c #FCE2BA",
"| 	c #FEDDAC",
"1 	c #FEDAA2",
"2 	c #FCD89D",
"3 	c #F2C787",
"4 	c #D7BC8D",
"5 	c #ECECE9",
"6 	c #FEFFFF",
"7 	c #FDFDFD",
"8 	c #E8E8E8",
"9 	c #F8F7F4",
"0 	c #FEFCF5",
"a 	c #FDF8ED",
"b 	c #FEF4E2",
"c 	c #FEEFD8",
"d 	c #FEEBCC",
"e 	c #FFE5C0",
"f 	c #FDE0B1",
"g 	c #FCDBA5",
"h 	c #FCD496",
"i 	c #FCCF86",
"j 	c #F9CB7A",
"k 	c #FCC36E",
"l 	c #D1A560",
"m 	c #D6D1C8",
"n 	c #FFFEFF",
"o 	c #E7E6E5",
"p 	c #FAF8F3",
"q 	c #FDF8EA",
"r 	c #FDF3E4",
"s 	c #FFF1DD",
"t 	c #FEECD3",
"u 	c #FEE9C7",
"v 	c #FEE4BB",
"w 	c #FCDEAD",
"x 	c #FDD99F",
"y 	c #FDD28F",
"z 	c #FDCD82",
"A 	c #FBC673",
"B 	c #FBC265",
"C 	c #F4B659",
"D 	c #AE894A",
"E 	c #D3CFCA",
"F 	c #FEFFFE",
"G 	c #E9E9E7",
"H 	c #F7F5EB",
"I 	c #FEF3E1",
"J 	c #E9DECC",
"K 	c #807A75",
"L 	c #989284",
"M 	c #FAEBCE",
"N 	c #FEEAC8",
"O 	c #FCE6BE",
"P 	c #FDE0B5",
"Q 	c #FCDDA7",
"R 	c #FCD699",
"S 	c #FDD18D",
"T 	c #DEB772",
"U 	c #79694F",
"V 	c #A17E41",
"W 	c #FCBB52",
"X 	c #E0A144",
"Y 	c #7D6646",
"Z 	c #E4E5E3",
"` 	c #F7F8F7",
" .	c #EAE8DF",
"..	c #FDF0DA",
"+.	c #FDEBCC",
"@.	c #EBDBC1",
"#.	c #5C554C",
"$.	c #0C0B0B",
"%.	c #908673",
"&.	c #F9E2BC",
"*.	c #FEE2B4",
"=.	c #FDDDA6",
"-.	c #FDD99D",
";.	c #FDD393",
">.	c #DDB675",
",.	c #786E60",
"'.	c #2A2E2F",
").	c #B8A374",
"!.	c #FDB84D",
"~.	c #F6B13F",
"{.	c #A07431",
"].	c #898478",
"^.	c #FEFDFF",
"/.	c #E7E5E2",
"(.	c #FCF0DB",
"_.	c #FEE4BF",
":.	c #FCE5BD",
"<.	c #FDE5BF",
"[.	c #EDDBB6",
"}.	c #574E40",
"|.	c #0F0B0A",
"1.	c #928569",
"2.	c #F8DAA9",
"3.	c #FDD8A1",
"4.	c #FCD495",
"5.	c #DBB97E",
"6.	c #756E63",
"7.	c #2B2B2E",
"8.	c #BAA678",
"9.	c #FCBF56",
"0.	c #FAB547",
"a.	c #FAB03B",
"b.	c #D6962F",
"c.	c #554321",
"d.	c #DEDCDD",
"e.	c #DFD8CB",
"f.	c #FEE8C3",
"g.	c #FCDEAB",
"h.	c #FDDFAE",
"i.	c #FEDFB3",
"j.	c #FDE0AF",
"k.	c #F1D7AA",
"l.	c #5C513C",
"m.	c #0C0909",
"n.	c #8A7653",
"o.	c #F7D292",
"p.	c #DAB879",
"q.	c #726A5F",
"r.	c #C3AF80",
"s.	c #FDC05D",
"t.	c #FAB74F",
"u.	c #FBB241",
"v.	c #FBAD33",
"w.	c #F6A629",
"x.	c #714F1E",
"y.	c #979189",
"z.	c #E8DBC0",
"A.	c #FCDCA8",
"B.	c #FED89B",
"C.	c #FED9A0",
"D.	c #FCDAA2",
"E.	c #FCD9A1",
"F.	c #FDD99E",
"G.	c #F2D195",
"H.	c #5F513A",
"I.	c #0B0907",
"J.	c #6F5D43",
"K.	c #6F695C",
"L.	c #2F2E2E",
"M.	c #C9B782",
"N.	c #FAC05E",
"O.	c #FBB850",
"P.	c #FAB445",
"Q.	c #FBB03A",
"R.	c #FAAB2D",
"S.	c #FAA824",
"T.	c #8B5F18",
"U.	c #706654",
"V.	c #F4DDB4",
"W.	c #FDD390",
"X.	c #FCD18C",
"Y.	c #FDD392",
"Z.	c #FCD391",
"`.	c #FAD18D",
" +	c #F4CB85",
".+	c #5A4C31",
"++	c #121113",
"@+	c #21201F",
"#+	c #C8B681",
"$+	c #FAC05D",
"%+	c #FBBA52",
"&+	c #FBB547",
"*+	c #FAB13C",
"=+	c #FAAB32",
"-+	c #FAA827",
";+	c #FCA41D",
">+	c #9C6811",
",+	c #574833",
"'+	c #F5D7A4",
")+	c #FDCB7D",
"!+	c #FCCB7E",
"~+	c #FCCC80",
"{+	c #FCCC82",
"]+	c #FCCC81",
"^+	c #FCCB7F",
"/+	c #FCCC7B",
"(+	c #D1AA69",
"_+	c #6A625A",
":+	c #171918",
"<+	c #0C0C08",
"[+	c #7B5A2A",
"}+	c #F6B651",
"|+	c #FCB445",
"1+	c #FAB13E",
"2+	c #FAAD34",
"3+	c #FBA92A",
"4+	c #FAA620",
"5+	c #FBA216",
"6+	c #9F670F",
"7+	c #4A3925",
"8+	c #F2CD93",
"9+	c #FCC66D",
"0+	c #FCC56F",
"a+	c #FCC572",
"b+	c #FAC672",
"c+	c #FBC672",
"d+	c #FDC66F",
"e+	c #CFA663",
"f+	c #676158",
"g+	c #343232",
"h+	c #CDB57D",
"i+	c #775929",
"j+	c #090704",
"k+	c #715221",
"l+	c #F3AE3C",
"m+	c #FAAD35",
"n+	c #FBAA2B",
"o+	c #F9A622",
"p+	c #F9A21A",
"q+	c #FAA10F",
"r+	c #925B0B",
"s+	c #4F412F",
"t+	c #DFBA78",
"u+	c #FBC26A",
"v+	c #F9C05D",
"w+	c #FBBF60",
"x+	c #FCBF62",
"y+	c #FDC063",
"z+	c #CEA257",
"A+	c #675E56",
"B+	c #343635",
"C+	c #D3BA78",
"D+	c #FBBA4D",
"E+	c #F6B248",
"F+	c #77571F",
"G+	c #090603",
"H+	c #6D4D14",
"I+	c #F4A629",
"J+	c #FBA522",
"K+	c #FCA31B",
"L+	c #FAA00F",
"M+	c #F89E0D",
"N+	c #754904",
"O+	c #66584B",
"P+	c #CDAE75",
"Q+	c #FCC063",
"R+	c #FCB84D",
"S+	c #FBB951",
"T+	c #FABB55",
"U+	c #CA9D4B",
"V+	c #625D55",
"W+	c #3A3936",
"X+	c #DDBB6A",
"Y+	c #FCB548",
"Z+	c #FAB342",
"`+	c #FAB13B",
" @	c #F5AB36",
".@	c #7E5718",
"+@	c #0B0605",
"@@	c #63420E",
"#@	c #F39F1A",
"$@	c #F8A010",
"%@	c #F99E0C",
"&@	c #EA9006",
"*@	c #482F01",
"=@	c #8C837A",
"-@	c #D3C6AF",
";@	c #F6B74F",
">@	c #FCB344",
",@	c #F8B442",
"'@	c #D99B3D",
")@	c #4F4C3F",
"!@	c #383935",
"~@	c #DAB766",
"{@	c #FBB23F",
"]@	c #FAAF3C",
"^@	c #F8AE35",
"/@	c #FBAC30",
"(@	c #FAA92B",
"_@	c #F6A624",
":@	c #82540E",
"<@	c #0A0701",
"[@	c #855E1B",
"}@	c #FB9F0E",
"|@	c #FA9A07",
"1@	c #9E6104",
"2@	c #332109",
"3@	c #D0D1D3",
"4@	c #F2F2F1",
"5@	c #CB953D",
"6@	c #FAAE37",
"7@	c #FBAD34",
"8@	c #F9AB34",
"9@	c #B78835",
"0@	c #E4B55B",
"a@	c #FAAE33",
"b@	c #F9AB30",
"c@	c #F9AC2D",
"d@	c #FBA729",
"e@	c #F9A724",
"f@	c #FBA51E",
"g@	c #FBA21C",
"h@	c #F7A014",
"i@	c #B58222",
"j@	c #E7A934",
"k@	c #F99B03",
"l@	c #DF8901",
"m@	c #4A2D02",
"n@	c #6E685D",
"o@	c #FEFEFC",
"p@	c #C8C3B2",
"q@	c #C58623",
"r@	c #F2A428",
"s@	c #FCA928",
"t@	c #FBA829",
"u@	c #FAA728",
"v@	c #FAA726",
"w@	c #F9A723",
"x@	c #FAA420",
"y@	c #FCA41C",
"z@	c #FAA11A",
"A@	c #F9A213",
"B@	c #FA9F10",
"C@	c #F79E0D",
"D@	c #F89C07",
"E@	c #F99A02",
"F@	c #E88F04",
"G@	c #673D03",
"H@	c #3B2B18",
"I@	c #DDDBDA",
"J@	c #FDFFFE",
"K@	c #A1947A",
"L@	c #A36C1A",
"M@	c #E1971C",
"N@	c #FAA31C",
"O@	c #F9A51A",
"P@	c #F9A419",
"Q@	c #FBA218",
"R@	c #FAA214",
"S@	c #F8A115",
"T@	c #F9A011",
"U@	c #FB9C0C",
"V@	c #F99B09",
"W@	c #FA9904",
"X@	c #FA9902",
"Y@	c #E48A01",
"Z@	c #714501",
"`@	c #38240C",
" #	c #B5B3B0",
".#	c #FDFEFF",
"+#	c #FFFEFC",
"@#	c #FEFFFC",
"##	c #FAFBFC",
"$#	c #8E887A",
"%#	c #644311",
"&#	c #AF7013",
"*#	c #EA960F",
"=#	c #FC9E11",
"-#	c #FA9E0E",
";#	c #F79E0B",
">#	c #FA9C09",
",#	c #F99C06",
"'#	c #F99A06",
")#	c #FB9B02",
"!#	c #F29501",
"~#	c #B26E02",
"{#	c #543301",
"]#	c #3C2B16",
"^#	c #AFACAA",
"/#	c #FEFFFD",
"(#	c #B1AFAA",
"_#	c #493D26",
":#	c #503207",
"<#	c #895808",
"[#	c #C07705",
"}#	c #DA8605",
"|#	c #E18B02",
"1#	c #DE8901",
"2#	c #CB7C02",
"3#	c #9A5E01",
"4#	c #563502",
"5#	c #362004",
"6#	c #544A3D",
"7#	c #D2D1D2",
"8#	c #FFFEFE",
"9#	c #F4F4F3",
"0#	c #A5A19D",
"a#	c #564A3C",
"b#	c #3B2A0F",
"c#	c #341F01",
"d#	c #331C02",
"e#	c #321C01",
"f#	c #312003",
"g#	c #3F3018",
"h#	c #635A51",
"i#	c #BBBAB7",
"j#	c #FCFCFB",
"k#	c #FFFEFD",
"          $ % & * = - ; > , ' ) !           ",
"      ] ^ / ( _ : < [ } | 1 2 3 4 5         ",
"    7 8 9 0 a b c d e f g h i j k l m       ",
"    o p q r b s t u v w x y z A B C D E {   ",
"  G H I J K L M N O P Q R S T U V W X Y Z n ",
"`  ...+.@.#.$.%.&.*.=.-.;.>.,.'.).!.~.{.].^.",
"/.(._.:.<.[.}.|.1.2.3.4.5.6.7.8.9.0.a.b.c.d.",
"e.f.g.h.i.j.k.l.m.n.o.p.q.7.r.s.t.u.v.w.x.y.",
"z.A.B.C.D.E.F.G.H.I.J.K.L.M.N.O.P.Q.R.S.T.U.",
"V.W.X.W.Y.Z.W.`. +.+++@+#+$+%+&+*+=+-+;+>+,+",
"'+)+!+~+{+]+^+/+(+_+:+<+[+}+|+1+2+3+4+5+6+7+",
"8+9+0+a+b+c+d+e+f+g+h+i+j+k+l+m+n+o+p+q+r+s+",
"t+u+v+w+x+y+z+A+B+C+D+E+F+G+H+I+J+K+L+M+N+O+",
"P+Q+R+S+T+U+V+W+X+Y+Z+`+ @.@+@@@#@$@%@&@*@=@",
"-@;@>@,@'@)@!@~@{@]@^@/@(@_@:@<@[@}@|@1@2@3@",
"4@5@6@7@8@9@0@a@b@c@d@e@f@g@h@i@j@k@l@m@n@o@",
"n p@q@r@s@t@u@v@w@x@y@z@A@B@C@D@E@F@G@H@I@# ",
"J@@ K@L@M@N@O@P@Q@R@S@T@U@V@W@X@Y@Z@`@ #.#@ ",
"  @###$#%#&#*#=#-#;#>#,#'#)#!#~#{#]#^#F     ",
"      n (#_#:#<#[#}#|#1#2#3#4#5#6#7#@#n     ",
"        + 9#0#a#b#c#d#e#f#g#h#i#j#k##       "};
