/* XPM */
static const char * toFromPlaylist_xpm[] = {
"22 22 328 2",
"  	c None",
". 	c #F8F8F8",
"+ 	c #EAEBEB",
"@ 	c #E5EAEB",
"# 	c #DDE9EA",
"$ 	c #D6E9EC",
"% 	c #CCE7EB",
"& 	c #C1E1E6",
"* 	c #BFDFE4",
"= 	c #CCE0E1",
"- 	c #FBFCFC",
"; 	c #E9E9E9",
"> 	c #EFF1F1",
", 	c #F5FDFF",
"' 	c #EAFBFF",
") 	c #DCF9FF",
"! 	c #CDF6FF",
"~ 	c #C1F4FF",
"{ 	c #B6F2FF",
"] 	c #ADF1FF",
"^ 	c #A3EFFE",
"/ 	c #8ADAE8",
"( 	c #ACD3D9",
"_ 	c #F5F5F5",
": 	c #E9EBEB",
"< 	c #FAFEFF",
"[ 	c #F1FDFF",
"} 	c #E6FBFF",
"| 	c #D0F7FF",
"1 	c #C3F4FF",
"2 	c #A7EFFF",
"3 	c #98EDFF",
"4 	c #8BEAFF",
"5 	c #82E9FF",
"6 	c #71E6FE",
"7 	c #71BECF",
"8 	c #F3F4F4",
"9 	c #EAEEEE",
"0 	c #F3FDFF",
"a 	c #EAFCFF",
"b 	c #E5FBFF",
"c 	c #DEF9FF",
"d 	c #D5F8FF",
"e 	c #CAF6FF",
"f 	c #BEF4FF",
"g 	c #B1F1FF",
"h 	c #A3EFFF",
"i 	c #95ECFF",
"j 	c #85E9FF",
"k 	c #76E7FF",
"l 	c #69E5FF",
"m 	c #5ADAF6",
"n 	c #57A3B3",
"o 	c #FBFBFB",
"p 	c #E3E9EA",
"q 	c #EBFCFF",
"r 	c #DFFAFF",
"s 	c #DBF9FF",
"t 	c #D5F7FF",
"u 	c #B7F3FF",
"v 	c #AAEFFE",
"w 	c #81C2D0",
"x 	c #8CE7FA",
"y 	c #81E9FF",
"z 	c #72E6FF",
"A 	c #63E3FF",
"B 	c #55E1FF",
"C 	c #47C2DD",
"D 	c #56848D",
"E 	c #E0E5E5",
"F 	c #E8FBFF",
"G 	c #D2F7FF",
"H 	c #BAF3FF",
"I 	c #AFF1FF",
"J 	c #A0E9F8",
"K 	c #417C88",
"L 	c #2A6976",
"M 	c #55A6B7",
"N 	c #6AE0F9",
"O 	c #5EE3FF",
"P 	c #50E0FF",
"Q 	c #43DAFA",
"R 	c #358DA0",
"S 	c #8A999C",
"T 	c #DBECEF",
"U 	c #CCF6FE",
"V 	c #7FA9B1",
"W 	c #71A0AA",
"X 	c #72A0AA",
"Y 	c #70A0AA",
"Z 	c #6FA0AA",
"` 	c #6DA0AA",
" .	c #6A9FAA",
"..	c #669FAA",
"+.	c #619DA8",
"@.	c #3A7B89",
"#.	c #014A5B",
"$.	c #0D5565",
"%.	c #216573",
"&.	c #3EA0B5",
"*.	c #49D9F7",
"=.	c #3EDDFF",
"-.	c #31BAD8",
";.	c #2B545C",
">.	c #DCE4E4",
",.	c #D6F8FF",
"'.	c #B2F0FD",
").	c #3C7480",
"!.	c #024A5B",
"~.	c #0C5565",
"{.	c #1A6372",
"].	c #289FB7",
"^.	c #2DD6F9",
"/.	c #216674",
"(.	c #97A2A4",
"_.	c #CADFE2",
":.	c #BCF3FF",
"<.	c #A1EDFC",
"[.	c #397380",
"}.	c #013F4C",
"|.	c #345A61",
"1.	c #5DB3BF",
"2.	c #2ADBFF",
"3.	c #1C8197",
"4.	c #526B71",
"5.	c #B7DCE2",
"6.	c #92EBFD",
"7.	c #639097",
"8.	c #5E7D83",
"9.	c #5F7E84",
"0.	c #5E7E84",
"a.	c #5D7E83",
"b.	c #5C7E84",
"c.	c #5A7E84",
"d.	c #547C82",
"e.	c #115361",
"f.	c #004A5A",
"g.	c #013D4A",
"h.	c #3D5F66",
"i.	c #6AB7C3",
"j.	c #4BE2FE",
"k.	c #2BDAFF",
"l.	c #21D8FF",
"m.	c #1897B2",
"n.	c #20444B",
"o.	c #A7DBE5",
"p.	c #8FEBFF",
"q.	c #84E9FF",
"r.	c #88EAFF",
"s.	c #89EAFF",
"t.	c #80E9FF",
"u.	c #7AE8FF",
"v.	c #73E6FF",
"w.	c #66DAF2",
"x.	c #295E69",
"y.	c #42636A",
"z.	c #73BDC9",
"A.	c #53E3FE",
"B.	c #39DCFF",
"C.	c #2EDAFF",
"D.	c #25D8FF",
"E.	c #1BD7FF",
"F.	c #12A0BE",
"G.	c #0C353D",
"H.	c #95D7E3",
"I.	c #75E7FF",
"J.	c #78E7FF",
"K.	c #75E6FE",
"L.	c #62C3D7",
"M.	c #67D7ED",
"N.	c #65E4FF",
"O.	c #5CDFFB",
"P.	c #6BC9D8",
"Q.	c #5AE4FE",
"R.	c #43DEFF",
"S.	c #30DAFF",
"T.	c #27D9FF",
"U.	c #1DD7FF",
"V.	c #15D6FF",
"W.	c #0D9BB9",
"X.	c #08313A",
"Y.	c #88CEDC",
"Z.	c #66E4FF",
"`.	c #69E4FF",
" +	c #6AE5FE",
".+	c #6AE4FE",
"++	c #5BBFD4",
"@+	c #62A8B4",
"#+	c #407B84",
"$+	c #6EC5D3",
"%+	c #58E2FF",
"&+	c #51E1FF",
"*+	c #49E0FF",
"=+	c #41DEFF",
"-+	c #38DDFF",
";+	c #30DBFF",
">+	c #27DAFF",
",+	c #1FD8FF",
"'+	c #16D6FF",
")+	c #0FD5FF",
"!+	c #0887A2",
"~+	c #133840",
"{+	c #8CCCD7",
"]+	c #6CE5FF",
"^+	c #57E1FF",
"/+	c #59E1FE",
"(+	c #50BCD2",
"_+	c #5CA6B1",
":+	c #458893",
"<+	c #0D5564",
"[+	c #074957",
"}+	c #317481",
"|+	c #3C818F",
"1+	c #3B818F",
"2+	c #3A818F",
"3+	c #38818F",
"4+	c #37808F",
"5+	c #36808F",
"6+	c #357F8F",
"7+	c #2596A7",
"8+	c #10D5FF",
"9+	c #09D3FE",
"0+	c #036276",
"a+	c #3E5A60",
"b+	c #A8CED4",
"c+	c #47D4F2",
"d+	c #468E9B",
"e+	c #448792",
"f+	c #0C5464",
"g+	c #024B5B",
"h+	c #014B5B",
"i+	c #074F5D",
"j+	c #29838C",
"k+	c #09D4FF",
"l+	c #04C2EA",
"m+	c #013C49",
"n+	c #859194",
"o+	c #42C9E4",
"p+	c #42DDFE",
"q+	c #42D3E6",
"r+	c #29848B",
"s+	c #07424D",
"t+	c #024A59",
"u+	c #014A5A",
"v+	c #024250",
"w+	c #02414F",
"x+	c #044451",
"y+	c #26818A",
"z+	c #04D2FE",
"A+	c #017C96",
"B+	c #06323B",
"C+	c #82B9C5",
"D+	c #30D0F2",
"E+	c #32DCFF",
"F+	c #39D7EC",
"G+	c #23878F",
"H+	c #07434E",
"I+	c #044552",
"J+	c #509CA4",
"K+	c #44BACC",
"L+	c #41BACB",
"M+	c #3DBACB",
"N+	c #39B9CB",
"O+	c #35B9CB",
"P+	c #31B8CC",
"Q+	c #2DB7CB",
"R+	c #2BCAE3",
"S+	c #01AFD5",
"T+	c #003C48",
"U+	c #67777B",
"V+	c #3C94A7",
"W+	c #23BFE0",
"X+	c #24D7FD",
"Y+	c #24D9FF",
"Z+	c #25D9FF",
"`+	c #2CD8EF",
" @	c #1F8992",
".@	c #43C4D5",
"+@	c #1AD6FF",
"@@	c #12D5FF",
"#@	c #0ED5FF",
"$@	c #0AD4FE",
"%@	c #06D3FF",
"&@	c #02D2FF",
"*@	c #01BCE4",
"=@	c #004B5B",
"-@	c #1E4047",
";@	c #257080",
">@	c #19A1BE",
",@	c #19D0F7",
"'@	c #18D6FF",
")@	c #17D6FF",
"!@	c #16D7FF",
"~@	c #0DD4FF",
"{@	c #03D3FF",
"]@	c #01D2FE",
"^@	c #00B0D6",
"/@	c #0E363F",
"(@	c #2C535B",
"_@	c #0F687B",
":@	c #0EA8C9",
"<@	c #0DCEF7",
"[@	c #0CD4FE",
"}@	c #08D3FF",
"|@	c #05D3FF",
"1@	c #03D2FF",
"2@	c #01C1EA",
"3@	c #017D97",
"4@	c #003C49",
"5@	c #1C3F46",
"6@	c #6B7D81",
"7@	c #0B3842",
"8@	c #054E5D",
"9@	c #047188",
"0@	c #038DAA",
"a@	c #019AB9",
"b@	c #0197B6",
"c@	c #0084A0",
"d@	c #006176",
"e@	c #04313A",
"f@	c #617276",
"g@	c #808E91",
"h@	c #37545B",
"i@	c #0A3038",
"j@	c #002C35",
"k@	c #092F37",
"l@	c #345157",
"m@	c #7C898C",
"            . + @ # $ % & * =               ",
"        - ; > , ' ) ! ~ { ] ^ / (           ",
"      _ : < [ } ) | 1 { 2 3 4 5 6 7         ",
"    8 9 0 a b c d e f g h i j k l m n       ",
"  o p q r c s t ! 1 u v w x y z A B C D     ",
"  E F G G G | e 1 H I J K L M N O P Q R S   ",
"_ T U V W X Y Z `  ...+.@.#.$.%.&.*.=.-.;.  ",
">.,.'.).!.!.!.!.!.!.!.!.#.#.#.#.~.{.].^./.(.",
"_.:.<.[.#.#.#.#.#.#.#.#.#.#.#.#.}.|.1.2.3.4.",
"5.h 6.7.8.9.9.0.a.b.c.d.e.f.g.h.i.j.k.l.m.n.",
"o.p.q.r.s.s.r.q.t.u.v.w.x.y.z.A.B.C.D.E.F.G.",
"H.t.I.J.u.u.J.K.L.M.N.O.P.Q.R.B.S.T.U.V.W.X.",
"Y.I.Z.`. +.+++@+#+$+%+&+*+=+-+;+>+,+'+)+!+~+",
"{+]+^+/+(+_+:+<+[+}+|+1+2+3+4+5+6+7+8+9+0+a+",
"b+O c+d+e+f+g+#.g+h+h+g+g+g+g+g+i+j+k+l+m+n+",
"  o+p+q+r+s+t+u+t+v+w+w+w+w+w+w+x+y+z+A+B+  ",
"  C+D+S.E+F+G+H+I+J+K+L+M+N+O+P+Q+R+S+T+U+  ",
"    V+W+X+Y+Z+`+ @.@+@'+@@#@$@%@&@*@=@-@    ",
"      ;@>@,@'@)@'+!@8+~@$@%@{@]@^@h+/@      ",
"        (@_@:@<@[@$@}@|@1@]@2@3@4@5@        ",
"          6@7@8@9@0@a@b@c@d@4@e@f@          ",
"              g@h@i@j@j@k@l@m@              "};
