/* XPM */
static const char * toFromPlaylist_xpm[] = {
"22 22 348 2",
"  	c None",
". 	c #FFFFFF",
"+ 	c #F8F8F8",
"@ 	c #EAEBEB",
"# 	c #E5EAEB",
"$ 	c #DDE9EA",
"% 	c #D6E9EC",
"& 	c #CCE7EB",
"* 	c #C1E1E6",
"= 	c #BFDFE4",
"- 	c #CCE0E1",
"; 	c #F4F5F5",
"> 	c #FBFCFC",
", 	c #E9E9E9",
"' 	c #EFF1F1",
") 	c #F5FDFF",
"! 	c #EAFBFF",
"~ 	c #DCF9FF",
"{ 	c #CDF6FF",
"] 	c #C1F4FF",
"^ 	c #B6F2FF",
"/ 	c #ADF1FF",
"( 	c #A3EFFE",
"_ 	c #8ADAE8",
": 	c #ACD3D9",
"< 	c #F8F9F9",
"[ 	c #F5F5F5",
"} 	c #E9EBEB",
"| 	c #FAFEFF",
"1 	c #F1FDFF",
"2 	c #E6FBFF",
"3 	c #D0F7FF",
"4 	c #C3F4FF",
"5 	c #A7EFFF",
"6 	c #98EDFF",
"7 	c #8BEAFF",
"8 	c #82E9FF",
"9 	c #71E6FE",
"0 	c #71BECF",
"a 	c #E5E9EA",
"b 	c #F3F4F4",
"c 	c #EAEEEE",
"d 	c #F3FDFF",
"e 	c #EAFCFF",
"f 	c #E5FBFF",
"g 	c #DEF9FF",
"h 	c #D5F8FF",
"i 	c #CAF6FF",
"j 	c #BEF4FF",
"k 	c #B1F1FF",
"l 	c #A3EFFF",
"m 	c #95ECFF",
"n 	c #85E9FF",
"o 	c #76E7FF",
"p 	c #69E5FF",
"q 	c #5ADAF6",
"r 	c #57A3B3",
"s 	c #E2E6E6",
"t 	c #FBFBFB",
"u 	c #E3E9EA",
"v 	c #EBFCFF",
"w 	c #DFFAFF",
"x 	c #DBF9FF",
"y 	c #D5F7FF",
"z 	c #B7F3FF",
"A 	c #AAEFFE",
"B 	c #81C2D0",
"C 	c #8CE7FA",
"D 	c #81E9FF",
"E 	c #72E6FF",
"F 	c #63E3FF",
"G 	c #55E1FF",
"H 	c #47C2DD",
"I 	c #56848D",
"J 	c #F6F6F6",
"K 	c #FEFEFE",
"L 	c #E0E5E5",
"M 	c #E8FBFF",
"N 	c #D2F7FF",
"O 	c #BAF3FF",
"P 	c #AFF1FF",
"Q 	c #A0E9F8",
"R 	c #417C88",
"S 	c #2A6976",
"T 	c #55A6B7",
"U 	c #6AE0F9",
"V 	c #5EE3FF",
"W 	c #50E0FF",
"X 	c #43DAFA",
"Y 	c #358DA0",
"Z 	c #8A999C",
"` 	c #DBECEF",
" .	c #CCF6FE",
"..	c #7FA9B1",
"+.	c #71A0AA",
"@.	c #72A0AA",
"#.	c #70A0AA",
"$.	c #6FA0AA",
"%.	c #6DA0AA",
"&.	c #6A9FAA",
"*.	c #669FAA",
"=.	c #619DA8",
"-.	c #3A7B89",
";.	c #014A5B",
">.	c #0D5565",
",.	c #216573",
"'.	c #3EA0B5",
").	c #49D9F7",
"!.	c #3EDDFF",
"~.	c #31BAD8",
"{.	c #2B545C",
"].	c #EBEBEB",
"^.	c #DCE4E4",
"/.	c #D6F8FF",
"(.	c #B2F0FD",
"_.	c #3C7480",
":.	c #024A5B",
"<.	c #0C5565",
"[.	c #1A6372",
"}.	c #289FB7",
"|.	c #2DD6F9",
"1.	c #216674",
"2.	c #97A2A4",
"3.	c #CADFE2",
"4.	c #BCF3FF",
"5.	c #A1EDFC",
"6.	c #397380",
"7.	c #013F4C",
"8.	c #345A61",
"9.	c #5DB3BF",
"0.	c #2ADBFF",
"a.	c #1C8197",
"b.	c #526B71",
"c.	c #B7DCE2",
"d.	c #92EBFD",
"e.	c #639097",
"f.	c #5E7D83",
"g.	c #5F7E84",
"h.	c #5E7E84",
"i.	c #5D7E83",
"j.	c #5C7E84",
"k.	c #5A7E84",
"l.	c #547C82",
"m.	c #115361",
"n.	c #004A5A",
"o.	c #013D4A",
"p.	c #3D5F66",
"q.	c #6AB7C3",
"r.	c #4BE2FE",
"s.	c #2BDAFF",
"t.	c #21D8FF",
"u.	c #1897B2",
"v.	c #20444B",
"w.	c #A7DBE5",
"x.	c #8FEBFF",
"y.	c #84E9FF",
"z.	c #88EAFF",
"A.	c #89EAFF",
"B.	c #80E9FF",
"C.	c #7AE8FF",
"D.	c #73E6FF",
"E.	c #66DAF2",
"F.	c #295E69",
"G.	c #42636A",
"H.	c #73BDC9",
"I.	c #53E3FE",
"J.	c #39DCFF",
"K.	c #2EDAFF",
"L.	c #25D8FF",
"M.	c #1BD7FF",
"N.	c #12A0BE",
"O.	c #0C353D",
"P.	c #95D7E3",
"Q.	c #75E7FF",
"R.	c #78E7FF",
"S.	c #75E6FE",
"T.	c #62C3D7",
"U.	c #67D7ED",
"V.	c #65E4FF",
"W.	c #5CDFFB",
"X.	c #6BC9D8",
"Y.	c #5AE4FE",
"Z.	c #43DEFF",
"`.	c #30DAFF",
" +	c #27D9FF",
".+	c #1DD7FF",
"++	c #15D6FF",
"@+	c #0D9BB9",
"#+	c #08313A",
"$+	c #88CEDC",
"%+	c #66E4FF",
"&+	c #69E4FF",
"*+	c #6AE5FE",
"=+	c #6AE4FE",
"-+	c #5BBFD4",
";+	c #62A8B4",
">+	c #407B84",
",+	c #6EC5D3",
"'+	c #58E2FF",
")+	c #51E1FF",
"!+	c #49E0FF",
"~+	c #41DEFF",
"{+	c #38DDFF",
"]+	c #30DBFF",
"^+	c #27DAFF",
"/+	c #1FD8FF",
"(+	c #16D6FF",
"_+	c #0FD5FF",
":+	c #0887A2",
"<+	c #133840",
"[+	c #8CCCD7",
"}+	c #6CE5FF",
"|+	c #57E1FF",
"1+	c #59E1FE",
"2+	c #50BCD2",
"3+	c #5CA6B1",
"4+	c #458893",
"5+	c #0D5564",
"6+	c #074957",
"7+	c #317481",
"8+	c #3C818F",
"9+	c #3B818F",
"0+	c #3A818F",
"a+	c #38818F",
"b+	c #37808F",
"c+	c #36808F",
"d+	c #357F8F",
"e+	c #2596A7",
"f+	c #10D5FF",
"g+	c #09D3FE",
"h+	c #036276",
"i+	c #3E5A60",
"j+	c #A8CED4",
"k+	c #47D4F2",
"l+	c #468E9B",
"m+	c #448792",
"n+	c #0C5464",
"o+	c #024B5B",
"p+	c #014B5B",
"q+	c #074F5D",
"r+	c #29838C",
"s+	c #09D4FF",
"t+	c #04C2EA",
"u+	c #013C49",
"v+	c #859194",
"w+	c #E8EAEB",
"x+	c #42C9E4",
"y+	c #42DDFE",
"z+	c #42D3E6",
"A+	c #29848B",
"B+	c #07424D",
"C+	c #024A59",
"D+	c #014A5A",
"E+	c #024250",
"F+	c #02414F",
"G+	c #044451",
"H+	c #26818A",
"I+	c #04D2FE",
"J+	c #017C96",
"K+	c #06323B",
"L+	c #DFDFE0",
"M+	c #82B9C5",
"N+	c #30D0F2",
"O+	c #32DCFF",
"P+	c #39D7EC",
"Q+	c #23878F",
"R+	c #07434E",
"S+	c #044552",
"T+	c #509CA4",
"U+	c #44BACC",
"V+	c #41BACB",
"W+	c #3DBACB",
"X+	c #39B9CB",
"Y+	c #35B9CB",
"Z+	c #31B8CC",
"`+	c #2DB7CB",
" @	c #2BCAE3",
".@	c #01AFD5",
"+@	c #003C48",
"@@	c #67777B",
"#@	c #F1F2F2",
"$@	c #3C94A7",
"%@	c #23BFE0",
"&@	c #24D7FD",
"*@	c #24D9FF",
"=@	c #25D9FF",
"-@	c #2CD8EF",
";@	c #1F8992",
">@	c #43C4D5",
",@	c #1AD6FF",
"'@	c #12D5FF",
")@	c #0ED5FF",
"!@	c #0AD4FE",
"~@	c #06D3FF",
"{@	c #02D2FF",
"]@	c #01BCE4",
"^@	c #004B5B",
"/@	c #1E4047",
"(@	c #ECECEC",
"_@	c #D4D9DB",
":@	c #257080",
"<@	c #19A1BE",
"[@	c #19D0F7",
"}@	c #18D6FF",
"|@	c #17D6FF",
"1@	c #16D7FF",
"2@	c #0DD4FF",
"3@	c #03D3FF",
"4@	c #01D2FE",
"5@	c #00B0D6",
"6@	c #0E363F",
"7@	c #CDCFCF",
"8@	c #D2D6D6",
"9@	c #2C535B",
"0@	c #0F687B",
"a@	c #0EA8C9",
"b@	c #0DCEF7",
"c@	c #0CD4FE",
"d@	c #08D3FF",
"e@	c #05D3FF",
"f@	c #03D2FF",
"g@	c #01C1EA",
"h@	c #017D97",
"i@	c #003C49",
"j@	c #1C3F46",
"k@	c #CACDCD",
"l@	c #EEEEEE",
"m@	c #6B7D81",
"n@	c #0B3842",
"o@	c #054E5D",
"p@	c #047188",
"q@	c #038DAA",
"r@	c #019AB9",
"s@	c #0197B6",
"t@	c #0084A0",
"u@	c #006176",
"v@	c #04313A",
"w@	c #617276",
"x@	c #EAEAEA",
"y@	c #DDDEDE",
"z@	c #808E91",
"A@	c #37545B",
"B@	c #0A3038",
"C@	c #002C35",
"D@	c #092F37",
"E@	c #345157",
"F@	c #7C898C",
"G@	c #DADBDB",
". . . . . . + @ # $ % & * = - ; . . . . . . ",
". . . . > , ' ) ! ~ { ] ^ / ( _ : < . . . . ",
". . . [ } | 1 2 ~ 3 4 ^ 5 6 7 8 9 0 a . . . ",
". . b c d e f g h i j k l m n o p q r s . . ",
". t u v w g x y { 4 z A B C D E F G H I J K ",
". L M N N N 3 i 4 O P Q R S T U V W X Y Z K ",
"[ `  ...+.@.#.$.%.&.*.=.-.;.>.,.'.).!.~.{.].",
"^./.(._.:.:.:.:.:.:.:.:.;.;.;.;.<.[.}.|.1.2.",
"3.4.5.6.;.;.;.;.;.;.;.;.;.;.;.;.7.8.9.0.a.b.",
"c.l d.e.f.g.g.h.i.j.k.l.m.n.o.p.q.r.s.t.u.v.",
"w.x.y.z.A.A.z.y.B.C.D.E.F.G.H.I.J.K.L.M.N.O.",
"P.B.Q.R.C.C.R.S.T.U.V.W.X.Y.Z.J.`. +.+++@+#+",
"$+Q.%+&+*+=+-+;+>+,+'+)+!+~+{+]+^+/+(+_+:+<+",
"[+}+|+1+2+3+4+5+6+7+8+9+0+a+b+c+d+e+f+g+h+i+",
"j+V k+l+m+n+o+;.o+p+p+o+o+o+o+o+q+r+s+t+u+v+",
"w+x+y+z+A+B+C+D+C+E+F+F+F+F+F+F+G+H+I+J+K+L+",
". M+N+`.O+P+Q+R+S+T+U+V+W+X+Y+Z+`+ @.@+@@@. ",
". #@$@%@&@*@=@-@;@>@,@(+'@)@!@~@{@]@^@/@(@. ",
". . _@:@<@[@}@|@(+1@f+2@!@~@3@4@5@p+6@7@. . ",
". . . 8@9@0@a@b@c@!@d@e@f@4@g@h@i@j@k@. . . ",
". . . . l@m@n@o@p@q@r@s@t@u@i@v@w@x@. . . . ",
". . . . . . y@z@A@B@C@C@D@E@F@G@. . . . . . "};
