/* XPM */
static const char * dequeueSong_xpm[] = {
"22 22 340 2",
"  	c None",
". 	c #FFFFFF",
"+ 	c #FEFEFE",
"@ 	c #F5F5F5",
"# 	c #E7E9E9",
"$ 	c #E5EAEA",
"% 	c #DDE9EA",
"& 	c #DCF0F2",
"* 	c #D2F0F3",
"= 	c #BEE3E9",
"- 	c #B6DDE2",
"; 	c #BEDCDF",
"> 	c #E1E7E9",
", 	c #FDFDFD",
"' 	c #FEFFFE",
") 	c #FBFBFB",
"! 	c #E7E7E8",
"~ 	c #EFF1F1",
"{ 	c #F5FDFF",
"] 	c #EAFBFE",
"^ 	c #DBF9FF",
"/ 	c #CCF6FF",
"( 	c #BFF4FE",
"_ 	c #B3F2FF",
": 	c #AAF1FE",
"< 	c #A1EFFE",
"[ 	c #8BE2F1",
"} 	c #96CED5",
"| 	c #EAEEEE",
"1 	c #E7E9E8",
"2 	c #F8FDFE",
"3 	c #F2FCFE",
"4 	c #E7FBFF",
"5 	c #DCF9FE",
"6 	c #D1F7FF",
"7 	c #C4F5FE",
"8 	c #B7F2FE",
"9 	c #A9EFFF",
"0 	c #99EDFF",
"a 	c #8BEBFF",
"b 	c #81E9FE",
"c 	c #73E7FE",
"d 	c #64C2D6",
"e 	c #D0DADC",
"f 	c #E8EBEB",
"g 	c #F3FCFE",
"h 	c #EAFBFF",
"i 	c #E5FBFF",
"j 	c #DFF9FF",
"k 	c #D6F7FE",
"l 	c #CAF4FC",
"m 	c #C3F5FE",
"n 	c #A3EDFD",
"o 	c #96ECFF",
"p 	c #86EAFF",
"q 	c #78E7FF",
"r 	c #6AE5FF",
"s 	c #5BDDF9",
"t 	c #4FA6B9",
"u 	c #CDD5D7",
"v 	c #FDFDFC",
"w 	c #E1E6E6",
"x 	c #EDFCFE",
"y 	c #DEF9FE",
"z 	c #DDF9FF",
"A 	c #DBF9FE",
"B 	c #D5F8FF",
"C 	c #CEF6FE",
"D 	c #89EAFD",
"E 	c #91ECFE",
"F 	c #82E9FE",
"G 	c #73E6FF",
"H 	c #64E4FF",
"I 	c #55E1FD",
"J 	c #47C9E4",
"K 	c #49808B",
"L 	c #EAEBEB",
"M 	c #FEFEFF",
"N 	c #E3E6E7",
"O 	c #E8F9FB",
"P 	c #D2F8FE",
"Q 	c #D2F7FE",
"R 	c #CFF7FF",
"S 	c #CAF6FF",
"T 	c #7BE8FE",
"U 	c #6DE6FF",
"V 	c #5FE3FF",
"W 	c #51E0FE",
"X 	c #43DCFD",
"Y 	c #3797AC",
"Z 	c #75878C",
"` 	c #FDFEFD",
" .	c #FBFBFC",
"..	c #D6E5E6",
"+.	c #D1F7FE",
"@.	c #C2F4FF",
"#.	c #C4F5FF",
"$.	c #C5F5FF",
"%.	c #BEF4FE",
"&.	c #B8F3FD",
"*.	c #74E6FF",
"=.	c #67E4FF",
"-.	c #59E2FF",
";.	c #4CDFFF",
">.	c #3FDDFF",
",.	c #32C3E1",
"'.	c #28555D",
").	c #DCDEDE",
"!.	c #E2E6E6",
"~.	c #D8F6FB",
"{.	c #B4F2FE",
"].	c #B4F2FF",
"^.	c #B5F3FF",
"/.	c #B6F2FF",
"(.	c #B5F2FF",
"_.	c #B0F1FF",
":.	c #ABF1FE",
"<.	c #78E7FE",
"[.	c #6CE5FE",
"}.	c #5FE2FF",
"|.	c #53E0FE",
"1.	c #46DEFE",
"2.	c #39DCFF",
"3.	c #2DD7FB",
"4.	c #216D7E",
"5.	c #869497",
"6.	c #D1E1E3",
"7.	c #A2EEFE",
"8.	c #A5EFFE",
"9.	c #A7EEFC",
"0.	c #8DCAD3",
"a.	c #83BBC5",
"b.	c #80BAC6",
"c.	c #7CBAC6",
"d.	c #59B3C5",
"e.	c #50B2C6",
"f.	c #49B1C5",
"g.	c #3FBDD5",
"h.	c #3EDDFD",
"i.	c #33DBFF",
"j.	c #28D9FF",
"k.	c #1D8BA2",
"l.	c #425E64",
"m.	c #BFDCDF",
"n.	c #ACF0FE",
"o.	c #93ECFF",
"p.	c #96EDFE",
"q.	c #7CBEC9",
"r.	c #4C8F9B",
"s.	c #267282",
"t.	c #257181",
"u.	c #1E6979",
"v.	c #034F5F",
"w.	c #044F60",
"x.	c #135E6D",
"y.	c #257081",
"z.	c #125865",
"A.	c #34C1DA",
"B.	c #2CDAFE",
"C.	c #21D8FF",
"D.	c #18A0BC",
"E.	c #153A42",
"F.	c #AED8DE",
"G.	c #98EDFE",
"H.	c #84E9FF",
"I.	c #87EAFE",
"J.	c #59A0AC",
"K.	c #075162",
"L.	c #034F60",
"M.	c #044F5F",
"N.	c #045060",
"O.	c #024F5F",
"P.	c #034B5B",
"Q.	c #41A4B1",
"R.	c #25D9FE",
"S.	c #1CD7FF",
"T.	c #13A9C9",
"U.	c #0B333D",
"V.	c #A1D3DC",
"W.	c #88EAFE",
"X.	c #75E7FF",
"Y.	c #60BDCF",
"Z.	c #235E67",
"`.	c #144650",
" +	c #15464F",
".+	c #14464F",
"++	c #0B4A57",
"@+	c #0D4450",
"#+	c #11454F",
"$+	c #104650",
"%+	c #10454F",
"&+	c #2F5961",
"*+	c #4DD5EA",
"=+	c #1ED8FE",
"-+	c #16D6FF",
";+	c #0EA5C3",
">+	c #06313A",
",+	c #9AD0D9",
"'+	c #7DE8FD",
")+	c #66E4FF",
"!+	c #69E5FE",
"~+	c #6BE5FE",
"{+	c #76E8FC",
"]+	c #84E6F7",
"^+	c #82E6F7",
"/+	c #7FE5F7",
"(+	c #5FE1F7",
"_+	c #56E0F8",
":+	c #4EDFF8",
"<+	c #3BDFFC",
"[+	c #20D7FE",
"}+	c #18D6FF",
"|+	c #10D5FE",
"1+	c #0992AE",
"2+	c #092F38",
"3+	c #A2D0D8",
"4+	c #72E6FD",
"5+	c #58E1FF",
"6+	c #5AE2FF",
"7+	c #5BE2FF",
"8+	c #5BE3FF",
"9+	c #58E2FE",
"0+	c #55E2FE",
"a+	c #37DBFE",
"b+	c #2FDBFE",
"c+	c #27D9FE",
"d+	c #1FD7FE",
"e+	c #11D5FF",
"f+	c #0AD4FD",
"g+	c #046D84",
"h+	c #2D4A51",
"i+	c #C1D3D6",
"j+	c #5EE2FA",
"k+	c #4DE0FF",
"l+	c #4CDFFE",
"m+	c #4CE0FF",
"n+	c #4ADFFF",
"o+	c #47DFFE",
"p+	c #2DD9FE",
"q+	c #25D9FF",
"r+	c #1FD7FF",
"s+	c #0BD4FF",
"t+	c #05C9F0",
"u+	c #024351",
"v+	c #718084",
"w+	c #F7F7F7",
"x+	c #4CBFD4",
"y+	c #44DEFE",
"z+	c #3DDDFE",
"A+	c #3EDDFF",
"B+	c #3CDDFF",
"C+	c #39DDFD",
"D+	c #47CDE2",
"E+	c #10D5FF",
"F+	c #0AD4FE",
"G+	c #06D3FE",
"H+	c #028CAA",
"I+	c #03313B",
"J+	c #CDCECF",
"K+	c #FEFEFD",
"L+	c #9AC1C8",
"M+	c #30CDEE",
"N+	c #31DBFE",
"O+	c #31DBFF",
"P+	c #30DBFF",
"Q+	c #18D6FE",
"R+	c #13D5FF",
"S+	c #0ED4FE",
"T+	c #09D3FF",
"U+	c #04D3FE",
"V+	c #02BCE3",
"W+	c #4D6266",
"X+	c #4B97A8",
"Y+	c #25BDDE",
"Z+	c #25D7FD",
"`+	c #25D8FF",
" @	c #23D8FF",
".@	c #0FD5FF",
"+@	c #07D3FE",
"@@	c #03D3FE",
"#@	c #02C7F0",
"$@	c #02596C",
"%@	c #12383F",
"&@	c #D9DADB",
"*@	c #DCDFE0",
"=@	c #2C7584",
"-@	c #19A2BF",
";@	c #19D0F6",
">@	c #19D7FE",
",@	c #18D7FF",
"'@	c #14D6FF",
")@	c #0ED5FE",
"!@	c #0BD4FE",
"~@	c #07D3FF",
"{@	c #02D2FE",
"]@	c #02BFE8",
"^@	c #025C70",
"/@	c #07333D",
"(@	c #ABB0B1",
"_@	c #D4D6D7",
":@	c #2E555D",
"<@	c #0F6D80",
"[@	c #0FAECF",
"}@	c #0ED0F9",
"|@	c #0DD4FE",
"1@	c #0CD4FF",
"2@	c #09D4FF",
"3@	c #06D3FF",
"4@	c #04D3FF",
"5@	c #02D3FF",
"6@	c #02CCF7",
"7@	c #0295B5",
"8@	c #024755",
"9@	c #0C343C",
"0@	c #A6ACAD",
"a@	c #EBEBEB",
"b@	c #617276",
"c@	c #093A44",
"d@	c #065768",
"e@	c #05809A",
"f@	c #039EBF",
"g@	c #03AED0",
"h@	c #02ADD0",
"i@	c #019BBC",
"j@	c #017890",
"k@	c #024A59",
"l@	c #02333E",
"m@	c #385055",
"n@	c #CECFCF",
"o@	c #FEFDFE",
"p@	c #CED0CF",
"q@	c #697A7E",
"r@	c #1D3D44",
"s@	c #012C36",
"t@	c #02323D",
"u@	c #01333D",
"v@	c #012E37",
"w@	c #0F333A",
"x@	c #506468",
"y@	c #B2B4B5",
". . . . . + @ # $ % & * = - ; > , ' . . . . ",
". . . . ) ! ~ { ] ^ / ( _ : < [ } | + . . . ",
". . . @ 1 2 3 4 5 6 7 8 9 0 a b c d e . . . ",
". . @ f g h i j k l m 8 n o p q r s t u ' . ",
". v w x y z A B C m m n D E F G H I J K L M ",
"+ N O P 6 Q R S m m 8 n D D T U V W X Y Z ` ",
" ...+.@.#.$.@.%.&.8 8 n D F *.=.-.;.>.,.'.).",
"!.~.{.].^./.(._.:.:.:.n D <.[.}.|.1.2.3.4.5.",
"6.m 7.8.9.0.a.b.c.c.c.c.c.d.e.f.g.h.i.j.k.l.",
"m.n.o.p.q.r.s.t.t.u.v.w.x.t.t.y.z.A.B.C.D.E.",
"F.G.H.I.J.K.w.L.M.v.N.v.v.v.O.O.P.Q.R.S.T.U.",
"V.W.X.<.Y.Z.`. +.+++v.v.@+#+$+%+&+*+=+-+;+>+",
",+'+)+!+~+{+]+^+/+/+/+/+/+(+_+:+<+[+}+|+1+2+",
"3+4+5+6+7+8+6+9+0+a+a+a+a+a+b+c+d+}+e+f+g+h+",
"i+j+k+l+m+k+;.n+o+a+a+a+a+p+q+r+}+e+s+t+u+v+",
"w+x+y+z+A+>.A+B+C+C+C+C+D+D+S.-+E+F+G+H+I+J+",
"K+L+M+N+O+O+P+b+B.D+D+D+D+Q+R+S+T+U+V+u+W+, ",
"+ w+X+Y+Z+q+`+ @C.D+D+D+D+.@s++@@@#@$@%@&@+ ",
". + *@=@-@;@>@,@-+'@e+)@!@~@U+{@]@^@/@(@+ + ",
". . + _@:@<@[@}@|@1@2@3@4@5@6@7@8@9@0@+ . . ",
". . . + a@b@c@d@e@f@g@h@i@j@k@l@m@n@+ . . . ",
". . . . . o@p@q@r@s@t@u@v@w@x@y@) ' . . . . "};
