/* XPM */
static const char * enqueueasnext_xpm[] = {
"22 22 284 2",
"  	c None",
". 	c #FFFFFF",
"+ 	c #7CBEC9",
"@ 	c #CDF6FE",
"# 	c #DDE8EA",
"$ 	c #D5E8EA",
"% 	c #CBE5E9",
"& 	c #BFE0E5",
"* 	c #BEDEE2",
"= 	c #CADFE0",
"- 	c #F2F3F2",
"; 	c #FDFEFD",
"> 	c #FEFEFE",
", 	c #034F5F",
"' 	c #4A7B83",
") 	c #9DEEFD",
"! 	c #C1F3FE",
"~ 	c #B6F2FF",
"{ 	c #ACF0FE",
"] 	c #A3EEFE",
"^ 	c #88D8E6",
"/ 	c #ACD0D7",
"( 	c #F9F9F8",
"_ 	c #FEFEFF",
": 	c #FCFCFC",
"< 	c #4C8F9B",
"[ 	c #1E6979",
"} 	c #2DA9C1",
"| 	c #C3F4FF",
"1 	c #B6F2FE",
"2 	c #8ED4E1",
"3 	c #1E6C7C",
"4 	c #80E1F2",
"5 	c #81E9FE",
"6 	c #6EE6FC",
"7 	c #72BBCA",
"8 	c #E7EAEA",
"9 	c #FFFFFE",
"0 	c #F5F5F6",
"a 	c #E7E9E9",
"b 	c #81D5E2",
"c 	c #75E6FE",
"d 	c #69E4FE",
"e 	c #58D9F4",
"f 	c #59A0AD",
"g 	c #E8EAEB",
"h 	c #8FEBFC",
"i 	c #71E6FE",
"j 	c #62E3FF",
"k 	c #54E1FE",
"l 	c #45BED7",
"m 	c #5D848E",
"n 	c #F9FAF9",
"o 	c #89EBFE",
"p 	c #6BE5FE",
"q 	c #5DE2FF",
"r 	c #4FE0FE",
"s 	c #42D8F8",
"t 	c #348395",
"u 	c #9BA6A7",
"v 	c #E1E5E6",
"w 	c #045060",
"x 	c #82EAFE",
"y 	c #65E4FE",
"z 	c #57E1FF",
"A 	c #49DFFF",
"B 	c #3DDCFE",
"C 	c #30B1CB",
"D 	c #33555D",
"E 	c #F5F6F5",
"F 	c #D8E6E8",
"G 	c #CFF7FE",
"H 	c #90EDFE",
"I 	c #77E5FA",
"J 	c #5DE3FE",
"K 	c #50E0FF",
"L 	c #43DEFF",
"M 	c #37DCFF",
"N 	c #2BD1F4",
"O 	c #205A66",
"P 	c #ADB4B5",
"Q 	c #D8F8FD",
"R 	c #B3F1FF",
"S 	c #B4F2FF",
"T 	c #79D4E4",
"U 	c #6BCBD9",
"V 	c #55E1FE",
"W 	c #3CDDFF",
"X 	c #31DBFF",
"Y 	c #25D8FE",
"Z 	c #1B7384",
"` 	c #6A7D82",
" .	c #C2F4FE",
"..	c #A2EEFE",
"+.	c #A5EFFE",
"@.	c #A8F0FF",
"#.	c #77D8EA",
"$.	c #2B8799",
"%.	c #42B3C8",
"&.	c #4CE0FC",
"*.	c #40DEFE",
"=.	c #35DBFF",
"-.	c #2AD9FF",
";.	c #20D8FE",
">.	c #16889F",
",.	c #39585F",
"'.	c #ABD8DD",
").	c #94ECFE",
"!.	c #83E9FF",
"~.	c #87EAFF",
"{.	c #89EAFF",
"].	c #1FA6C0",
"^.	c #46ACC0",
"/.	c #2C9CB1",
"(.	c #38DCFF",
"_.	c #2DDAFF",
":.	c #24D8FF",
"<.	c #1AD6FE",
"[.	c #1290AA",
"}.	c #22434A",
"|.	c #9CD3DB",
"1.	c #85EAFE",
"2.	c #75E6FF",
"3.	c #78E7FE",
"4.	c #79E7FF",
"5.	c #78E6FC",
"6.	c #2FDAFF",
"7.	c #26D9FF",
"8.	c #1DD7FF",
"9.	c #14D6FD",
"0.	c #0B8BA4",
"a.	c #1F4047",
"b.	c #95CFD8",
"c.	c #7AE8FE",
"d.	c #65E4FF",
"e.	c #68E5FE",
"f.	c #6AE5FF",
"g.	c #64DDF5",
"h.	c #3BD2EF",
"i.	c #27D9FF",
"j.	c #1ED7FF",
"k.	c #16D6FF",
"l.	c #0ED4FE",
"m.	c #07758C",
"n.	c #314F54",
"o.	c #9DCFD6",
"p.	c #70E6FE",
"q.	c #57E1FE",
"r.	c #58E2FF",
"s.	c #5AE2FF",
"t.	c #5BE2FF",
"u.	c #58E0FB",
"v.	c #176B7D",
"w.	c #40BBD2",
"x.	c #34AABF",
"y.	c #20889D",
"z.	c #1D8DA4",
"A.	c #36DDFD",
"B.	c #0FD5FF",
"C.	c #09D2FC",
"D.	c #035161",
"E.	c #5F7276",
"F.	c #BFD1D4",
"G.	c #5DE2FB",
"H.	c #4CE0FE",
"I.	c #49DFFE",
"J.	c #4BE0FF",
"K.	c #44D2ED",
"L.	c #2DB4CE",
"M.	c #2ABAD7",
"N.	c #31DBFE",
"O.	c #2BDAFE",
"P.	c #1CD8FD",
"Q.	c #16D5FF",
"R.	c #0FD5FE",
"S.	c #09D4FE",
"T.	c #04B3D9",
"U.	c #023540",
"V.	c #A6AAAA",
"W.	c #F7F7F7",
"X.	c #4ABDD2",
"Y.	c #41DEFE",
"Z.	c #3DDCFF",
"`.	c #3DDDFF",
" +	c #3BDCFC",
".+	c #33CFEC",
"++	c #34DAFB",
"@+	c #30DBFD",
"#+	c #2BDAFF",
"$+	c #1BC5E4",
"%+	c #14D6FE",
"&+	c #09D3FF",
"*+	c #04D2FB",
"=+	c #02697E",
"-+	c #163841",
";+	c #F2F3F3",
">+	c #A0C1C9",
",+	c #2EC9EA",
"'+	c #30D9FD",
")+	c #30DBFF",
"!+	c #2FDBFE",
"~+	c #26C0DE",
"{+	c #28D9FD",
"]+	c #25D9FF",
"^+	c #20D8FF",
"/+	c #1BD7FE",
"(+	c #10CEF3",
"_+	c #0DD4FE",
":+	c #08D3FF",
"<+	c #03D3FD",
"[+	c #01A1C2",
"}+	c #023742",
"|+	c #8A9294",
"1+	c #FAFBFB",
"2+	c #5194A1",
"3+	c #22B7D6",
"4+	c #23D5FC",
"5+	c #23D8FE",
"6+	c #21D8FE",
"7+	c #16AECD",
"8+	c #19D7FE",
"9+	c #16D6FE",
"0+	c #12D5FE",
"a+	c #09D6FE",
"b+	c #06D2FF",
"c+	c #02D2FE",
"d+	c #02B2D8",
"e+	c #01424F",
"f+	c #374F55",
"g+	c #F8F8F8",
"h+	c #E6E8E8",
"i+	c #35727F",
"j+	c #1895B0",
"k+	c #17CCF1",
"l+	c #18D6FE",
"m+	c #13C4E8",
"n+	c #10D1F6",
"o+	c #0CD5FB",
"p+	c #09CBF0",
"q+	c #04D4FE",
"r+	c #01D2FC",
"s+	c #02A3C6",
"t+	c #014351",
"u+	c #1F3E46",
"v+	c #E0E0E0",
"w+	c #FEFFFF",
"x+	c #FFFEFE",
"y+	c #E4E5E4",
"z+	c #3E5C64",
"A+	c #0E5C6D",
"B+	c #0D9BB9",
"C+	c #0DC9F2",
"D+	c #0BD2FA",
"E+	c #06A6C5",
"F+	c #048EAB",
"G+	c #028DA9",
"H+	c #0291AE",
"I+	c #02B5D8",
"J+	c #02B8DE",
"K+	c #026F86",
"L+	c #013843",
"M+	c #314A50",
"N+	c #DDDDDD",
"O+	c #859091",
"P+	c #133941",
"Q+	c #054552",
"R+	c #04667B",
"S+	c #03829D",
"T+	c #028FAC",
"U+	c #017991",
"V+	c #025668",
"W+	c #023843",
"X+	c #0D323A",
"Y+	c #7B8587",
"Z+	c #F4F5F5",
"`+	c #EDEDED",
" @	c #959C9E",
".@	c #4A6066",
"+@	c #1B3A43",
"@@	c #072D36",
"#@	c #18383F",
"$@	c #465D61",
"%@	c #8F9799",
"&@	c #E9E9E9",
". . . . . + @ @ @ # $ % & * = - ; > . . . . ",
". . . . + , ' ) # $ @ ! ~ { ] ^ / ( _ . . . ",
". . . : < , [ } @ @ | 1 2 3 4 5 6 7 8 9 . . ",
". . 0 a < , [ } @ | @ ) 3 b 3 c d e f g > . ",
". + < < , , , [ [ ' ) ) 3 h 3 i j k l m n . ",
"+ , , , , , , , , , ' ) 3 o 3 p q r s t u > ",
"v ' [ [ , , w [ [ ' ) ) 3 x 3 y z A B C D E ",
"F G } } [ , [ } } ) ) H 3 I 3 J K L M N O P ",
"Q R S 1 [ , [ ) ) ) T U 3 I 3 V A W X Y Z ` ",
" ...+.@.' , ' ) #.T 3 3 $.%.3 &.*.=.-.;.>.,.",
"'.).!.~.{.].].) 3 %.3 ^.3 %./.3 (._.:.<.[.}.",
"|.1.2.3.4.4.5.3 3 %.3 %.3 %.} 3 6.7.8.9.0.a.",
"b.c.d.e.f.f.g.3 } %.3 %.} h.} 3 i.j.k.l.m.n.",
"o.p.q.r.s.t.u.v.w.x.} y.z.A.} 3 j.k.B.C.D.E.",
"F.G.H.I.J.J.K.3 } } L.M.N.O.3 P.Q.R.S.T.U.V.",
"W.X.Y.Z.`.`. +3 .+++@+#+7.$+3 %+l.&+*+=+-+;+",
"> >+,+'+)+)+!+~+3 {+]+^+/+3 (+_+:+<+[+}+|+. ",
"> 1+2+3+4+:.5+6+7+3 8+9+0+3 a+b+c+d+e+f+g+. ",
". > h+i+j+k+l+k.m+3 n+o+p+3 q+r+s+t+u+v+> . ",
". w+x+y+z+A+B+C+D+E+F+G+H+I+J+K+L+M+N+x+. . ",
". . . > W.O+P+Q+R+S+T+G+U+V+W+X+Y+Z+> . . . ",
". . . . . . `+ @.@+@@@@@#@$@%@&@. . . . . . "};
