/* XPM */
static char *pause_xpm[]={
"20 20 231 2",
"Qt c None",
".7 c #000000",
"#4 c #2e3737",
"af c #323d3d",
"ao c #324041",
"aA c #354242",
"#m c #38474e",
"#z c #38484b",
"ae c #394e51",
"## c #3b494e",
"#P c #3e4c4d",
"#0 c #3e4d4d",
"#3 c #404f4c",
"#L c #425053",
"#k c #445e6b",
"#O c #465757",
"#. c #465c65",
"#y c #46626a",
"#1 c #4d5c5b",
"#M c #4d6466",
"#w c #4e5c5d",
".6 c #505d5e",
"ay c #546666",
".8 c #546b7a",
"bH c #5e6567",
"bI c #626769",
"bD c #65696a",
"bJ c #666e6f",
"bv c #687e7b",
"aF c #6e7a7a",
"bj c #6f7375",
"at c #718fa2",
"bu c #747b7d",
"#E c #7490a2",
"bt c #75797b",
"bG c #757b7d",
"bb c #79918d",
"#9 c #7a9696",
"bl c #7b928e",
"ad c #7c9c9e",
"#l c #7da9bd",
"ba c #7f7f7f",
"#r c #7f9999",
"aJ c #7fa3ad",
"#2 c #819d99",
"az c #82a6a9",
"bC c #839997",
"bK c #848c8c",
"bE c #858585",
"#8 c #86a8ab",
"ak c #879f99",
"bw c #87a3a0",
"#T c #87a8ab",
"#N c #87abad",
"#U c #88a09a",
"bs c #88a09e",
"bm c #8ba7a4",
"bi c #8bb1b4",
"bc c #8db6b8",
".9 c #8db6cd",
"#x c #8dbbd1",
"b# c #90aaa7",
"#7 c #91afad",
"aj c #92afac",
"aK c #92bec5",
"ai c #93b0ad",
"ar c #94bfc2",
"aH c #95bec1",
"#5 c #96b5b2",
"#e c #97b2af",
"aN c #97bab8",
"aI c #97bfc2",
"bB c #9abcbb",
"aM c #9ac0bf",
"bx c #9ac1c1",
"a4 c #9bc6c7",
"aE c #9cbfbf",
"as c #9cc0c1",
"bn c #9cc4c4",
"bd c #9cc9ca",
"#6 c #9dc0bf",
"a5 c #9dc1c0",
"aq c #9dc2c2",
"#V c #9fb3a9",
"aR c #9fc2c2",
"#s c #9fc3c3",
"aD c #9fcacb",
"#W c #9fcbcc",
"aC c #9fcccd",
"aQ c #a0cccd",
"ag c #a1c6c7",
"ap c #a1cdce",
"br c #a3c8c8",
".y c #a3cffc",
"#S c #a3d2d2",
".x c #a3d2fc",
"bA c #a4cbcb",
"bh c #a4cdce",
"by c #a4cecf",
"aL c #a4d3d3",
"b. c #a5cbcc",
"aO c #a5d0d3",
"aS c #a6cdce",
"aB c #a6cfd0",
"bo c #a6d5d5",
"be c #a6d6d6",
"ah c #a7cece",
"aP c #a7d0d1",
"a6 c #a7d7d7",
"au c #a8cfd0",
"#X c #a8d0d1",
"#t c #a8d8d8",
"#F c #a9aeae",
"#f c #a9d1d2",
".I c #a9d3fc",
"bz c #a9d5d6",
".J c #a9d5fa",
".z c #a9d6fa",
"aT c #a9d8d8",
".K c #a9d8f7",
"a. c #a9d9d9",
"aU c #a9dada",
".A c #a9daf9",
".w c #a9dafc",
".L c #aad6f2",
".B c #abdcf8",
"#Z c #acd3d7",
"ac c #acd7d8",
".W c #acdcf8",
".Z c #add9e8",
".H c #addafc",
".o c #adddfc",
"#q c #addeea",
".V c #aedefa",
".n c #aedefc",
"#d c #aedfe6",
"bq c #afd7dd",
"bf c #afdadf",
".v c #afdefc",
"#R c #afe2e9",
"#Y c #b0d7dd",
"a3 c #b0dadf",
"aV c #b0e2e2",
"a# c #b1dae0",
".Y c #b1e0f4",
"#G c #b1e1e2",
"#c c #b2e2f4",
".M c #b2e3ec",
"aY c #b2e5e9",
"aa c #b3dae2",
"#K c #b3dde3",
"bp c #b3e0e4",
"a2 c #b3e1e4",
"ab c #b3e2e4",
"av c #b3e2e5",
".X c #b3e2f6",
".p c #b3e2f9",
".m c #b3e2fc",
".q c #b3e3f5",
"an c #b3e5e6",
"#p c #b3e7f4",
"#D c #b4e0e5",
"am c #b5e1e2",
"#n c #b5e4f7",
"a7 c #b5e7ed",
".C c #b6e2f4",
".l c #b6e3fc",
"aX c #b6e6e8",
"aZ c #b6e7ed",
"#A c #b6e7ef",
"#J c #b7e7e9",
"bg c #b8e7ea",
"a1 c #b8e8ea",
"al c #b9d2d2",
"aW c #b9e8ea",
".G c #bae6fe",
"#b c #bae7f6",
".k c #bae7fd",
"#H c #bae9eb",
"#o c #baeaf8",
"ax c #bbdce2",
".U c #bbe9fd",
"aG c #bcbcbc",
"#C c #bce9f4",
"#a c #bce9f6",
"a0 c #bceaed",
".d c #bcebfa",
"bF c #bdbdbd",
"a9 c #bee5eb",
".j c #beecfd",
".N c #bfdae5",
"a8 c #bfe7ed",
".r c #bfe8f2",
".e c #bfe8f4",
"#Q c #bfedf2",
".c c #c0edfb",
".b c #c1eefb",
"#I c #c3eef3",
"#B c #c3eef5",
"aw c #c5e2e3",
".P c #c5f1fc",
".F c #c5f1fd",
".Q c #c5f1fe",
".u c #c6f1fc",
"bk c #c7c7c7",
".a c #c7edfa",
".i c #c7f1fc",
".R c #c7f3ff",
".D c #c8e3eb",
"#u c #c8f3f8",
".T c #c9f3ff",
"#g c #caf4f9",
"#i c #ccf2fb",
".3 c #ccf5fb",
"#h c #ccf6fc",
".O c #cdf0f9",
".S c #cdf6ff",
".E c #ceeff7",
".2 c #cef1fa",
".f c #cfe8f0",
".t c #cfeef6",
".4 c #cff7fd",
".h c #d0edf4",
"#j c #d1f8fd",
".0 c #d3d3d3",
"#v c #d3fafe",
".5 c #d7fbfe",
".# c #daebf0",
".s c #e0e7e9",
".g c #e0e9ed",
".1 c #e2ebed",
"QtQtQtQtQtQt.#.a.b.c.d.e.f.gQtQtQtQtQtQt",
"QtQtQtQt.h.i.j.k.l.m.n.o.p.q.r.sQtQtQtQt",
"QtQtQt.t.u.j.k.v.w.x.y.z.A.A.B.C.DQtQtQt",
"QtQt.E.u.F.j.k.G.l.H.I.I.J.A.K.L.M.NQtQt",
"Qt.O.P.F.F.Q.R.S.T.U.m.V.A.W.X.X.Y.Z.0Qt",
".1.2.3.u.F.4.5.6.7.8.9#..7###a#b#c#d#eQt",
"#f#g#h#i.3#j.5.6.7#k#l#..7#m#n#o#p#q#rQt",
"#s#t#u#h#h#j#v#w.7.8#x#y.7#z#A#B#C#D#E#F",
"#s#s#G#H#I#J#K#L.7#M#N#O.7#P#Q#R#S#T#U#V",
"#s#W#X#f#f#Y#Z#0.7#1#2#3.7#4#5#s#6#7#8#9",
"#s#Xa.a#aaabac#0.7#1adae.7afagah#6aiajak",
"#s#X#falaman#K#L.7#1#2#3.7aoapahaqarasat",
"aiaua.a#avawax#L.7ayazae.7aAaBaCaD#saEaF",
"aGaHaBalamananaIaJaKaLaMaNaO#YaPaQauaR#F",
"Qt#eaSaTaUaVaWaXanaYaZa0a1a2a3aTaPa4#rQt",
"Qt#ea5aDa6a3a2a1a7aZa0a8a9anaVaTb.b#baQt",
"QtQtbbbcbdbebfa2bga0a0bgana2#YbhbibjQtQt",
"QtQtbkblbmbnbobfbpananana2bqbrbsbtQtQtQt",
"QtQtQtQtbubvbwbxbybzbzbAbBbCbDbEQtQtQtQt",
"QtQtQtQtQtbFbGbHbIbIbIbIbJbKbFQtQtQtQtQt"};
