/* XPM */
static const char * playnow_xpm[] = {
"22 22 256 2",
"  	c None",
". 	c #FFFFFF",
"+ 	c #7CBEC9",
"@ 	c #CDF6FE",
"# 	c #DDE8EA",
"$ 	c #D5E8EA",
"% 	c #CBE5E9",
"& 	c #BFE0E5",
"* 	c #BEDEE2",
"= 	c #CADFE0",
"- 	c #F2F3F2",
"; 	c #FDFEFD",
"> 	c #FEFEFE",
", 	c #034F5F",
"' 	c #4A7B83",
") 	c #9DEEFD",
"! 	c #C1F3FE",
"~ 	c #B6F2FF",
"{ 	c #ACF0FE",
"] 	c #A3EEFE",
"^ 	c #88D8E6",
"/ 	c #ACD0D7",
"( 	c #F9F9F8",
"_ 	c #FEFEFF",
": 	c #FCFCFC",
"< 	c #4C8F9B",
"[ 	c #1E6979",
"} 	c #2DA9C1",
"| 	c #C3F4FF",
"1 	c #B6F2FE",
"2 	c #8FEBFC",
"3 	c #80E1F2",
"4 	c #81E9FE",
"5 	c #6EE6FC",
"6 	c #72BBCA",
"7 	c #E7EAEA",
"8 	c #FFFFFE",
"9 	c #F5F5F6",
"0 	c #E7E9E9",
"a 	c #75E6FE",
"b 	c #69E4FE",
"c 	c #58D9F4",
"d 	c #59A0AD",
"e 	c #E8EAEB",
"f 	c #8FE8F9",
"g 	c #87E7FA",
"h 	c #7CE6FA",
"i 	c #71E6FE",
"j 	c #62E3FF",
"k 	c #54E1FE",
"l 	c #45BED7",
"m 	c #5D848E",
"n 	c #F9FAF9",
"o 	c #90DFED",
"p 	c #83E4F7",
"q 	c #72E4FB",
"r 	c #6BE5FE",
"s 	c #5DE2FF",
"t 	c #4FE0FE",
"u 	c #42D8F8",
"v 	c #348395",
"w 	c #9BA6A7",
"x 	c #E1E5E6",
"y 	c #045060",
"z 	c #88D5E2",
"A 	c #8BE5F7",
"B 	c #70E4FC",
"C 	c #56DFFE",
"D 	c #49DFFF",
"E 	c #3DDCFE",
"F 	c #30B1CB",
"G 	c #33555D",
"H 	c #F5F6F5",
"I 	c #D8E6E8",
"J 	c #CFF7FE",
"K 	c #FB9800",
"L 	c #69E3FD",
"M 	c #64E1FC",
"N 	c #62E1FC",
"O 	c #57DDFD",
"P 	c #47DDFE",
"Q 	c #43DEFF",
"R 	c #37DCFF",
"S 	c #2BD1F4",
"T 	c #205A66",
"U 	c #ADB4B5",
"V 	c #D8F8FD",
"W 	c #B3F1FF",
"X 	c #B4F2FF",
"Y 	c #86E1F2",
"Z 	c #53DDFD",
"` 	c #48DAFD",
" .	c #42DEFF",
"..	c #3CDDFF",
"+.	c #31DBFF",
"@.	c #25D8FE",
"#.	c #1B7384",
"$.	c #6A7D82",
"%.	c #C2F4FE",
"&.	c #A2EEFE",
"*.	c #A5EFFE",
"=.	c #A8F0FF",
"-.	c #93E5F3",
";.	c #83E6FA",
">.	c #000500",
",.	c #FCDBA5",
"'.	c #3ADAFD",
").	c #36DAFC",
"!.	c #2ED9FC",
"~.	c #28D9FE",
"{.	c #20D8FE",
"].	c #16889F",
"^.	c #39585F",
"/.	c #ABD8DD",
"(.	c #94ECFE",
"_.	c #83E9FF",
":.	c #87EAFF",
"<.	c #89EAFF",
"[.	c #1FA6C0",
"}.	c #20A6C0",
"|.	c #7DDFF3",
"1.	c #72E4FC",
"2.	c #FCCB7E",
"3.	c #2BD8FC",
"4.	c #24D8FF",
"5.	c #1AD6FE",
"6.	c #1290AA",
"7.	c #22434A",
"8.	c #9CD3DB",
"9.	c #85EAFE",
"0.	c #75E6FF",
"a.	c #78E7FE",
"b.	c #79E7FF",
"c.	c #78E6FC",
"d.	c #68E3FE",
"e.	c #1DD7FF",
"f.	c #14D6FD",
"g.	c #0B8BA4",
"h.	c #1F4047",
"i.	c #95CFD8",
"j.	c #7AE8FE",
"k.	c #65E4FF",
"l.	c #68E5FE",
"m.	c #6AE5FF",
"n.	c #65E2FE",
"o.	c #59DCFA",
"p.	c #F8B449",
"q.	c #FCA726",
"r.	c #0ED4FE",
"s.	c #07758C",
"t.	c #314F54",
"u.	c #9DCFD6",
"v.	c #70E6FE",
"w.	c #57E1FE",
"x.	c #58E2FF",
"y.	c #5AE2FF",
"z.	c #5BE2FF",
"A.	c #58DEFA",
"B.	c #51DAF8",
"C.	c #48DBFC",
"D.	c #F8A114",
"E.	c #09D2FC",
"F.	c #035161",
"G.	c #5F7276",
"H.	c #BFD1D4",
"I.	c #5DE2FB",
"J.	c #4CE0FE",
"K.	c #49DFFE",
"L.	c #4BE0FF",
"M.	c #47D6F3",
"N.	c #3CDBFD",
"O.	c #3FDCFF",
"P.	c #04B3D9",
"Q.	c #023540",
"R.	c #A6AAAA",
"S.	c #F7F7F7",
"T.	c #4ABDD2",
"U.	c #41DEFE",
"V.	c #3DDCFF",
"W.	c #3DDDFF",
"X.	c #3BDBFB",
"Y.	c #35DBFF",
"Z.	c #04D2FB",
"`.	c #02697E",
" +	c #163841",
".+	c #F2F3F3",
"++	c #A0C1C9",
"@+	c #2EC9EA",
"#+	c #30D9FD",
"$+	c #30DBFF",
"%+	c #2FDBFE",
"&+	c #03D3FD",
"*+	c #01A1C2",
"=+	c #023742",
"-+	c #8A9294",
";+	c #FAFBFB",
">+	c #5194A1",
",+	c #22B7D6",
"'+	c #23D5FC",
")+	c #23D8FE",
"!+	c #24D8FE",
"~+	c #24D4F9",
"{+	c #06D2FF",
"]+	c #02D2FE",
"^+	c #02B2D8",
"/+	c #01424F",
"(+	c #374F55",
"_+	c #F8F8F8",
":+	c #E6E8E8",
"<+	c #35727F",
"[+	c #1895B0",
"}+	c #17CCF1",
"|+	c #18D6FE",
"1+	c #19D3FA",
"2+	c #16CFF6",
"3+	c #16D5FF",
"4+	c #01D2FC",
"5+	c #02A3C6",
"6+	c #014351",
"7+	c #1F3E46",
"8+	c #E0E0E0",
"9+	c #FEFFFF",
"0+	c #FFFEFE",
"a+	c #E4E5E4",
"b+	c #3E5C64",
"c+	c #0E5C6D",
"d+	c #0D9BB9",
"e+	c #0DC9F2",
"f+	c #0BD2FA",
"g+	c #02B8DE",
"h+	c #026F86",
"i+	c #013843",
"j+	c #314A50",
"k+	c #DDDDDD",
"l+	c #859091",
"m+	c #133941",
"n+	c #054552",
"o+	c #04667B",
"p+	c #03829D",
"q+	c #028FAC",
"r+	c #028DA9",
"s+	c #017991",
"t+	c #025668",
"u+	c #023843",
"v+	c #0D323A",
"w+	c #7B8587",
"x+	c #F4F5F5",
"y+	c #EDEDED",
"z+	c #959C9E",
"A+	c #4A6066",
"B+	c #1B3A43",
"C+	c #072D36",
"D+	c #18383F",
"E+	c #465D61",
"F+	c #8F9799",
"G+	c #E9E9E9",
". . . . . + @ @ @ # $ % & * = - ; > . . . . ",
". . . . + , ' ) # $ @ ! ~ { ] ^ / ( _ . . . ",
". . . : < , [ } @ @ | 1 2 2 3 4 5 6 7 8 . . ",
". . 9 0 < , [ } @ | @ ) 2 2 2 a b c d e > . ",
". + < < , , , [ [ ' ) ) f g h i j k l m n . ",
"+ , , , , , , , , , ' o p q r r s t u v w > ",
"x ' [ [ , , y [ [ ' z A B r r r C D E F G H ",
"I J } } [ , [ } } K K K L M N O P Q R S T U ",
"V W X 1 [ , [ ) Y K K K K K Z `  ...+.@.#.$.",
"%.&.*.=.' , ' -.;.>.,.,.K K K '.).!.~.{.].^.",
"/.(._.:.<.[.}.|.1.>.,.,.,.2.K K K 3.4.5.6.7.",
"8.9.0.a.b.b.c.r d.>.,.2.2.2.2.K K K e.f.g.h.",
"i.j.k.l.m.m.r n.o.>.2.2.2.p.p.p.q.K K r.s.t.",
"u.v.w.x.y.z.A.B.C.>.2.p.p.p.q.q.q.D.K E.F.G.",
"H.I.J.K.L.L.M.N.O.>.p.p.q.q.q.D.D.D.K P.Q.R.",
"S.T.U.V.W.W.X.Y.Y.>.q.q.q.D.D.D.D.>.Z.`. +.+",
"> ++@+#+$+$+%+Y.Y.>.q.q.D.D.D.>.>.&+*+=+-+. ",
"> ;+>+,+'+4.)+!+~+>.D.D.D.D.>.{+]+^+/+(+_+. ",
". > :+<+[+}+|+1+2+>.D.D.>.>.3+4+5+6+7+8+> . ",
". 9+0+a+b+c+d+e+f+>.>.>.3+3+g+h+i+j+k+0+. . ",
". . . > S.l+m+n+o+p+q+r+s+t+u+v+w+x+> . . . ",
". . . . . . y+z+A+B+C+C+D+E+F+G+. . . . . . "};
