/* XPM */
static char * play_xpm[] = {
"20 20 57 1",
" 	c None",
".	c #E2F2F8",
"+	c #CCF3FB",
"@	c #C5EFFB",
"#	c #DAF2F8",
"$	c #C5F2FC",
"%	c #BCEBFD",
"&	c #B3E7FD",
"*	c #B3E3FD",
"=	c #A9D7FB",
"-	c #B3E2FA",
";	c #BCE8F7",
">	c #D0EBF2",
",	c #C5EFFE",
"'	c #A9D7FD",
")	c #B3E7F4",
"!	c #BCE7FE",
"~	c #9FC3C2",
"{	c #AEE2EF",
"]	c #E2EFF2",
"^	c #C5F2FE",
"/	c #000000",
"(	c #B3E7FB",
"_	c #BCDAE7",
":	c #BCEBEE",
"<	c #D3FAFE",
"[	c #BCEBFA",
"}	c #BCC1C1",
"|	c #BCE7E9",
"1	c #C1EFF8",
"2	c #93BCBF",
"3	c #93B0AE",
"4	c #CCD7D8",
"5	c #C5F3F9",
"6	c #CCF8FB",
"7	c #879B9B",
"8	c #A9C5C5",
"9	c #9FCCD7",
"0	c #B3E7E8",
"a	c #B3DAE2",
"b	c #9FCCCC",
"c	c #87ABAB",
"d	c #A9D0D1",
"e	c #A9DADA",
"f	c #A9AEAE",
"g	c #B3C1C1",
"h	c #B3E2E5",
"i	c #B3B3B3",
"j	c #C5E7EF",
"k	c #799396",
"l	c #626262",
"m	c #6E827F",
"n	c #C5C5C5",
"o	c #7A7A7A",
"p	c #6E6E6E",
"q	c #7A9F9F",
"r	c #585E5E",
"      .+@@@@#       ",
"    .$@%&*=--;>     ",
"   #$,&**'====-)    ",
"  #$@%!~&*'=----{   ",
" ]+$@,^//,!(-(;;)_  ",
" :+$$^<///,@%@[[;{} ",
" |+++$<////@@+@1:23 ",
"4255+66/////++55537 ",
"8290|0a//////6:0b3c4",
"8~~bdde///////b~2~cf",
"g2ddead//////~dd~~37",
"g2dddda/////dbdb~~33",
" 3~daad////h0hddb~2i",
" c2dded///a:j0edd8k ",
" }c~9eh//a0|:haed2l ",
"  k3dde~000|0hhedmf ",
"  n72bee0|:|hhadko  ",
"   7k2beah00hd~mp   ",
"    npq2bddb2oro    ",
"      ilrllrlo      "};
