/* XPM */
static const char * prelistenEnd_xpm[] = {
"22 22 420 2",
"  	c None",
". 	c #FFFEFE",
"+ 	c #FFFFFE",
"@ 	c #FEFDFC",
"# 	c #FEFCF8",
"$ 	c #FEFAF0",
"% 	c #FEF6E8",
"& 	c #FCF1DD",
"* 	c #EFDFC4",
"= 	c #DCCAA9",
"- 	c #D7BF9A",
"; 	c #DEC59A",
"> 	c #F4DBB0",
", 	c #F7E5C5",
"' 	c #F6EDE1",
") 	c #FAFAF5",
"! 	c #FDFEFD",
"~ 	c #FEFFFE",
"{ 	c #FEFDFA",
"] 	c #FFFFFD",
"^ 	c #FEFFFF",
"/ 	c #FDFDFD",
"( 	c #FAF7F2",
"_ 	c #FDF7ED",
": 	c #FFF6E7",
"< 	c #FBF1DD",
"[ 	c #E4D9C2",
"} 	c #ABA08A",
"| 	c #6C6351",
"1 	c #594E3C",
"2 	c #716045",
"3 	c #C4A46A",
"4 	c #F2CB89",
"5 	c #F9DFB5",
"6 	c #F4EBDA",
"7 	c #FAFBF7",
"8 	c #FDFEFE",
"9 	c #FDF8F3",
"0 	c #FBF4E6",
"a 	c #FEFEFF",
"b 	c #F6F4F0",
"c 	c #F6EEDF",
"d 	c #FEF3E0",
"e 	c #FFF2DE",
"f 	c #E8DFC8",
"g 	c #676055",
"h 	c #0F0E0D",
"i 	c #030402",
"j 	c #030302",
"k 	c #030303",
"l 	c #261E13",
"m 	c #B48E4E",
"n 	c #FAC56F",
"o 	c #FADFB6",
"p 	c #F1ECE0",
"q 	c #FEFDFD",
"r 	c #F4EDE0",
"s 	c #EDD1A5",
"t 	c #FDFFFD",
"u 	c #FAF8F8",
"v 	c #E7E0D4",
"w 	c #FAEBD4",
"x 	c #FEEED3",
"y 	c #F0E4CB",
"z 	c #514E47",
"A 	c #25221C",
"B 	c #494234",
"C 	c #6D5E48",
"D 	c #695A3F",
"E 	c #675435",
"F 	c #403420",
"G 	c #291F13",
"H 	c #C79746",
"I 	c #FCC36C",
"J 	c #F6DFBB",
"K 	c #F3F1EF",
"L 	c #E8E6E1",
"M 	c #B39362",
"N 	c #FDF8EC",
"O 	c #FFFEFF",
"P 	c #E2E0DC",
"Q 	c #E8D9C2",
"R 	c #FDE9C7",
"S 	c #FCE9C6",
"T 	c #978D7B",
"U 	c #62471B",
"V 	c #AE9F81",
"W 	c #A08D6C",
"X 	c #AC946E",
"Y 	c #D6B77D",
"Z 	c #DEB471",
"` 	c #BE9B59",
" .	c #94753B",
"..	c #674D23",
"+.	c #F3B246",
"@.	c #FACD82",
"#.	c #EDE2CD",
"$.	c #E8E6E3",
"%.	c #836338",
"&.	c #FBE7C1",
"*.	c #FEFCF9",
"=.	c #FEFEFE",
"-.	c #CDC6BB",
";.	c #F1D9B7",
">.	c #FDE3B9",
",.	c #E4D0AA",
"'.	c #71582F",
").	c #6B4913",
"!.	c #DEC69A",
"~.	c #E6C693",
"{.	c #DEBD85",
"].	c #BEA069",
"^.	c #C2A064",
"/.	c #B5904F",
"(.	c #B18943",
"_.	c #614415",
":.	c #996B22",
"<.	c #FBB84D",
"[.	c #F0D7AD",
"}.	c #E3DDD4",
"|.	c #725021",
"1.	c #F9CA7D",
"2.	c #FDF3E1",
"3.	c #C3B7A2",
"4.	c #F8D9A9",
"5.	c #FDDEAC",
"6.	c #645B49",
"7.	c #8A6C37",
"8.	c #F0CF98",
"9.	c #FDD597",
"0.	c #F7CD88",
"a.	c #D4AD69",
"b.	c #D2A962",
"c.	c #D1A051",
"d.	c #C79643",
"e.	c #322309",
"f.	c #FAAC2E",
"g.	c #F7C87B",
"h.	c #EECD98",
"i.	c #AE7012",
"j.	c #F9AD35",
"k.	c #FCE0B3",
"l.	c #FEFBF4",
"m.	c #C6B293",
"n.	c #FCD699",
"o.	c #FCD89E",
"p.	c #020201",
"q.	c #A68B5C",
"r.	c #C2A26B",
"s.	c #FCD391",
"t.	c #FCD08A",
"u.	c #FDCB7F",
"v.	c #FCC874",
"w.	c #FAC267",
"x.	c #FBBC59",
"y.	c #E9AA45",
"z.	c #A98443",
"A.	c #FAA722",
"B.	c #FAB13E",
"C.	c #F9B446",
"D.	c #EC9308",
"E.	c #FA9C0B",
"F.	c #FCC46E",
"G.	c #FEF0D8",
"H.	c #CCB088",
"I.	c #FDD18A",
"J.	c #FBD390",
"K.	c #A78C60",
"L.	c #F0C683",
"M.	c #FBCE84",
"N.	c #FCCB7C",
"O.	c #FCC673",
"P.	c #FBC267",
"Q.	c #FBBE5D",
"R.	c #FBB84F",
"S.	c #F9B242",
"T.	c #A87726",
"U.	c #FAA41E",
"V.	c #FAA015",
"W.	c #F99D0D",
"X.	c #F89A03",
"Y.	c #FA9801",
"Z.	c #FAA82A",
"`.	c #FDDAA5",
" +	c #CCAB7A",
".+	c #FCCC7D",
"++	c #FBCC82",
"@+	c #9A7D4A",
"#+	c #E9BD74",
"$+	c #FBC977",
"%+	c #FCC66E",
"&+	c #FBC266",
"*+	c #FCBE5D",
"=+	c #FBB953",
"-+	c #FCB446",
";+	c #F7AD38",
">+	c #96691E",
",+	c #F9A219",
"'+	c #F99E0E",
")+	c #F99904",
"!+	c #F99700",
"~+	c #F99800",
"{+	c #F99A06",
"]+	c #C7A36A",
"^+	c #FDC56F",
"/+	c #FCC671",
"(+	c #0E0B06",
"_+	c #674713",
":+	c #A18654",
"<+	c #FBC468",
"[+	c #FCC063",
"}+	c #FABD5B",
"|+	c #FBB951",
"1+	c #FBB647",
"2+	c #FBB13B",
"3+	c #E39F2D",
"4+	c #946516",
"5+	c #0C0802",
"6+	c #F9A013",
"7+	c #F99C0A",
"8+	c #F99902",
"9+	c #F89901",
"0+	c #FB9801",
"a+	c #F99801",
"b+	c #FAA013",
"c+	c #B4925D",
"d+	c #FCBF5E",
"e+	c #FAC163",
"f+	c #BF944C",
"g+	c #342814",
"h+	c #7D5F33",
"i+	c #FCBF5C",
"j+	c #FBBA54",
"k+	c #FAB84B",
"l+	c #FBB445",
"m+	c #FAB03C",
"n+	c #FAAD32",
"o+	c #734F15",
"p+	c #120B03",
"q+	c #A0670D",
"r+	c #FA9D0C",
"s+	c #F99A04",
"t+	c #FA9802",
"u+	c #F99804",
"v+	c #987C4E",
"w+	c #F9B853",
"x+	c #FBBB54",
"y+	c #9B7637",
"z+	c #0A0804",
"A+	c #18120A",
"B+	c #B49357",
"C+	c #FBB548",
"D+	c #FAB240",
"E+	c #FAAF3B",
"F+	c #FBAC31",
"G+	c #855B18",
"H+	c #150F04",
"I+	c #030301",
"J+	c #965E09",
"K+	c #FB9C07",
"L+	c #F89902",
"M+	c #F99701",
"N+	c #F19303",
"O+	c #75603D",
"P+	c #E6A845",
"Q+	c #FAB646",
"R+	c #A27730",
"S+	c #7C5C27",
"T+	c #FBAE35",
"U+	c #FAAA2F",
"V+	c #FBA827",
"W+	c #050301",
"X+	c #764E10",
"Y+	c #EF9101",
"Z+	c #E78E01",
"`+	c #F39401",
" @	c #F99802",
".@	c #F69902",
"+@	c #DE9322",
"@@	c #6B5C46",
"#@	c #BC8937",
"$@	c #F9B03A",
"%@	c #BE872C",
"&@	c #FAAC2F",
"*@	c #FBA92A",
"=@	c #F9A724",
"-@	c #FBA41E",
";@	c #040301",
">@	c #F39502",
",@	c #A46509",
"'@	c #926012",
")@	c #AC6A04",
"!@	c #F89702",
"~@	c #EB920A",
"{@	c #E4BC82",
"]@	c #8B8377",
"^@	c #826029",
"/@	c #E7A02E",
"(@	c #DA9527",
"_@	c #120C03",
":@	c #060401",
"<@	c #9A6918",
"[@	c #FAA724",
"}@	c #FBA520",
"|@	c #F9A31B",
"1@	c #FBA115",
"2@	c #734C0D",
"3@	c #362201",
"4@	c #AD6E0B",
"5@	c #E38B02",
"6@	c #8F7249",
"7@	c #988874",
"8@	c #6E4812",
"9@	c #F29402",
"0@	c #DF9B38",
"a@	c #F4EAD8",
"b@	c #C7C4C1",
"c@	c #625033",
"d@	c #AF7822",
"e@	c #E69A20",
"f@	c #5D3E0B",
"g@	c #412A06",
"h@	c #DB931A",
"i@	c #FAA116",
"j@	c #FA9F13",
"k@	c #FA9E0D",
"l@	c #955F06",
"m@	c #402801",
"n@	c #9E6202",
"o@	c #EB8F01",
"p@	c #C17F19",
"q@	c #C9C0B1",
"r@	c #E4E1DD",
"s@	c #5F441F",
"t@	c #E28F0E",
"u@	c #E4C492",
"v@	c #FDFDFA",
"w@	c #F9F9F9",
"x@	c #8B8378",
"y@	c #644921",
"z@	c #C68216",
"A@	c #CB8513",
"B@	c #BC790F",
"C@	c #F09B13",
"D@	c #FA9E10",
"E@	c #FA9D0D",
"F@	c #FA9C0A",
"G@	c #FA9B06",
"H@	c #D18103",
"I@	c #C27900",
"J@	c #E08902",
"K@	c #B7740C",
"L@	c #AC9068",
"M@	c #F8F9F6",
"N@	c #ECECE8",
"O@	c #624621",
"P@	c #D79B42",
"Q@	c #F9F5ED",
"R@	c #EAEAEA",
"S@	c #695D4F",
"T@	c #5F4213",
"U@	c #BB750E",
"V@	c #ED960C",
"W@	c #F5990C",
"X@	c #F79A07",
"Y@	c #F89907",
"Z@	c #F49601",
"`@	c #F29302",
" #	c #DD8703",
".#	c #98610A",
"+#	c #7A6446",
"@#	c #E4E3E0",
"##	c #EEEBE9",
"$#	c #674D2C",
"%#	c #E7D2B4",
"&#	c #FEFEFD",
"*#	c #DFDFDD",
"=#	c #67594C",
"-#	c #47300A",
";#	c #8A5606",
">#	c #C67A03",
",#	c #E18B02",
"'#	c #E99001",
")#	c #E68C02",
"!#	c #D58002",
"~#	c #A96701",
"{#	c #653D07",
"]#	c #685846",
"^#	c #DBDBD9",
"/#	c #FDFDFC",
"(#	c #EEECE8",
"_#	c #91816E",
":#	c #FAFBF9",
"<#	c #FEFFFD",
"[#	c #FFFFFF",
"}#	c #E0DEDD",
"|#	c #9B948C",
"1#	c #5B4932",
"2#	c #53370C",
"3#	c #5C3802",
"4#	c #643D02",
"5#	c #613A01",
"6#	c #59390B",
"7#	c #5F4A2D",
"8#	c #999084",
"9#	c #DFDDDA",
"0#	c #FAFAF9",
"a#	c #F7F6F4",
"b#	c #E4E0DA",
"c#	c #FCFCFC",
"d#	c #E9E8E7",
"e#	c #C7C5C0",
"f#	c #B2ABA2",
"g#	c #9E9486",
"h#	c #94897A",
"i#	c #9D9284",
"j#	c #B3ACA1",
"k#	c #C6C3BE",
"l#	c #E6E5E3",
"m#	c #FBFBFA",
". + @ # $ % & * = - ; > , ' ) ! ~ @ { ] ~ + ",
"^ / ( _ : < [ } | 1 2 3 4 5 6 7 8 9 0 + . ] ",
"a b c d e f g h i j k l m n o p q r s t ] a ",
"u v w x y z A B C D E F G H I J K L M N O ^ ",
"P Q R S T U V W X Y Z `  ...+.@.#.$.%.&.*.=.",
"-.;.>.,.'.).!.~.{.].^./.(._.:.<.[.}.|.1.2.=.",
"3.4.5.6.7.7.8.9.0.a.b.c.d.7.e.f.g.h.i.j.k.l.",
"m.n.o.p.q.r.s.t.u.v.w.x.y.z.p.A.B.C.D.E.F.G.",
"H.I.J.p.K.L.M.N.O.P.Q.R.S.T.p.U.V.W.X.Y.Z.`.",
" +.+++p.@+#+$+%+&+*+=+-+;+>+p.,+'+)+!+~+{+*+",
"]+^+/+(+_+:+<+[+}+|+1+2+3+4+5+6+7+8+9+0+a+b+",
"c+d+e+f+g+h+i+j+k+l+m+n+o+p+q+r+s+Y.t+a+a+u+",
"v+w+x+y+z+A+B+C+D+E+F+G+H+I+J+K+L+a+M+8+a+N+",
"O+P+Q+R+p.p.S+m+T+U+V+).p.W+X+)+Y+Z+`+ @.@+@",
"@@#@$@%@p.p.).&@*@=@-@).p.;@).>@,@'@)@!@~@{@",
"]@^@/@(@_@:@<@[@}@|@1@2@p.3@4@5@6@7@8@9@0@a@",
"b@c@d@e@f@g@h@,+i@j@k@l@m@n@o@p@q@r@s@t@u@v@",
"w@x@y@z@A@B@C@D@E@F@G@H@I@J@K@L@M@N@O@P@Q@=.",
"a R@S@T@U@V@W@X@Y@.@Z@`@ #.#+#@#t ##$#%#&#8 ",
"] 8 *#=#-#;#>#,#'#)#!#~#{#]#^#/#~ (#_#:#<#&#",
"[#O :#}#|#1#2#3#4#5#6#7#8#9#0#=.~ a#b#~ a &#",
"[#[#+ c#d#e#f#g#h#i#j#k#l#c#[#[#[#/ m#[#[#+ "};
