/* XPM */
static const char * prelistenMiddle_xpm[] = {
"22 22 330 2",
"  	c None",
". 	c #FFFFFF",
"+ 	c #FEFEFE",
"@ 	c #FFFFFD",
"# 	c #FCFCF9",
"$ 	c #FCFCF8",
"% 	c #FEFDF9",
"& 	c #FEFBF6",
"* 	c #FBF7EF",
"= 	c #FAF6F1",
"- 	c #FDFCFA",
"; 	c #FFFEFD",
"> 	c #FEFEFD",
", 	c #FCFCFB",
"' 	c #F9F6F2",
") 	c #FDF8EF",
"! 	c #FFF9EE",
"~ 	c #FDF8ED",
"{ 	c #FEF7E8",
"] 	c #FEF4E1",
"^ 	c #FDEFD4",
"/ 	c #F7E7CC",
"( 	c #F6F3EB",
"_ 	c #FDFEFD",
": 	c #FFFFFE",
"< 	c #F9F8F6",
"[ 	c #F4F1EB",
"} 	c #FEFFFE",
"| 	c #FBFAFB",
"1 	c #F7F3EA",
"2 	c #FDF2DB",
"3 	c #F8EBD3",
"4 	c #A19D8F",
"5 	c #5E5A55",
"6 	c #706C62",
"7 	c #BEB5A1",
"8 	c #FBE7C3",
"9 	c #FDE2B6",
"0 	c #F2D3A6",
"a 	c #EFECE3",
"b 	c #FFFEFF",
"c 	c #FBFBFA",
"d 	c #EDEBE7",
"e 	c #FEFFFF",
"f 	c #FEFDFD",
"g 	c #E2DBCD",
"h 	c #E8D6BB",
"i 	c #F4F0E7",
"j 	c #FDEBCD",
"k 	c #F8E3BB",
"l 	c #726C5B",
"m 	c #070605",
"n 	c #010101",
"o 	c #0D0C0A",
"p 	c #877B65",
"q 	c #F9DAA7",
"r 	c #FBD18F",
"s 	c #CAAE81",
"t 	c #F7F7F4",
"u 	c #FEFCF8",
"v 	c #DCC49D",
"w 	c #FBFBF9",
"x 	c #F6F7F6",
"y 	c #CAB28D",
"z 	c #BA7202",
"A 	c #F4F3EE",
"B 	c #F8E9CE",
"C 	c #FDDBA4",
"D 	c #958669",
"E 	c #23201A",
"F 	c #756B58",
"G 	c #887C68",
"H 	c #887D67",
"I 	c #5A5042",
"J 	c #1F1B15",
"K 	c #92805D",
"L 	c #FBCF83",
"M 	c #D8A656",
"N 	c #B4A999",
"O 	c #FEFAF4",
"P 	c #7B531B",
"Q 	c #C8C3BE",
"R 	c #FFFEFE",
"S 	c #E0DBD0",
"T 	c #EFE7D7",
"U 	c #FDD494",
"V 	c #EDC784",
"W 	c #61543D",
"X 	c #CBBA91",
"Y 	c #F3DAAF",
"Z 	c #F6E1B3",
"` 	c #BBA987",
" .	c #BCA881",
"..	c #CCB484",
"+.	c #5F4F38",
"@.	c #E1B46C",
"#.	c #F6B54F",
"$.	c #82663D",
"%.	c #F3EFE6",
"&.	c #F6F6F5",
"*.	c #E2CBA5",
"=.	c #BBB0A2",
"-.	c #F0D6AB",
";.	c #FABB54",
">.	c #AF8849",
",.	c #C4A86F",
"'.	c #AB9167",
").	c #A28B65",
"!.	c #A58F6B",
"~.	c #EECF98",
"{.	c #FDD89D",
"].	c #D4B47C",
"^.	c #523811",
"/.	c #B58F4F",
"(.	c #FCB747",
"_.	c #A46F21",
":.	c #D2C4AE",
"<.	c #FAC470",
"[.	c #BFB8AF",
"}.	c #DCD4C9",
"|.	c #E48C04",
"1.	c #EBB259",
"2.	c #F9C062",
"3.	c #FAA620",
"4.	c #C89E59",
"5.	c #F2C985",
"6.	c #FDD492",
"7.	c #FCD694",
"8.	c #FCD291",
"9.	c #FCD18B",
"0.	c #FBCD82",
"a.	c #C59E5C",
"b.	c #FAB23C",
"c.	c #F19D19",
"d.	c #F5B352",
"e.	c #FAB64A",
"f.	c #805F33",
"g.	c #E6CDA3",
"h.	c #F99803",
"i.	c #FA9F12",
"j.	c #FA9C0C",
"k.	c #F99B0B",
"l.	c #B1873F",
"m.	c #FDC874",
"n.	c #FCCC81",
"o.	c #FCCD82",
"p.	c #FCCC80",
"q.	c #FCCA7B",
"r.	c #FCC875",
"s.	c #B28B4B",
"t.	c #FBAB2E",
"u.	c #FA9E0D",
"v.	c #F99D0B",
"w.	c #F89A07",
"x.	c #F99701",
"y.	c #FA9803",
"z.	c #F99802",
"A.	c #FA9701",
"B.	c #F89902",
"C.	c #B38331",
"D.	c #FBC163",
"E.	c #FCC66F",
"F.	c #FCC672",
"G.	c #FCC570",
"H.	c #FCC46A",
"I.	c #FBC164",
"J.	c #DBA64D",
"K.	c #FAA621",
"L.	c #F99B08",
"M.	c #F99801",
"N.	c #F99800",
"O.	c #FA9802",
"P.	c #FA9801",
"Q.	c #FA9800",
"R.	c #F89F0D",
"S.	c #F5B652",
"T.	c #FBBF5F",
"U.	c #FBC062",
"V.	c #FBBE60",
"W.	c #FBBE5A",
"X.	c #FBBC56",
"Y.	c #F7B64A",
"Z.	c #FAA219",
"`.	c #F99A05",
" +	c #A76905",
".+	c #060301",
"++	c #B78735",
"@+	c #FBB84F",
"#+	c #FBB952",
"$+	c #FBB74C",
"%+	c #E7A842",
"&+	c #37290F",
"*+	c #8D601A",
"=+	c #FBA115",
"-+	c #F99903",
";+	c #945F06",
">+	c #010103",
",+	c #855F20",
"'+	c #FBB240",
")+	c #FBB242",
"!+	c #FAB23D",
"~+	c #080503",
"{+	c #4E340B",
"]+	c #F9A415",
"^+	c #FB9905",
"/+	c #F99700",
"(+	c #F89701",
"_+	c #ED9202",
":+	c #F19404",
"<+	c #090602",
"[+	c #FBAE32",
"}+	c #FAAD33",
"|+	c #FAAC32",
"1+	c #F9AB2E",
"2+	c #020102",
"3+	c #FAA013",
"4+	c #EF9505",
"5+	c #E18901",
"6+	c #F49400",
"7+	c #AA7624",
"8+	c #693F01",
"9+	c #BF9B67",
"0+	c #C97B02",
"a+	c #583705",
"b+	c #764907",
"c+	c #F49A09",
"d+	c #F6A423",
"e+	c #F8A825",
"f+	c #FAA723",
"g+	c #FBA622",
"h+	c #010002",
"i+	c #8E5D0C",
"j+	c #F49A0C",
"k+	c #6E4609",
"l+	c #593E18",
"m+	c #D68609",
"n+	c #594631",
"o+	c #E8E3DA",
"p+	c #9C6002",
"q+	c #AEA699",
"r+	c #B5A78E",
"s+	c #E48E0B",
"t+	c #FA9F10",
"u+	c #603E08",
"v+	c #120C03",
"w+	c #DE9317",
"x+	c #FBA11B",
"y+	c #F9A217",
"z+	c #89570E",
"A+	c #040302",
"B+	c #B77408",
"C+	c #B47108",
"D+	c #695941",
"E+	c #E8E3D9",
"F+	c #F0AE45",
"G+	c #653E05",
"H+	c #B2AEA5",
"I+	c #C2A378",
"J+	c #905801",
"K+	c #C6C1B6",
"L+	c #F8F8F7",
"M+	c #AC7D36",
"N+	c #EB9208",
"O+	c #F39A09",
"P+	c #BD7A09",
"Q+	c #F0980F",
"R+	c #F79F0F",
"S+	c #F99E0F",
"T+	c #FB9D0B",
"U+	c #DE8D0A",
"V+	c #BB7703",
"W+	c #E18B04",
"X+	c #4D3005",
"Y+	c #CCC8C3",
"Z+	c #FEFAF5",
"`+	c #61513A",
" @	c #F9F9FA",
".@	c #FEFFFC",
"+@	c #EBEAE4",
"@@	c #D7D2CA",
"#@	c #7F5312",
"$@	c #DC8804",
"%@	c #FA9A06",
"&@	c #FB9A06",
"*@	c #F99A04",
"=@	c #F99A03",
"-@	c #E08802",
";@	c #5F3A03",
">@	c #8F8679",
",@	c #FDFCFD",
"'@	c #FDFBF4",
")@	c #BFBBB7",
"!@	c #FDFFFE",
"~@	c #A09587",
"{@	c #B4AFAA",
"]@	c #644519",
"^@	c #A96702",
"/@	c #DF8801",
"(@	c #F29401",
"_@	c #F29501",
":@	c #E48C01",
"<@	c #B26D03",
"[@	c #583806",
"}@	c #7C7161",
"|@	c #FEFDFE",
"1@	c #F9F8F1",
"2@	c #938169",
"3@	c #FAFAF9",
"4@	c #FDFFFD",
"5@	c #EBEBE8",
"6@	c #E0DFDB",
"7@	c #FEFEFF",
"8@	c #D1CDCB",
"9@	c #6A5C48",
"0@	c #503610",
"a@	c #5F3A01",
"b@	c #603A01",
"c@	c #503307",
"d@	c #544129",
"e@	c #A7A097",
"f@	c #F7F7F7",
"g@	c #FDFEFE",
"h@	c #FAF9F8",
"i@	c #E3E0DF",
"j@	c #F5F5F4",
"k@	c #DDDBD6",
"l@	c #BBB5AF",
"m@	c #B2ACA7",
"n@	c #D1CDC8",
"o@	c #EBEBE9",
". . . + . . @ + # $ % & * = - ; > > . . . . ",
". . . . + . , ' ) ! ~ { ] ^ / ( _ : . + . . ",
". . < [ } | 1 2 3 4 5 6 7 8 9 0 a b c d . e ",
"} f g h > i j k l m n n o p q r s t u v w + ",
"} x y z A B C D E F G H I J K L M N O P Q R ",
": S P z T U V W X Y Z `  ...+.@.#.$.%.P P c ",
"&.*.P =.-.;.>.,.'.).!.~.{.].^./.(._.:.<.P [.",
"}.P |.1.2.3.^.4.5.6.7.8.9.0.a.^.b.c.d.e.P f.",
"g.P h.i.j.k.^.l.m.n.o.p.q.r.s.^.t.u.v.w.x.P ",
"P y.z.A.B.z.^.C.D.E.F.G.H.I.J.^.K.L.M.N.O.P ",
"P P.A.Q.x.P.R.^.S.T.U.V.W.X.Y.^.Z.`.P.P.M.z ",
"z P.M.N.P.P. +.+++@+#+@+$+%+&+*+=+-+Q.Q.z.P ",
"P P.M.Q.P.O.;+>+,+'+)+'+!+^.~+{+]+^+Q./+M.P ",
"P P.(+_+:+`.^.<+<+[+}+|+1+<+2+<+3+4+5+6+7+8+",
"9+P 0+a+b+c+^.<+<+d+e+f+g+<+h+i+j+k+l+m+z n+",
"o+P p+q+r+s+t+u+v+w+Z.x+y+z+A+B+C+D+E+F+G+H+",
"+ I+J+K+L+M+N+O+P+Q+R+S+T+U+V+W+X+Y+Z+P `+ @",
".@+@P z + @@#@$@%@`.&@`.*@=@-@;@>@,@'@P )@!@",
"} > ~@z e + {@]@^@/@(@_@:@<@[@}@&.|@1@2@3@. ",
"+ 4@5@6@7@+ > 8@9@0@a@b@c@d@e@f@g@> h@i@} . ",
"+ : > + b 7@+ g@j@k@l@m@n@o@f > _ + > > . . ",
". . . . . . . . . . . . . . . . . . . . . . "};
