/* XPM */
static char * skipbackward_xpm[] = {
"19 20 63 1",
" 	c None",
".	c #E2F8FC",
"+	c #CDF2FB",
"@	c #C5EFFC",
"#	c #BCE8F8",
"$	c #BCEBF1",
"%	c #DAF2F9",
"&	c #BCE9FE",
"*	c #B3E3FD",
"=	c #A9DAF9",
"-	c #D0EBF2",
";	c #C5F2FD",
">	c #A9D6FC",
",	c #B3E2F5",
"'	c #C5E7EF",
")	c #C5F4F9",
"!	c #BCDAE7",
"~	c #CCF5FC",
"{	c #A9D7F3",
"]	c #CBF5FF",
"^	c #D2F9FF",
"/	c #93C1DD",
"(	c #B4E7F3",
"_	c #C5D3DA",
":	c #000000",
"<	c #81B3CC",
"[	c #DAFCFF",
"}	c #9FCCE7",
"|	c #687A87",
"1	c #93BCBF",
"2	c #CCE2E2",
"3	c #6F8DA2",
"4	c #A9D3E5",
"5	c #586569",
"6	c #C1EFF8",
"7	c #879F9D",
"8	c #CCD3D7",
"9	c #9FCCCE",
"0	c #7A9FAE",
"a	c #4E5862",
"b	c #B2E2E7",
"c	c #87ADAB",
"d	c #A9A9A9",
"e	c #9FBCBC",
"f	c #AEDADD",
"g	c #B3E7E8",
"h	c #4E4E58",
"i	c #93A9A9",
"j	c #9DC5C4",
"k	c #93B3AE",
"l	c #A9CFD0",
"m	c #444444",
"n	c #6E8D8C",
"o	c #BCC5C1",
"p	c #7A9393",
"q	c #BCE9EA",
"r	c #6E6E6E",
"s	c #A9B3B3",
"t	c #626569",
"u	c #878787",
"v	c #C5C5C5",
"w	c #939393",
"x	c #B3B3B3",
"      .+@@#$%      ",
"    +@@&**=*##-    ",
"   +;&&*>>>>*=,'   ",
"  );@&&**>>==*,,!  ",
" %~;{{]^]{*>=/#(,_ ",
" +~@:<[[}:{#|:##(1 ",
"2)~+:3^4::{5::(6(78",
"19)+:0/:::a:::b6bcd",
"e1fg:h::::::::f41ic",
"1jjj::::::::::cjjkc",
"ejll:m::::::::jjjkk",
"c1jj:nn:::a:::jjjj7",
"oelj:p9p::f5::lljj3",
" cj9:pbf7:gq7:fl9jr",
" 71901fgbjg'qjfflcs",
" oi19l4gggqgggfljt ",
"  ukj9fbb$$qgffjtv ",
"   pcjlffggfflitw  ",
"    wn7jllljit5x   ",
"      55rtt55x     "};
