/* XPM */
static const char * skipforward_xpm[] = {
"20 20 62 1",
" 	c None",
".	c #E7F2F5",
"+	c #CDF2FA",
"@	c #BCEBFB",
"#	c #C5EFFC",
"$	c #C5EFFA",
"%	c #DAF2FA",
"&	c #D3F8FD",
"*	c #BCEBFD",
"=	c #B3E3FC",
"-	c #A9DAF9",
";	c #BCE7F8",
">	c #B1E2F2",
",	c #C5F2FD",
"'	c #9FCCFC",
")	c #E2EDF2",
"!	c #CCF5FC",
"~	c #BCE7FE",
"{	c #B3E5FE",
"]	c #A9D5FC",
"^	c #A9D7F3",
"/	c #D3E2DE",
"(	c #C5F2FA",
"_	c #CEF6FF",
":	c #6E87A4",
"<	c #A9DAEB",
"[	c #DAEFF2",
"}	c #000000",
"|	c #DAFCFF",
"1	c #81B3CC",
"2	c #BCBCBC",
"3	c #B3DAE2",
"4	c #C1EFF8",
"5	c #9FCCD0",
"6	c #B3E7F4",
"7	c #A9CCCF",
"8	c #7A9898",
"9	c #93BDC1",
"0	c #B3E5E7",
"a	c #CCF8FA",
"b	c #BCEBEE",
"c	c #B8E7EF",
"d	c #A9D7D7",
"e	c #72939D",
"f	c #CCDADA",
"g	c #9FC4C3",
"h	c #626E72",
"i	c #87B0AD",
"j	c #879C9C",
"k	c #D3D3D3",
"l	c #93B1AE",
"m	c #B3B8B8",
"n	c #4E4E58",
"o	c #627A7A",
"p	c #6E8484",
"q	c #C5C5C5",
"r	c #C5E7EF",
"s	c #BCE7E9",
"t	c #A9B3B3",
"u	c #7A7A7A",
"v	c #586060",
"w	c #626262",
"      .+@#$$%       ",
"     &#*===--;>     ",
"   .,#*==''---->)   ",
"  )!,#~~{=]]]-->^/  ",
"  (!##*__^===-:>><  ",
" [!!,@}+|1}@@-}>><2 ",
" 3+,+4}}#5}}$;}<678 ",
" 90a!4}}}:}}}b}<cde ",
"fg9bb5}}}}}}}h}99ijk",
"fg575g}}}}}}}}}lllim",
"/g7d7g}}}}}}}n}9glll",
" 973d9}}}h}}}i}gg9lj",
" g7ddg}}lo}}0l}55gg2",
" j9ddg}g5p}bbd}d7gj2",
" ql7d55d390rb0lddgp ",
"  e95dd300bbs00d7et ",
"  q8g5d00sbs003d8u  ",
"   qpg5d30000dguv   ",
"    qvel57d7gewu    ",
"      mvwwwwvu      "};
