/* XPM */
static char * stop_xpm[] = {
"20 20 64 1",
" 	c None",
".	c #E2F5FA",
"+	c #D3F5FC",
"@	c #C5F1FD",
"#	c #BCEBF7",
"$	c #DAF2F9",
"%	c #BCE7FE",
"&	c #A9D8FA",
"*	c #B3E3FC",
"=	c #BCE7F8",
"-	c #D0EBF2",
";	c #D0F1F8",
">	c #A9D7FD",
",	c #9FCCFC",
"'	c #A9DAF8",
")	c #B2E6EC",
"!	c #BCEBFD",
"~	c #B3E5FE",
"{	c #B3E2F5",
"]	c #A9DAEB",
"^	c #E2EFF2",
"/	c #CCF2FB",
"(	c #C5F2FF",
"_	c #D0F8FF",
":	c #CCF5FF",
"<	c #A9D0D1",
"[	c #BCE9EC",
"}	c #CCF5FC",
"|	c #B3E7F4",
"1	c #9FD3EB",
"2	c #93BCE5",
"3	c #93BCDA",
"4	c #C5EFF4",
"5	c #000000",
"6	c #7AA2B1",
"7	c #C5F1F8",
"8	c #93BCBD",
"9	c #93A8A8",
"0	c #CCD7D8",
"a	c #C5F5FA",
"b	c #BCEFF4",
"c	c #93B3B1",
"d	c #7A9393",
"e	c #B3C5C5",
"f	c #93C5C7",
"g	c #9FCCCF",
"h	c #B3DAE2",
"i	c #9FC5C3",
"j	c #87A2A2",
"k	c #626E7A",
"l	c #B3B6B6",
"m	c #A9DADA",
"n	c #6E8781",
"o	c #BCC5BC",
"p	c #BCCCCC",
"q	c #7AA2A2",
"r	c #C5C5C5",
"s	c #B3E5E6",
"t	c #586060",
"u	c #7A7A7A",
"v	c #939393",
"w	c #719399",
"x	c #6E7676",
"y	c #626262",
"      .+@@@#$       ",
"    .@@%%&***=-     ",
"   ;@@%*>>,&&&')    ",
"  $@@!%%~*>>*&'{]   ",
" ^/@@@(_:%**&*={{<  ",
" [/@@})|{12331==|<  ",
" 4}}/#555555567=#89 ",
"087a}455555556#7bcd ",
"efg))g55555556hhi9j ",
"iiig<i5555555kcffcj0",
"li<m<85555555ni<icco",
"p8<m<i5555555diiifcl",
" i<<hi5555555q<giijr",
" 9i<m<69qc8fimm<<in ",
" 9cg<hgshs)[[smm<8t ",
"  j8gmmss)[[sshmgu  ",
"  9qigms)[[[[hm<dv  ",
"   vwi<mhssshmixx   ",
"    lxqig<<gcwtv    ",
"      ltyyytyu      "};
