/* XPM */
static const char * toFromPlaylist_xpm[] = {
"22 22 397 2",
"  	c None",
". 	c #FFFFFF",
"+ 	c #FEFEFE",
"@ 	c #FAFAFA",
"# 	c #ECECED",
"$ 	c #E6E8E9",
"% 	c #E4EDED",
"& 	c #E6F7F8",
"* 	c #DFF6FA",
"= 	c #D5F6FA",
"- 	c #C4EFF4",
"; 	c #B4DEE3",
"> 	c #B4D8DD",
", 	c #D9E3E4",
"' 	c #FAFBF8",
") 	c #FCFEFC",
"! 	c #FFFEFF",
"~ 	c #FDFDFD",
"{ 	c #ECEDED",
"] 	c #EFEFEF",
"^ 	c #F6F9FA",
"/ 	c #F0FCFE",
"( 	c #E3FBFE",
"_ 	c #D6F8FE",
": 	c #D64C37",
"< 	c #BDF3FD",
"[ 	c #B0F1FF",
"} 	c #A5F0FE",
"| 	c #9EF1FD",
"1 	c #8CE5F1",
"2 	c #8CD2DF",
"3 	c #D2E0E3",
"4 	c #FEFEFD",
"5 	c #FFFFFE",
"6 	c #FEFFFF",
"7 	c #F9FAFA",
"8 	c #EAEBEB",
"9 	c #F3F6F6",
"0 	c #F5FDFE",
"a 	c #EEFBFF",
"b 	c #E4FAFF",
"c 	c #D7F8FE",
"d 	c #5AB5C5",
"e 	c #A6F0FE",
"f 	c #98EDFD",
"g 	c #8AEBFE",
"h 	c #82E9FE",
"i 	c #73E7FC",
"j 	c #66CCE0",
"k 	c #AEC8D1",
"l 	c #F9F9FA",
"m 	c #FDFEFE",
"n 	c #FDFFFD",
"o 	c #FBFBFC",
"p 	c #E6E8E7",
"q 	c #F1F9F9",
"r 	c #EEFCFE",
"s 	c #E8FBFE",
"t 	c #E4FBFE",
"u 	c #DCF9FF",
"v 	c #A2EFFD",
"w 	c #95ECFE",
"x 	c #87E9FE",
"y 	c #78E7FD",
"z 	c #6AE5FE",
"A 	c #5CDFFA",
"B 	c #4FB5C9",
"C 	c #A7BCC3",
"D 	c #FCFCF9",
"E 	c #E4E8E9",
"F 	c #EDF8F9",
"G 	c #E2FBFE",
"H 	c #DCF9FE",
"I 	c #DDF9FF",
"J 	c #D8F9FE",
"K 	c #CEF5FC",
"L 	c #C3F2FB",
"M 	c #B0F0FC",
"N 	c #97EBFC",
"O 	c #8FEBFE",
"P 	c #81E9FF",
"Q 	c #74E6FE",
"R 	c #64E5FE",
"S 	c #58E2FE",
"T 	c #4AD2EE",
"U 	c #418D9D",
"V 	c #B7BFBF",
"W 	c #FEFEFF",
"X 	c #ECEEEE",
"Y 	c #E3EFEF",
"Z 	c #DBF9FD",
"` 	c #CEF4F9",
" .	c #D2F6FD",
"..	c #D0F7FE",
"+.	c #CDF7FE",
"@.	c #C4F4FD",
"#.	c #C2F5FD",
"$.	c #AFF0FC",
"%.	c #A5EBFC",
"&.	c #92EBFC",
"*.	c #8AEAFD",
"=.	c #7AE9FF",
"-.	c #6DE6FD",
";.	c #60E2FB",
">.	c #50DDF7",
",.	c #46DEFC",
"'.	c #39AEC6",
").	c #476B71",
"!.	c #F0F1F0",
"~.	c #DEE6E6",
"{.	c #C5F7FC",
"].	c #94C0C7",
"^.	c #92BCC4",
"/.	c #C4F5FB",
"(.	c #C2F4FE",
"_.	c #BCF3FD",
":.	c #B5F3FE",
"<.	c #90EBFC",
"[.	c #8BEAFD",
"}.	c #82E8FE",
"|.	c #76E6FE",
"1.	c #67E3FA",
"2.	c #54B3C7",
"3.	c #52B9C7",
"4.	c #43E0FE",
"5.	c #35D0F0",
"6.	c #286D7D",
"7.	c #9AA3A5",
"8.	c #CFE9EA",
"9.	c #C1F6FD",
"0.	c #B7F5FF",
"a.	c #7AB2B9",
"b.	c #285C67",
"c.	c #83B3BD",
"d.	c #B2F2FB",
"e.	c #B0F1FE",
"f.	c #84EAFE",
"g.	c #78E7FE",
"h.	c #6CE3FB",
"i.	c #58BAC9",
"j.	c #4A818B",
"k.	c #4CA0A6",
"l.	c #3CE1FE",
"m.	c #2FDCFB",
"n.	c #2694AC",
"o.	c #38585C",
"p.	c #C7F0F3",
"q.	c #92CFD8",
"r.	c #8CCCD4",
"s.	c #689FAD",
"t.	c #45636B",
"u.	c #2A545D",
"v.	c #74B0BB",
"w.	c #A3EFFC",
"x.	c #95E9F9",
"y.	c #8BE6F6",
"z.	c #78E9FD",
"A.	c #6EE4FA",
"B.	c #5AB9C8",
"C.	c #5E898F",
"D.	c #396D73",
"E.	c #3A8592",
"F.	c #3CB8CF",
"G.	c #2CB4CD",
"H.	c #21B3CE",
"I.	c #113C47",
"J.	c #ABD9DE",
"K.	c #4D828C",
"L.	c #50747A",
"M.	c #517279",
"N.	c #7F989B",
"O.	c #6EA9B5",
"P.	c #1B4B56",
"Q.	c #6AAEBC",
"R.	c #7CD6E5",
"S.	c #6FE7FD",
"T.	c #5A858C",
"U.	c #76B9BF",
"V.	c #3F94A3",
"W.	c #3B7179",
"X.	c #40767E",
"Y.	c #255B67",
"Z.	c #31C6DA",
"`.	c #0C3F4B",
" +	c #9BD7DE",
".+	c #47727B",
"++	c #A1E4EF",
"@+	c #99F0FE",
"#+	c #95EFFE",
"$+	c #8BECFD",
"%+	c #62AEBB",
"&+	c #144652",
"*+	c #5EBAC6",
"=+	c #598488",
"-+	c #75C1C6",
";+	c #4BE1FE",
">+	c #40E1FE",
",+	c #3EE6FD",
"'+	c #30CCE5",
")+	c #2B666F",
"!+	c #31CCE5",
"~+	c #094350",
"{+	c #89D5DD",
"]+	c #45747D",
"^+	c #89E1EE",
"/+	c #7CEAFD",
"(+	c #7BEAFD",
"_+	c #7DE8FC",
":+	c #70D7E6",
"<+	c #528A93",
"[+	c #5A7E85",
"}+	c #4593A3",
"|+	c #255762",
"1+	c #40C5E0",
"2+	c #3DDDFD",
"3+	c #33DEFD",
"4+	c #2CDCFC",
"5+	c #1FC4E3",
"6+	c #2B656F",
"7+	c #2CCBE2",
"8+	c #043F4C",
"9+	c #81D4DA",
"0+	c #3C737A",
"a+	c #5BA9B7",
"b+	c #58ADC0",
"c+	c #5CBDD4",
"d+	c #64D2E3",
"e+	c #5F9AA5",
"f+	c #6D9195",
"g+	c #78E1ED",
"h+	c #4ED4E9",
"i+	c #4BDBF6",
"j+	c #1F798C",
"k+	c #0F5764",
"l+	c #2BBBD8",
"m+	c #33B7D2",
"n+	c #32A6C0",
"o+	c #2F9CB2",
"p+	c #316D73",
"q+	c #25BFD8",
"r+	c #03353F",
"s+	c #6ED5E6",
"t+	c #438190",
"u+	c #50858C",
"v+	c #3D727F",
"w+	c #457B80",
"x+	c #5D9AA2",
"y+	c #6B959B",
"z+	c #70E3F1",
"A+	c #33DAFB",
"B+	c #36D8F5",
"C+	c #197C90",
"D+	c #075160",
"E+	c #357B8A",
"F+	c #3A737A",
"G+	c #348591",
"H+	c #30818B",
"I+	c #1FA9C0",
"J+	c #022935",
"K+	c #5CD1E1",
"L+	c #5AE2F8",
"M+	c #55E3F7",
"N+	c #44A4B5",
"O+	c #2D656F",
"P+	c #699499",
"Q+	c #67DFF0",
"R+	c #4DDFFC",
"S+	c #4DDDF6",
"T+	c #3BDAF6",
"U+	c #2AD8FB",
"V+	c #2EDBFD",
"W+	c #27D2F5",
"X+	c #117E95",
"Y+	c #225E6A",
"Z+	c #2D9AA5",
"`+	c #12D9FA",
" @	c #0CD3F7",
".@	c #047287",
"+@	c #16363C",
"@@	c #6CC5D5",
"#@	c #49E0FD",
"$@	c #379AAB",
"%@	c #59878D",
"&@	c #57DCF0",
"*@	c #3FDEFD",
"=@	c #3FDEFB",
"-@	c #31DAF8",
";@	c #27D8FA",
">@	c #27D9FE",
",@	c #23D9FE",
"'@	c #1DD7FD",
")@	c #17D1F4",
"!@	c #0A7A91",
"~@	c #2899A5",
"{@	c #0AD6FF",
"]@	c #02B3D6",
"^@	c #033D4A",
"/@	c #6E777B",
"(@	c #B8D1D2",
"_@	c #32C3E2",
":@	c #35DCFC",
"<@	c #39CAE2",
"[@	c #4BDAF3",
"}@	c #33DDFD",
"|@	c #34DAFD",
"1@	c #33DAFA",
"2@	c #2EDAF9",
"3@	c #20D7FE",
"4@	c #19D6FE",
"5@	c #14D6FE",
"6@	c #10D6FE",
"7@	c #0DD0F4",
"8@	c #19D0ED",
"9@	c #03CDF2",
"0@	c #02677D",
"a@	c #13393F",
"b@	c #DBDADA",
"c@	c #F9F8F8",
"d@	c #6EA8B4",
"e@	c #26BAD9",
"f@	c #27D5F8",
"g@	c #26DAFD",
"h@	c #2AD8FD",
"i@	c #26D9FE",
"j@	c #27D9FB",
"k@	c #21D7FA",
"l@	c #15D7FC",
"m@	c #11D6FF",
"n@	c #0DD5FD",
"o@	c #09D4FD",
"p@	c #04D4FF",
"q@	c #02CEF5",
"r@	c #0187A4",
"s@	c #053441",
"t@	c #7A8385",
"u@	c #FEFDFE",
"v@	c #E7EAEB",
"w@	c #468795",
"x@	c #1A9CB7",
"y@	c #1FC9ED",
"z@	c #1CD7FD",
"A@	c #1BD7FE",
"B@	c #1AD8FC",
"C@	c #1AD7FE",
"D@	c #19D8FA",
"E@	c #0ED4FF",
"F@	c #08D4FF",
"G@	c #06D3FD",
"H@	c #03D4FE",
"I@	c #01C8F1",
"J@	c #0185A0",
"K@	c #043743",
"L@	c #57696C",
"M@	c #F3F2F1",
"N@	c #FEFFFD",
"O@	c #E1E2E1",
"P@	c #466C73",
"Q@	c #12697F",
"R@	c #0FACCB",
"S@	c #11CEF2",
"T@	c #0FD6FD",
"U@	c #06D4FF",
"V@	c #03D3FD",
"W@	c #01D0F8",
"X@	c #01B4D9",
"Y@	c #016475",
"Z@	c #06343E",
"`@	c #536368",
" #	c #EAECED",
".#	c #FFFDFE",
"+#	c #FEFFFE",
"@#	c #ECEBEC",
"##	c #738484",
"$#	c #133E48",
"%#	c #085A69",
"&#	c #088AA4",
"*#	c #01BDE3",
"=#	c #0299B5",
"-#	c #02627A",
";#	c #023C47",
">#	c #14343D",
",#	c #858F91",
"'#	c #F2F5F1",
")#	c #FFFFFD",
"!#	c #FFFEFD",
"~#	c #FBFCFC",
"{#	c #C6CACB",
"]#	c #687A7D",
"^#	c #13353D",
"/#	c #012C3A",
"(#	c #033A46",
"_#	c #003F4C",
":#	c #01333D",
"<#	c #012830",
"[#	c #1E3B41",
"}#	c #758385",
"|#	c #D6D6D8",
". . . . + @ # $ % & * = - ; > , ' + ) . . . ",
". . ! ~ { ] ^ / ( _ : < [ } | 1 2 3 4 5 6 . ",
". ~ 7 8 9 0 a b c : : d e f g h i j k l m n ",
"6 o p q r s t u : d : d v w x y z A B C D 4 ",
"m E F G H I J K L M : d N O P Q R S T U V W ",
"X Y Z `  ...+.@.#.$.%.d &.*.=.-.;.>.,.'.).!.",
"~.H {.].^./.(._.:.: : <.[.}.|.1.2.3.4.5.6.7.",
"8.9.0.a.b.c.d.e.: d d : f.g.h.i.j.k.l.m.n.o.",
"p.q.r.s.t.u.v.w.x.y.: d z.A.B.C.D.E.F.G.H.I.",
"J.K.L.M.N.O.P.Q.R.: d z.S.d T.U.V.W.X.Y.Z.`.",
" +.+++@+#+$+%+&+: : : : *+=+-+;+>+,+'+)+!+~+",
"{+]+^+/+(+_+:+<+[+d d d }+|+1+2+3+4+5+6+7+8+",
"9+0+a+b+c+d+e+f+g+: : h+i+j+k+l+m+n+o+p+q+r+",
"s+t+u+v+w+x+y+z+: d d : A+B+C+D+E+F+G+H+I+J+",
"K+L+M+N+O+P+Q+R+S+T+: d U+V+W+X+Y+Z+`+ @.@+@",
"@@#@>+$@%@&@*@=@: -@;@: >@,@'@)@!@~@{@]@^@/@",
"(@_@:@<@[@}@|@1@2@: : d 3@4@5@6@7@8@9@0@a@b@",
"c@d@e@f@g@h@i@j@k@d d d l@m@n@o@p@q@r@s@t@u@",
"+ v@w@x@y@z@A@B@C@: : D@E@F@G@H@I@J@K@L@M@N@",
"+ + O@P@Q@R@S@T@: d : d U@V@W@X@Y@Z@`@ #.#+#",
". . W @###$#%#&#: : : : *#=#-#;#>#,#'#)#6 m ",
". . n !#~#{#]#^#/#(#: _#:#<#[#}#|#+ !#N@+#+ "};
