/* XPM */
static const char *yammiicon_xpm[]={
"20 20 165 2",
"Qt c None",
"at c #292012",
"#Q c #33312f",
"am c #382509",
"aj c #382f21",
"av c #3f382e",
"au c #42321c",
"#Y c #43423f",
"#h c #434343",
"a. c #454545",
"#G c #463113",
"#L c #492f0b",
"aq c #494949",
"#d c #4a3c28",
"#8 c #4a453e",
"#s c #4a4641",
"#0 c #4a4a4a",
"#9 c #4b4235",
"#r c #4b4b4b",
".D c #4c4337",
"aw c #4c4842",
"#w c #4c4b49",
"#E c #4c4c4c",
"aA c #4d4d4d",
"#Z c #515151",
"aH c #525252",
".x c #533b1a",
"ax c #565554",
"ap c #575757",
"#3 c #58380b",
".W c #585858",
".B c #595959",
"#O c #5a5a5a",
"#T c #5c4e3a",
"a# c #5c5b5a",
"#N c #5c5c5c",
"#l c #5d3b0c",
"aI c #5d5d5d",
"aG c #606060",
"#D c #626262",
"ay c #636363",
".R c #654c29",
".8 c #666666",
"#q c #686868",
"#i c #696865",
"#g c #6a6a6a",
"#V c #6b6b6b",
"ag c #6c6c6c",
"#M c #6e460d",
".L c #6e685f",
"aF c #707070",
"an c #717171",
"#b c #726149",
".y c #757575",
".w c #775c35",
"az c #787878",
"#I c #794c0c",
"ac c #795a2f",
".u c #7b7874",
".2 c #7d5216",
"aE c #7d7d7d",
".q c #7e7e7e",
"#F c #828282",
".O c #858381",
"af c #868686",
".v c #877255",
"#C c #878787",
".4 c #888582",
"#v c #89550b",
"ao c #898989",
"#B c #8b8b8b",
".V c #8d8d8d",
"#p c #8e8e8e",
"#5 c #8f8a85",
".9 c #917b5b",
".7 c #929292",
"#t c #935b0c",
".3 c #975d0c",
".t c #979797",
"as c #989898",
"#W c #995e0c",
".A c #999999",
".H c #9a600f",
"aD c #9a9a9a",
"#J c #9b9b9b",
"#m c #9c9b9b",
"ae c #9c9c9c",
".E c #9e610d",
"#A c #9f9f9f",
".I c #a1a1a1",
"aa c #a2640d",
"#7 c #a2a2a2",
"aC c #a4a4a4",
"ad c #a6a6a6",
".p c #a8a8a8",
"aB c #a9a9a9",
".X c #aa690d",
"## c #aa8147",
".K c #aaaaaa",
"#4 c #ab6b11",
".P c #ac6a0e",
"#o c #acacac",
".k c #adadad",
".U c #b1b1b1",
".6 c #b3b3b3",
"#R c #b46f0e",
"#2 c #b6b6b6",
"#j c #b9720f",
"#k c #bc740f",
".z c #bfbfbf",
"#H c #c0760f",
"#6 c #c0c0c0",
"#a c #c3c0bd",
"#1 c #c4c4c4",
".e c #c5c5c5",
".o c #c6c6c6",
"al c #c87b10",
".M c #c8bfb2",
"ar c #c9c9c9",
".J c #cacaca",
"#f c #cbcbcb",
"ah c #cccccc",
".T c #cdcdcd",
".Z c #ceb591",
".1 c #cecece",
".j c #cfcfcf",
"#U c #d2d2d2",
"#z c #d3d3d3",
"#X c #d58310",
".S c #d6d6d6",
"#P c #d8d8d8",
".d c #d9d9d9",
"ak c #db8711",
"#e c #dbdbdb",
".F c #dd8811",
".s c #dddddd",
"#c c #de8811",
".Y c #e18d19",
".n c #e1e1e1",
"#. c #e28b12",
"#S c #e38c11",
"ai c #e3e3e3",
".5 c #e4e4e4",
"#y c #e6e6e6",
"#u c #e78e12",
".c c #e7e7e7",
".Q c #e98f12",
"ab c #e99012",
".i c #e9e9e9",
".G c #ea9012",
"#K c #ebebeb",
"#x c #ececec",
"#n c #ededed",
".b c #f0f0f0",
".C c #f3f3f3",
".a c #f5f5f5",
".# c #f6f6f6",
".r c #f7f7f7",
".l c #f8f8f8",
".m c #f9f9f9",
".0 c #fafaf9",
".h c #fafafa",
".f c #fbfbfb",
".N c #fdfdfd",
".g c #fefefe",
"QtQtQtQtQtQtQt.#.a.b.c.d.eQtQtQtQtQtQtQt",
"QtQtQtQtQt.f.g.g.g.g.g.h.i.j.kQtQtQtQtQt",
"QtQtQt.l.g.g.g.g.g.g.g.g.m.n.o.p.qQtQtQt",
"QtQt.r.g.g.g.g.g.s.t.u.v.w.x.y.z.A.BQtQt",
"QtQt.g.g.g.g.g.C.D.E.F.G.G.H.I.J.K.qQtQt",
"Qt.L.M.g.g.g.N.O.P.G.G.G.Q.R.S.T.U.V.WQt",
"Qt.X.Y.Z.0.g.1.2.G.G.G.G.3.4.5.1.6.7.8Qt",
".9.G.G#.###a#b.F.G.G.G#c#d#e.n#f.U.7#g#h",
"#i.P.G.G.G#j#k.G.G.G.Q#l#m#n#e.e#o#p#q#r",
"Qt#s#t#u.G.G.G.G.G.G#v#w#x#y#z#A#B#C#D#E",
".c.a#F#G#H.G.G.G.G.G#I#J#K#e.7#L#M#N#O#E",
"#P.h.g#e#Q#R.G.G.G.G#S#T#U.j#V#W#X#Y#Z#0",
"#1.i.f.g#2#3.Q.G.G.G.G#4#5#6#7#8#9#O#Ea.",
"Qt.j.c.C.#a#aa.G.G.G.Gabacadaeafag#Z#EQt",
"Qt#oahQtai.jajak.G.G#ualamanaoanap#EaqQt",
"QtQt.p.zar.1asatauavawaxayazan#OaA#EQtQt",
"QtQt.q.A.K.U.6aB.paCaD#p.qagapaA#E#0QtQt",
"QtQtQt#g.q.V.7.7#p#CaEaFaGaH#E#E#rQtQtQt",
"QtQtQtQtQtaI.8#g#q#D.B#Z#E#E#rQtQtQtQtQt",
"QtQtQtQtQtQtQt#EaA#E#E#E#rQtQtQtQtQtQtQt"};
