/* XPM */
static const char *dequeueAll_xpm[]={
"16 16 4 1",
". c None",
"# c #0000ff",
"a c #808080",
"b c #ff0000",
"................",
"................",
"................",
".##############.",
"################",
"################",
".##############a",
"..aaaaaaaaaaaaa.",
"................",
"...b...b...b....",
"..bbb..b...b....",
"..b.b..b...b....",
".bb.bb.b...b....",
".bbbbb.b...b....",
"bb...bbb...b....",
"b.....bbbbbbbbbb"};
