/* XPM */
static const char *enqueueasnext_xpm[]={
"16 16 4 1",
". c None",
"# c #0000ff",
"a c #808080",
"b c #ff0000",
"......##........",
"......##a.......",
"......##a.......",
"...########.....",
"...########a....",
"....aa##aaaa....",
"......##a.......",
"......##a.......",
".......aa.......",
"b..b.bbbbb..bbbb",
"b..b.b...b.b..b.",
"bb.b.b....bb..b.",
"bb.b.bbb..b...b.",
"b.bb.b....bb..b.",
"b.bb.b...b.b..b.",
"b..b.bbbbb..b.b."};
