/* XPM */
static char *filenew[]={
"16 16 49 1",
". c #000000",
"# c #020202",
"U c #030303",
"h c #050505",
"r c #060606",
"a c #303030",
"g c #343434",
"e c #3b3b3b",
"f c #3d3d3d",
"d c #3f3f3f",
"b c #444444",
"c c #454545",
"Q c #474747",
"F c #505050",
"T c #555555",
"E c #606060",
"R c #626262",
"S c #636363",
"K c #a3a3a3",
"D c #a4a4a4",
"i c #a8a8a8",
"M c #adadad",
"s c #b5b5b5",
"q c #bcbcbc",
"A c #c0c0c0",
"n c #c2c2c2",
"x c #c3c3c3",
"C c #c6c6c6",
"o c #c9c9c9",
"y c #cbcbcb",
"P c #d1d1d1",
"m c #d2d2d2",
"L c #d9d9d9",
"w c #dadada",
"p c #dbdbdb",
"B c #dddddd",
"z c #dfdfdf",
"J c #e5e5e5",
"j c #ebebeb",
"l c #ececec",
"k c #eeeeee",
"N c #f1f1f1",
"O c #f4f4f4",
"I c #f7f7f7",
"H c #fbfbfb",
"t c #fcfcfc",
"v c #fdfdfd",
"G c #fefefe",
"u c #ffffff",
".#abcccccccdeefg",
".hijkkkkkklmnopq",
".rstuuuuuuvwxyzA",
".rstuuuuuuvBCDEF",
".rstuuuuuuGHIJAK",
".rstuuuuuuuuGvvL",
".rstuuuuuuuuuuuw",
".rstuuuuuuuuuuuw",
".rstuuuuuuuuuuuw",
".rMNOOOOOOOOOOOP",
".#QRSSSSSSSSSSST",
"..#UUUUUUUUUUUU#",
"................",
"................",
"................",
"................"};
