/* XPM */
static const char *skipforwardim_xpm[]={
"16 16 3 1",
". c None",
"a c #000000",
"# c #ffff00",
".........###....",
"........##......",
"aa.....##......a",
"aaa...##aa.....a",
"aaaaa##aaaaa...a",
"aa.a#######aaa.a",
"aa..########aaaa",
"aa....aaa##..aaa",
"aa....aa##...aaa",
"aa..##a##...aaaa",
"aa.a####a.aaaa.a",
"aaaa###aaaaa...a",
"aaa.####aa.....a",
"aa..#####......a",
"................",
"................"};
